<svg width="717" height="552" viewBox="0 0 717 552" fill="none" xmlns="http://www.w3.org/2000/svg">
<g filter="url(#filter0_d)">
<path d="M28 43.8154C28 29.0057 40.0057 17 54.8154 17H662.185C676.994 17 689 29.0057 689 43.8154V486.185C689 500.994 676.994 513 662.185 513H54.8154C40.0057 513 28 500.994 28 486.185V43.8154Z" fill="white"/>
</g>
<mask id="mask0" mask-type="alpha" maskUnits="userSpaceOnUse" x="28" y="17" width="661" height="496">
<path d="M28 43.8154C28 29.0057 40.0057 17 54.8154 17H662.185C676.994 17 689 29.0057 689 43.8154V486.185C689 500.994 676.994 513 662.185 513H54.8154C40.0057 513 28 500.994 28 486.185V43.8154Z" fill="white"/>
</mask>
<g mask="url(#mask0)">
<path fill-rule="evenodd" clip-rule="evenodd" d="M64 54C66.7614 54 69 51.7614 69 49C69 46.2386 66.7614 44 64 44C61.2386 44 59 46.2386 59 49C59 51.7614 61.2386 54 64 54Z" fill="#80EBFF"/>
<path fill-rule="evenodd" clip-rule="evenodd" d="M80 54C82.7614 54 85 51.7614 85 49C85 46.2386 82.7614 44 80 44C77.2386 44 75 46.2386 75 49C75 51.7614 77.2386 54 80 54Z" fill="#FD7A8C"/>
<path fill-rule="evenodd" clip-rule="evenodd" d="M96 54C98.7614 54 101 51.7614 101 49C101 46.2386 98.7614 44 96 44C93.2386 44 91 46.2386 91 49C91 51.7614 93.2386 54 96 54Z" fill="#FEE895"/>
</g>
<path opacity="0.803037" d="M68 182C68 178.686 70.6863 176 74 176H403C406.314 176 409 178.686 409 182V222C409 225.314 406.314 228 403 228H74C70.6863 228 68 225.314 68 222V182Z" fill="#F3F9FD"/>
<path d="M93.5752 197.425V198.535H90.5902V208H89.2252V198.535H86.2402V197.425H93.5752Z" fill="#9EA7B8"/>
<path d="M95.5196 199.765L98.1896 206.245L100.665 199.765H102.18L97.2896 211.9H95.7446L97.4546 207.865L93.9896 199.765H95.5196Z" fill="#9EA7B8"/>
<path d="M107.993 199.66C108.723 199.66 109.373 199.83 109.943 200.17C110.513 200.51 110.958 201 111.278 201.64C111.608 202.28 111.773 203.03 111.773 203.89C111.773 204.75 111.608 205.5 111.278 206.14C110.958 206.77 110.513 207.255 109.943 207.595C109.373 207.935 108.723 208.105 107.993 208.105C107.193 208.105 106.513 207.905 105.953 207.505C105.403 207.095 105.023 206.56 104.813 205.9V211.9H103.448V199.765H104.813V201.865C105.023 201.205 105.403 200.675 105.953 200.275C106.513 199.865 107.193 199.66 107.993 199.66ZM107.603 200.875C107.073 200.875 106.593 201 106.163 201.25C105.733 201.49 105.398 201.84 105.158 202.3C104.918 202.76 104.798 203.29 104.798 203.89C104.798 204.49 104.918 205.02 105.158 205.48C105.398 205.93 105.733 206.28 106.163 206.53C106.593 206.78 107.073 206.905 107.603 206.905C108.453 206.905 109.128 206.64 109.628 206.11C110.138 205.57 110.393 204.83 110.393 203.89C110.393 202.95 110.138 202.215 109.628 201.685C109.128 201.145 108.453 200.875 107.603 200.875Z" fill="#9EA7B8"/>
<path d="M121.148 203.425C121.148 203.715 121.128 203.965 121.088 204.175H114.503C114.533 205.115 114.798 205.82 115.298 206.29C115.808 206.76 116.428 206.995 117.158 206.995C117.818 206.995 118.368 206.83 118.808 206.5C119.258 206.16 119.533 205.71 119.633 205.15H121.088C120.988 205.72 120.763 206.23 120.413 206.68C120.073 207.13 119.628 207.48 119.078 207.73C118.528 207.98 117.908 208.105 117.218 208.105C116.428 208.105 115.728 207.935 115.118 207.595C114.508 207.255 114.028 206.77 113.678 206.14C113.338 205.5 113.168 204.75 113.168 203.89C113.168 203.03 113.338 202.28 113.678 201.64C114.028 201 114.508 200.51 115.118 200.17C115.728 199.83 116.428 199.66 117.218 199.66C118.018 199.66 118.713 199.83 119.303 200.17C119.903 200.51 120.358 200.965 120.668 201.535C120.988 202.105 121.148 202.735 121.148 203.425ZM119.768 203.515C119.798 202.905 119.698 202.395 119.468 201.985C119.238 201.575 118.923 201.27 118.523 201.07C118.123 200.87 117.688 200.77 117.218 200.77C116.468 200.77 115.838 201.005 115.328 201.475C114.818 201.935 114.543 202.615 114.503 203.515H119.768Z" fill="#9EA7B8"/>
<path d="M127.244 199.765L129.914 206.245L132.389 199.765H133.904L129.014 211.9H127.469L129.179 207.865L125.714 199.765H127.244Z" fill="#9EA7B8"/>
<path d="M138.908 199.66C139.698 199.66 140.403 199.83 141.023 200.17C141.653 200.51 142.143 201 142.493 201.64C142.853 202.28 143.033 203.03 143.033 203.89C143.033 204.75 142.853 205.5 142.493 206.14C142.143 206.77 141.653 207.255 141.023 207.595C140.403 207.935 139.698 208.105 138.908 208.105C138.118 208.105 137.408 207.935 136.778 207.595C136.158 207.255 135.668 206.77 135.308 206.14C134.948 205.5 134.768 204.75 134.768 203.89C134.768 203.03 134.948 202.28 135.308 201.64C135.668 201 136.158 200.51 136.778 200.17C137.408 199.83 138.118 199.66 138.908 199.66ZM138.908 200.86C138.418 200.86 137.963 200.97 137.543 201.19C137.133 201.41 136.798 201.75 136.538 202.21C136.288 202.66 136.163 203.22 136.163 203.89C136.163 204.55 136.288 205.11 136.538 205.57C136.798 206.02 137.133 206.355 137.543 206.575C137.963 206.795 138.418 206.905 138.908 206.905C139.398 206.905 139.848 206.795 140.258 206.575C140.678 206.355 141.013 206.02 141.263 205.57C141.523 205.11 141.653 204.55 141.653 203.89C141.653 203.22 141.523 202.66 141.263 202.21C141.013 201.75 140.678 201.41 140.258 201.19C139.848 200.97 139.398 200.86 138.908 200.86Z" fill="#9EA7B8"/>
<path d="M152.149 199.765V208H150.784V206.065C150.574 206.735 150.199 207.25 149.659 207.61C149.129 207.96 148.509 208.135 147.799 208.135C146.849 208.135 146.079 207.83 145.489 207.22C144.899 206.6 144.604 205.715 144.604 204.565V199.765H145.969V204.43C145.969 205.25 146.179 205.885 146.599 206.335C147.019 206.775 147.589 206.995 148.309 206.995C149.059 206.995 149.659 206.755 150.109 206.275C150.559 205.785 150.784 205.075 150.784 204.145V199.765H152.149Z" fill="#9EA7B8"/>
<path d="M155.719 201.43C155.989 200.86 156.384 200.42 156.904 200.11C157.424 199.79 158.044 199.63 158.764 199.63V201.115H158.344C157.574 201.115 156.944 201.315 156.454 201.715C155.964 202.105 155.719 202.755 155.719 203.665V208H154.354V199.765H155.719V201.43Z" fill="#9EA7B8"/>
<path d="M167.781 206.8V208H166.761C165.921 208 165.291 207.8 164.871 207.4C164.461 207 164.256 206.33 164.256 205.39V200.95H163.026V199.765H164.256V197.71H165.636V199.765H167.766V200.95H165.636V205.42C165.636 205.95 165.731 206.315 165.921 206.515C166.121 206.705 166.461 206.8 166.941 206.8H167.781Z" fill="#9EA7B8"/>
<path d="M169.224 197.35C169.224 197.1 169.309 196.9 169.479 196.75C169.649 196.59 169.874 196.51 170.154 196.51C170.434 196.51 170.659 196.59 170.829 196.75C170.999 196.9 171.084 197.1 171.084 197.35C171.084 197.6 170.999 197.805 170.829 197.965C170.659 198.115 170.434 198.19 170.154 198.19C169.874 198.19 169.649 198.115 169.479 197.965C169.309 197.805 169.224 197.6 169.224 197.35ZM170.829 199.765V208H169.464V199.765H170.829Z" fill="#9EA7B8"/>
<path d="M176.971 206.8V208H175.951C175.111 208 174.481 207.8 174.061 207.4C173.651 207 173.446 206.33 173.446 205.39V200.95H172.216V199.765H173.446V197.71H174.826V199.765H176.956V200.95H174.826V205.42C174.826 205.95 174.921 206.315 175.111 206.515C175.311 206.705 175.651 206.8 176.131 206.8H176.971Z" fill="#9EA7B8"/>
<path d="M180.02 196.9V208H178.655V196.9H180.02Z" fill="#9EA7B8"/>
<path d="M189.807 203.425C189.807 203.715 189.787 203.965 189.747 204.175H183.162C183.192 205.115 183.457 205.82 183.957 206.29C184.467 206.76 185.087 206.995 185.817 206.995C186.477 206.995 187.027 206.83 187.467 206.5C187.917 206.16 188.192 205.71 188.292 205.15H189.747C189.647 205.72 189.422 206.23 189.072 206.68C188.732 207.13 188.287 207.48 187.737 207.73C187.187 207.98 186.567 208.105 185.877 208.105C185.087 208.105 184.387 207.935 183.777 207.595C183.167 207.255 182.687 206.77 182.337 206.14C181.997 205.5 181.827 204.75 181.827 203.89C181.827 203.03 181.997 202.28 182.337 201.64C182.687 201 183.167 200.51 183.777 200.17C184.387 199.83 185.087 199.66 185.877 199.66C186.677 199.66 187.372 199.83 187.962 200.17C188.562 200.51 189.017 200.965 189.327 201.535C189.647 202.105 189.807 202.735 189.807 203.425ZM188.427 203.515C188.457 202.905 188.357 202.395 188.127 201.985C187.897 201.575 187.582 201.27 187.182 201.07C186.782 200.87 186.347 200.77 185.877 200.77C185.127 200.77 184.497 201.005 183.987 201.475C183.477 201.935 183.202 202.615 183.162 203.515H188.427Z" fill="#9EA7B8"/>
<path opacity="0.803037" d="M433 182C433 178.686 435.686 176 439 176H639C642.314 176 645 178.686 645 182V222C645 225.314 642.314 228 639 228H439C435.686 228 433 225.314 433 222V182Z" fill="#F3F9FD"/>
<path d="M543 61C543 56.5817 546.582 53 551 53H641C645.418 53 649 56.5817 649 61V85C649 89.4183 645.418 93 641 93H551C546.582 93 543 89.4183 543 85V61Z" fill="#80EBFF"/>
<path d="M581.75 70.6299C582.72 70.6299 583.495 70.8799 584.075 71.3799C584.665 71.8699 585.025 72.5299 585.155 73.3599H583.535C583.465 72.9099 583.27 72.5499 582.95 72.2799C582.64 71.9999 582.225 71.8599 581.705 71.8599C581.275 71.8599 580.94 71.9649 580.7 72.1749C580.47 72.3749 580.355 72.6499 580.355 72.9999C580.355 73.2599 580.44 73.4699 580.61 73.6299C580.78 73.7899 580.99 73.9149 581.24 74.0049C581.5 74.0949 581.865 74.1949 582.335 74.3049C582.955 74.4449 583.455 74.5899 583.835 74.7399C584.225 74.8899 584.555 75.1299 584.825 75.4599C585.105 75.7799 585.245 76.2199 585.245 76.7799C585.245 77.4699 584.98 78.0299 584.45 78.4599C583.93 78.8899 583.225 79.1049 582.335 79.1049C581.305 79.1049 580.47 78.8649 579.83 78.3849C579.2 77.9049 578.82 77.2349 578.69 76.3749H580.355C580.405 76.8249 580.605 77.1899 580.955 77.4699C581.305 77.7499 581.765 77.8899 582.335 77.8899C582.745 77.8899 583.065 77.7849 583.295 77.5749C583.535 77.3549 583.655 77.0799 583.655 76.7499C583.655 76.4599 583.565 76.2299 583.385 76.0599C583.205 75.8899 582.98 75.7599 582.71 75.6699C582.44 75.5699 582.07 75.4699 581.6 75.3699C581 75.2299 580.51 75.0899 580.13 74.9499C579.76 74.8099 579.44 74.5849 579.17 74.2749C578.91 73.9549 578.78 73.5249 578.78 72.9849C578.78 72.2849 579.04 71.7199 579.56 71.2899C580.09 70.8499 580.82 70.6299 581.75 70.6299Z" fill="#3BBAD2"/>
<path d="M590.292 70.6299C591.042 70.6299 591.682 70.8149 592.212 71.1849C592.742 71.5549 593.117 72.0449 593.337 72.6549V70.7349H595.047V78.9999H593.337V77.0799C593.117 77.6899 592.742 78.1799 592.212 78.5499C591.682 78.9199 591.042 79.1049 590.292 79.1049C589.572 79.1049 588.927 78.9349 588.357 78.5949C587.797 78.2549 587.357 77.7649 587.037 77.1249C586.717 76.4849 586.557 75.7299 586.557 74.8599C586.557 73.9999 586.717 73.2499 587.037 72.6099C587.357 71.9699 587.797 71.4799 588.357 71.1399C588.927 70.7999 589.572 70.6299 590.292 70.6299ZM590.817 72.1299C590.057 72.1299 589.447 72.3749 588.987 72.8649C588.537 73.3449 588.312 74.0099 588.312 74.8599C588.312 75.7099 588.537 76.3799 588.987 76.8699C589.447 77.3499 590.057 77.5899 590.817 77.5899C591.297 77.5899 591.727 77.4799 592.107 77.2599C592.487 77.0299 592.787 76.7099 593.007 76.2999C593.227 75.8899 593.337 75.4099 593.337 74.8599C593.337 74.3199 593.227 73.8449 593.007 73.4349C592.787 73.0149 592.487 72.6949 592.107 72.4749C591.727 72.2449 591.297 72.1299 590.817 72.1299Z" fill="#3BBAD2"/>
<path d="M600.507 77.2299L602.847 70.7349H604.677L601.527 78.9999H599.457L596.307 70.7349H598.137L600.507 77.2299Z" fill="#3BBAD2"/>
<path d="M613.632 74.4699C613.632 74.7499 613.612 74.9949 613.572 75.2049H607.212C607.242 76.0549 607.477 76.6849 607.917 77.0949C608.357 77.5049 608.902 77.7099 609.552 77.7099C610.122 77.7099 610.602 77.5649 610.992 77.2749C611.392 76.9849 611.637 76.5999 611.727 76.1199H613.557C613.447 76.6999 613.217 77.2149 612.867 77.6649C612.517 78.1149 612.062 78.4699 611.502 78.7299C610.942 78.9799 610.317 79.1049 609.627 79.1049C608.827 79.1049 608.117 78.9349 607.497 78.5949C606.887 78.2549 606.407 77.7649 606.057 77.1249C605.707 76.4849 605.532 75.7299 605.532 74.8599C605.532 73.9999 605.707 73.2499 606.057 72.6099C606.407 71.9699 606.887 71.4799 607.497 71.1399C608.117 70.7999 608.827 70.6299 609.627 70.6299C610.437 70.6299 611.142 70.7999 611.742 71.1399C612.352 71.4699 612.817 71.9299 613.137 72.5199C613.467 73.0999 613.632 73.7499 613.632 74.4699ZM611.907 74.4249C611.927 73.8849 611.832 73.4349 611.622 73.0749C611.422 72.7049 611.142 72.4349 610.782 72.2649C610.432 72.0849 610.047 71.9949 609.627 71.9949C608.957 71.9949 608.397 72.1999 607.947 72.6099C607.497 73.0199 607.252 73.6249 607.212 74.4249H611.907Z" fill="#3BBAD2"/>
<path opacity="0.803037" d="M68 293C68 289.686 70.6863 287 74 287H639C642.314 287 645 289.686 645 293V464C645 467.314 642.314 470 639 470H74C70.6863 470 68 467.314 68 464V293Z" fill="#F3F9FD"/>
<path d="M82 306C82 303.239 84.2386 301 87 301H108C110.761 301 113 303.239 113 306V327C113 329.761 110.761 332 108 332H87C84.2386 332 82 329.761 82 327V306Z" fill="white"/>
<path d="M115 306C115 303.239 117.239 301 120 301H141C143.761 301 146 303.239 146 306V327C146 329.761 143.761 332 141 332H120C117.239 332 115 329.761 115 327V306Z" fill="white"/>
<path d="M148 306C148 303.239 150.239 301 153 301H174C176.761 301 179 303.239 179 306V327C179 329.761 176.761 332 174 332H153C150.239 332 148 329.761 148 327V306Z" fill="white"/>
<path d="M556 306C556 303.239 558.239 301 561 301H593C595.761 301 598 303.239 598 306V327C598 329.761 595.761 332 593 332H561C558.239 332 556 329.761 556 327V306Z" fill="white"/>
<path d="M600 306C600 303.239 602.239 301 605 301H626C628.761 301 631 303.239 631 306V327C631 329.761 628.761 332 626 332H605C602.239 332 600 329.761 600 327V306Z" fill="white"/>
<path d="M100.244 317.448C101.012 317.604 101.624 317.97 102.08 318.546C102.548 319.11 102.782 319.776 102.782 320.544C102.782 321.612 102.422 322.458 101.702 323.082C100.994 323.694 99.9619 324 98.6059 324H93.1519V311.292H98.4979C99.7819 311.292 100.766 311.574 101.45 312.138C102.146 312.702 102.494 313.494 102.494 314.514C102.494 315.306 102.284 315.954 101.864 316.458C101.456 316.962 100.916 317.292 100.244 317.448ZM95.6899 316.62H97.9759C98.6119 316.62 99.0919 316.482 99.4159 316.206C99.7519 315.918 99.9199 315.51 99.9199 314.982C99.9199 314.454 99.7579 314.046 99.4339 313.758C99.1099 313.47 98.6119 313.326 97.9399 313.326H95.6899V316.62ZM98.1019 321.93C98.7739 321.93 99.2899 321.786 99.6499 321.498C100.01 321.198 100.19 320.766 100.19 320.202C100.19 319.638 100.004 319.206 99.6319 318.906C99.2719 318.594 98.7559 318.438 98.0839 318.438H95.6899V321.93H98.1019Z" fill="#C7D1DF"/>
<path d="M129.676 323H127.961L131.143 310.433H132.857L129.676 323Z" fill="#C7D1DF"/>
<path d="M129 310H135V311.733H129V310Z" fill="#C7D1DF"/>
<path d="M126 321.267H132V323H126V321.267Z" fill="#C7D1DF"/>
<path d="M163.943 319.308H163.056C160.773 319.308 158.917 317.625 158.917 315.556V311H160.099V315.556C160.099 317.034 161.426 318.236 163.056 318.236H163.943C165.574 318.236 166.9 317.034 166.9 315.556V311H168.083V315.556C168.083 317.625 166.226 319.308 163.943 319.308Z" fill="#C7D1DF"/>
<path fill-rule="evenodd" clip-rule="evenodd" d="M158.455 310.539H160.561V315.556C160.561 316.737 161.637 317.774 163.056 317.774H163.943C165.363 317.774 166.439 316.737 166.439 315.556V310.539H168.545V315.556C168.545 317.921 166.437 319.769 163.943 319.769H163.056C160.562 319.769 158.455 317.921 158.455 315.556V310.539ZM159.378 311.462V315.556C159.378 317.328 160.985 318.846 163.056 318.846H163.943C166.015 318.846 167.622 317.328 167.622 315.556V311.462H167.362V315.556C167.362 317.33 165.785 318.697 163.943 318.697H163.056C161.215 318.697 159.638 317.33 159.638 315.556V311.462H159.378Z" fill="#C7D1DF"/>
<path d="M158 321.603H169V323H158V321.603Z" fill="#C7D1DF"/>
<path d="M568.345 316.754L572.773 312.737L571.281 311.03L566.754 315.137C565.793 316.009 565.786 317.487 566.745 318.363L571.241 322.47L572.739 320.768L568.345 316.754Z" fill="#C7D1DF"/>
<path d="M586.144 316.75L581.716 312.733L583.209 311.026L587.736 315.133C588.696 316.004 588.703 317.483 587.745 318.358L583.249 322.465L581.751 320.764L586.144 316.75Z" fill="#C7D1DF"/>
<path d="M609.673 320.565L621.644 320.683C622.056 320.679 622.32 320.23 622.086 319.879L618.555 314.106C618.359 313.807 617.927 313.775 617.708 314.041L614.892 317.458C614.706 317.686 614.349 317.723 614.14 317.498L612.613 316.07C612.386 315.846 612.011 315.884 611.827 316.148L609.252 319.716C609.001 320.074 609.243 320.57 609.673 320.565Z" fill="#C7D1DF"/>
<path d="M614.844 314.03C615.395 314.001 615.819 313.531 615.79 312.979C615.761 312.428 615.29 312.004 614.739 312.033C614.187 312.062 613.764 312.533 613.793 313.084C613.821 313.636 614.292 314.059 614.844 314.03Z" fill="#C7D1DF"/>
<path d="M93.5752 356.425V357.535H90.5902V367H89.2252V357.535H86.2402V356.425H93.5752Z" fill="#9EA7B8"/>
<path d="M95.5196 358.765L98.1896 365.245L100.665 358.765H102.18L97.2896 370.9H95.7446L97.4546 366.865L93.9896 358.765H95.5196Z" fill="#9EA7B8"/>
<path d="M107.993 358.66C108.723 358.66 109.373 358.83 109.943 359.17C110.513 359.51 110.958 360 111.278 360.64C111.608 361.28 111.773 362.03 111.773 362.89C111.773 363.75 111.608 364.5 111.278 365.14C110.958 365.77 110.513 366.255 109.943 366.595C109.373 366.935 108.723 367.105 107.993 367.105C107.193 367.105 106.513 366.905 105.953 366.505C105.403 366.095 105.023 365.56 104.813 364.9V370.9H103.448V358.765H104.813V360.865C105.023 360.205 105.403 359.675 105.953 359.275C106.513 358.865 107.193 358.66 107.993 358.66ZM107.603 359.875C107.073 359.875 106.593 360 106.163 360.25C105.733 360.49 105.398 360.84 105.158 361.3C104.918 361.76 104.798 362.29 104.798 362.89C104.798 363.49 104.918 364.02 105.158 364.48C105.398 364.93 105.733 365.28 106.163 365.53C106.593 365.78 107.073 365.905 107.603 365.905C108.453 365.905 109.128 365.64 109.628 365.11C110.138 364.57 110.393 363.83 110.393 362.89C110.393 361.95 110.138 361.215 109.628 360.685C109.128 360.145 108.453 359.875 107.603 359.875Z" fill="#9EA7B8"/>
<path d="M121.148 362.425C121.148 362.715 121.128 362.965 121.088 363.175H114.503C114.533 364.115 114.798 364.82 115.298 365.29C115.808 365.76 116.428 365.995 117.158 365.995C117.818 365.995 118.368 365.83 118.808 365.5C119.258 365.16 119.533 364.71 119.633 364.15H121.088C120.988 364.72 120.763 365.23 120.413 365.68C120.073 366.13 119.628 366.48 119.078 366.73C118.528 366.98 117.908 367.105 117.218 367.105C116.428 367.105 115.728 366.935 115.118 366.595C114.508 366.255 114.028 365.77 113.678 365.14C113.338 364.5 113.168 363.75 113.168 362.89C113.168 362.03 113.338 361.28 113.678 360.64C114.028 360 114.508 359.51 115.118 359.17C115.728 358.83 116.428 358.66 117.218 358.66C118.018 358.66 118.713 358.83 119.303 359.17C119.903 359.51 120.358 359.965 120.668 360.535C120.988 361.105 121.148 361.735 121.148 362.425ZM119.768 362.515C119.798 361.905 119.698 361.395 119.468 360.985C119.238 360.575 118.923 360.27 118.523 360.07C118.123 359.87 117.688 359.77 117.218 359.77C116.468 359.77 115.838 360.005 115.328 360.475C114.818 360.935 114.543 361.615 114.503 362.515H119.768Z" fill="#9EA7B8"/>
<path d="M127.244 358.765L129.914 365.245L132.389 358.765H133.904L129.014 370.9H127.469L129.179 366.865L125.714 358.765H127.244Z" fill="#9EA7B8"/>
<path d="M138.908 358.66C139.698 358.66 140.403 358.83 141.023 359.17C141.653 359.51 142.143 360 142.493 360.64C142.853 361.28 143.033 362.03 143.033 362.89C143.033 363.75 142.853 364.5 142.493 365.14C142.143 365.77 141.653 366.255 141.023 366.595C140.403 366.935 139.698 367.105 138.908 367.105C138.118 367.105 137.408 366.935 136.778 366.595C136.158 366.255 135.668 365.77 135.308 365.14C134.948 364.5 134.768 363.75 134.768 362.89C134.768 362.03 134.948 361.28 135.308 360.64C135.668 360 136.158 359.51 136.778 359.17C137.408 358.83 138.118 358.66 138.908 358.66ZM138.908 359.86C138.418 359.86 137.963 359.97 137.543 360.19C137.133 360.41 136.798 360.75 136.538 361.21C136.288 361.66 136.163 362.22 136.163 362.89C136.163 363.55 136.288 364.11 136.538 364.57C136.798 365.02 137.133 365.355 137.543 365.575C137.963 365.795 138.418 365.905 138.908 365.905C139.398 365.905 139.848 365.795 140.258 365.575C140.678 365.355 141.013 365.02 141.263 364.57C141.523 364.11 141.653 363.55 141.653 362.89C141.653 362.22 141.523 361.66 141.263 361.21C141.013 360.75 140.678 360.41 140.258 360.19C139.848 359.97 139.398 359.86 138.908 359.86Z" fill="#9EA7B8"/>
<path d="M152.149 358.765V367H150.784V365.065C150.574 365.735 150.199 366.25 149.659 366.61C149.129 366.96 148.509 367.135 147.799 367.135C146.849 367.135 146.079 366.83 145.489 366.22C144.899 365.6 144.604 364.715 144.604 363.565V358.765H145.969V363.43C145.969 364.25 146.179 364.885 146.599 365.335C147.019 365.775 147.589 365.995 148.309 365.995C149.059 365.995 149.659 365.755 150.109 365.275C150.559 364.785 150.784 364.075 150.784 363.145V358.765H152.149Z" fill="#9EA7B8"/>
<path d="M155.719 360.43C155.989 359.86 156.384 359.42 156.904 359.11C157.424 358.79 158.044 358.63 158.764 358.63V360.115H158.344C157.574 360.115 156.944 360.315 156.454 360.715C155.964 361.105 155.719 361.755 155.719 362.665V367H154.354V358.765H155.719V360.43Z" fill="#9EA7B8"/>
<path d="M167.226 358.66C168.026 358.66 168.701 358.86 169.251 359.26C169.811 359.66 170.201 360.195 170.421 360.865V355.9H171.786V367H170.421V364.9C170.201 365.57 169.811 366.105 169.251 366.505C168.701 366.905 168.026 367.105 167.226 367.105C166.496 367.105 165.846 366.935 165.276 366.595C164.706 366.255 164.256 365.77 163.926 365.14C163.606 364.5 163.446 363.75 163.446 362.89C163.446 362.03 163.606 361.28 163.926 360.64C164.256 360 164.706 359.51 165.276 359.17C165.846 358.83 166.496 358.66 167.226 358.66ZM167.616 359.875C166.776 359.875 166.101 360.145 165.591 360.685C165.091 361.215 164.841 361.95 164.841 362.89C164.841 363.83 165.091 364.57 165.591 365.11C166.101 365.64 166.776 365.905 167.616 365.905C168.156 365.905 168.636 365.78 169.056 365.53C169.486 365.28 169.821 364.93 170.061 364.48C170.301 364.02 170.421 363.49 170.421 362.89C170.421 362.29 170.301 361.76 170.061 361.3C169.821 360.84 169.486 360.49 169.056 360.25C168.636 360 168.156 359.875 167.616 359.875Z" fill="#9EA7B8"/>
<path d="M181.551 362.425C181.551 362.715 181.531 362.965 181.491 363.175H174.906C174.936 364.115 175.201 364.82 175.701 365.29C176.211 365.76 176.831 365.995 177.561 365.995C178.221 365.995 178.771 365.83 179.211 365.5C179.661 365.16 179.936 364.71 180.036 364.15H181.491C181.391 364.72 181.166 365.23 180.816 365.68C180.476 366.13 180.031 366.48 179.481 366.73C178.931 366.98 178.311 367.105 177.621 367.105C176.831 367.105 176.131 366.935 175.521 366.595C174.911 366.255 174.431 365.77 174.081 365.14C173.741 364.5 173.571 363.75 173.571 362.89C173.571 362.03 173.741 361.28 174.081 360.64C174.431 360 174.911 359.51 175.521 359.17C176.131 358.83 176.831 358.66 177.621 358.66C178.421 358.66 179.116 358.83 179.706 359.17C180.306 359.51 180.761 359.965 181.071 360.535C181.391 361.105 181.551 361.735 181.551 362.425ZM180.171 362.515C180.201 361.905 180.101 361.395 179.871 360.985C179.641 360.575 179.326 360.27 178.926 360.07C178.526 359.87 178.091 359.77 177.621 359.77C176.871 359.77 176.241 360.005 175.731 360.475C175.221 360.935 174.946 361.615 174.906 362.515H180.171Z" fill="#9EA7B8"/>
<path d="M185.934 358.66C186.864 358.66 187.609 358.905 188.169 359.395C188.739 359.875 189.084 360.525 189.204 361.345H187.899C187.839 360.855 187.634 360.455 187.284 360.145C186.944 359.825 186.484 359.665 185.904 359.665C185.414 359.665 185.029 359.785 184.749 360.025C184.479 360.255 184.344 360.57 184.344 360.97C184.344 361.27 184.434 361.515 184.614 361.705C184.804 361.885 185.034 362.025 185.304 362.125C185.584 362.215 185.964 362.315 186.444 362.425C187.054 362.565 187.544 362.71 187.914 362.86C188.294 363 188.614 363.23 188.874 363.55C189.144 363.87 189.279 364.3 189.279 364.84C189.279 365.51 189.024 366.055 188.514 366.475C188.014 366.895 187.344 367.105 186.504 367.105C185.524 367.105 184.724 366.87 184.104 366.4C183.484 365.93 183.119 365.275 183.009 364.435H184.329C184.379 364.935 184.594 365.34 184.974 365.65C185.364 365.96 185.874 366.115 186.504 366.115C186.974 366.115 187.339 365.995 187.599 365.755C187.869 365.515 188.004 365.2 188.004 364.81C188.004 364.49 187.909 364.235 187.719 364.045C187.529 363.855 187.294 363.71 187.014 363.61C186.734 363.51 186.349 363.405 185.859 363.295C185.249 363.155 184.759 363.015 184.389 362.875C184.029 362.735 183.719 362.515 183.459 362.215C183.209 361.905 183.084 361.49 183.084 360.97C183.084 360.28 183.339 359.725 183.849 359.305C184.359 358.875 185.054 358.66 185.934 358.66Z" fill="#9EA7B8"/>
<path d="M194.765 358.66C195.815 358.66 196.685 358.94 197.375 359.5C198.065 360.06 198.49 360.81 198.65 361.75H197.21C197.11 361.16 196.835 360.7 196.385 360.37C195.945 360.03 195.395 359.86 194.735 359.86C194.255 359.86 193.815 359.97 193.415 360.19C193.025 360.41 192.71 360.75 192.47 361.21C192.23 361.66 192.11 362.22 192.11 362.89C192.11 363.56 192.23 364.125 192.47 364.585C192.71 365.035 193.025 365.37 193.415 365.59C193.815 365.81 194.255 365.92 194.735 365.92C195.395 365.92 195.945 365.75 196.385 365.41C196.835 365.07 197.11 364.605 197.21 364.015H198.65C198.49 364.965 198.065 365.72 197.375 366.28C196.685 366.83 195.815 367.105 194.765 367.105C193.975 367.105 193.275 366.935 192.665 366.595C192.055 366.255 191.575 365.77 191.225 365.14C190.885 364.5 190.715 363.75 190.715 362.89C190.715 362.03 190.885 361.28 191.225 360.64C191.575 360 192.055 359.51 192.665 359.17C193.275 358.83 193.975 358.66 194.765 358.66Z" fill="#9EA7B8"/>
<path d="M201.819 360.43C202.089 359.86 202.484 359.42 203.004 359.11C203.524 358.79 204.144 358.63 204.864 358.63V360.115H204.444C203.674 360.115 203.044 360.315 202.554 360.715C202.064 361.105 201.819 361.755 201.819 362.665V367H200.454V358.765H201.819V360.43Z" fill="#9EA7B8"/>
<path d="M205.988 356.35C205.988 356.1 206.073 355.9 206.243 355.75C206.413 355.59 206.638 355.51 206.918 355.51C207.198 355.51 207.423 355.59 207.593 355.75C207.763 355.9 207.848 356.1 207.848 356.35C207.848 356.6 207.763 356.805 207.593 356.965C207.423 357.115 207.198 357.19 206.918 357.19C206.638 357.19 206.413 357.115 206.243 356.965C206.073 356.805 205.988 356.6 205.988 356.35ZM207.593 358.765V367H206.228V358.765H207.593Z" fill="#9EA7B8"/>
<path d="M214.35 358.66C215.08 358.66 215.73 358.83 216.3 359.17C216.87 359.51 217.315 360 217.635 360.64C217.965 361.28 218.13 362.03 218.13 362.89C218.13 363.75 217.965 364.5 217.635 365.14C217.315 365.77 216.87 366.255 216.3 366.595C215.73 366.935 215.08 367.105 214.35 367.105C213.55 367.105 212.87 366.905 212.31 366.505C211.76 366.095 211.38 365.56 211.17 364.9V370.9H209.805V358.765H211.17V360.865C211.38 360.205 211.76 359.675 212.31 359.275C212.87 358.865 213.55 358.66 214.35 358.66ZM213.96 359.875C213.43 359.875 212.95 360 212.52 360.25C212.09 360.49 211.755 360.84 211.515 361.3C211.275 361.76 211.155 362.29 211.155 362.89C211.155 363.49 211.275 364.02 211.515 364.48C211.755 364.93 212.09 365.28 212.52 365.53C212.95 365.78 213.43 365.905 213.96 365.905C214.81 365.905 215.485 365.64 215.985 365.11C216.495 364.57 216.75 363.83 216.75 362.89C216.75 361.95 216.495 361.215 215.985 360.685C215.485 360.145 214.81 359.875 213.96 359.875Z" fill="#9EA7B8"/>
<path d="M223.86 365.8V367H222.84C222 367 221.37 366.8 220.95 366.4C220.54 366 220.335 365.33 220.335 364.39V359.95H219.105V358.765H220.335V356.71H221.715V358.765H223.845V359.95H221.715V364.42C221.715 364.95 221.81 365.315 222 365.515C222.2 365.705 222.54 365.8 223.02 365.8H223.86Z" fill="#9EA7B8"/>
<path d="M225.303 356.35C225.303 356.1 225.388 355.9 225.558 355.75C225.728 355.59 225.953 355.51 226.233 355.51C226.513 355.51 226.738 355.59 226.908 355.75C227.078 355.9 227.163 356.1 227.163 356.35C227.163 356.6 227.078 356.805 226.908 356.965C226.738 357.115 226.513 357.19 226.233 357.19C225.953 357.19 225.728 357.115 225.558 356.965C225.388 356.805 225.303 356.6 225.303 356.35ZM226.908 358.765V367H225.543V358.765H226.908Z" fill="#9EA7B8"/>
<path d="M232.855 358.66C233.645 358.66 234.35 358.83 234.97 359.17C235.6 359.51 236.09 360 236.44 360.64C236.8 361.28 236.98 362.03 236.98 362.89C236.98 363.75 236.8 364.5 236.44 365.14C236.09 365.77 235.6 366.255 234.97 366.595C234.35 366.935 233.645 367.105 232.855 367.105C232.065 367.105 231.355 366.935 230.725 366.595C230.105 366.255 229.615 365.77 229.255 365.14C228.895 364.5 228.715 363.75 228.715 362.89C228.715 362.03 228.895 361.28 229.255 360.64C229.615 360 230.105 359.51 230.725 359.17C231.355 358.83 232.065 358.66 232.855 358.66ZM232.855 359.86C232.365 359.86 231.91 359.97 231.49 360.19C231.08 360.41 230.745 360.75 230.485 361.21C230.235 361.66 230.11 362.22 230.11 362.89C230.11 363.55 230.235 364.11 230.485 364.57C230.745 365.02 231.08 365.355 231.49 365.575C231.91 365.795 232.365 365.905 232.855 365.905C233.345 365.905 233.795 365.795 234.205 365.575C234.625 365.355 234.96 365.02 235.21 364.57C235.47 364.11 235.6 363.55 235.6 362.89C235.6 362.22 235.47 361.66 235.21 361.21C234.96 360.75 234.625 360.41 234.205 360.19C233.795 359.97 233.345 359.86 232.855 359.86Z" fill="#9EA7B8"/>
<path d="M243.111 358.63C244.071 358.63 244.846 358.94 245.436 359.56C246.026 360.17 246.321 361.055 246.321 362.215V367H244.956V362.335C244.956 361.515 244.746 360.885 244.326 360.445C243.906 360.005 243.336 359.785 242.616 359.785C241.866 359.785 241.266 360.03 240.816 360.52C240.366 361 240.141 361.705 240.141 362.635V367H238.776V358.765H240.141V360.715C240.351 360.045 240.721 359.53 241.251 359.17C241.791 358.81 242.411 358.63 243.111 358.63Z" fill="#9EA7B8"/>
<path d="M79.93 160H77.815L73.075 152.8V160H70.96V149.41H73.075L77.815 156.67V149.41H79.93V160Z" fill="#2E2E8B"/>
<path d="M85.1162 151.585C85.8162 151.585 86.4162 151.75 86.9162 152.08C87.4162 152.41 87.7712 152.855 87.9812 153.415V151.69H90.0812V160H87.9812V158.26C87.7712 158.82 87.4162 159.27 86.9162 159.61C86.4162 159.94 85.8162 160.105 85.1162 160.105C84.4162 160.105 83.7862 159.935 83.2262 159.595C82.6662 159.255 82.2262 158.765 81.9062 158.125C81.5962 157.475 81.4412 156.715 81.4412 155.845C81.4412 154.975 81.5962 154.22 81.9062 153.58C82.2262 152.93 82.6662 152.435 83.2262 152.095C83.7862 151.755 84.4162 151.585 85.1162 151.585ZM85.7762 153.43C85.1162 153.43 84.5862 153.645 84.1862 154.075C83.7862 154.505 83.5862 155.095 83.5862 155.845C83.5862 156.595 83.7862 157.185 84.1862 157.615C84.5862 158.035 85.1162 158.245 85.7762 158.245C86.4162 158.245 86.9412 158.03 87.3512 157.6C87.7712 157.16 87.9812 156.575 87.9812 155.845C87.9812 155.105 87.7712 154.52 87.3512 154.09C86.9412 153.65 86.4162 153.43 85.7762 153.43Z" fill="#2E2E8B"/>
<path d="M102.59 151.57C103.6 151.57 104.395 151.885 104.975 152.515C105.565 153.135 105.86 154.02 105.86 155.17V160H103.76V155.41C103.76 154.77 103.595 154.28 103.265 153.94C102.945 153.59 102.5 153.415 101.93 153.415C101.34 153.415 100.87 153.6 100.52 153.97C100.17 154.34 99.9953 154.88 99.9953 155.59V160H97.8953V155.41C97.8953 154.77 97.7303 154.28 97.4003 153.94C97.0803 153.59 96.6353 153.415 96.0653 153.415C95.4753 153.415 95.0053 153.6 94.6553 153.97C94.3053 154.34 94.1303 154.88 94.1303 155.59V160H92.0153V151.69H94.1303V153.265C94.3503 152.725 94.6953 152.31 95.1653 152.02C95.6453 151.72 96.2003 151.57 96.8303 151.57C97.5003 151.57 98.0803 151.73 98.5703 152.05C99.0703 152.37 99.4453 152.83 99.6953 153.43C99.9553 152.86 100.34 152.41 100.85 152.08C101.37 151.74 101.95 151.57 102.59 151.57Z" fill="#2E2E8B"/>
<path d="M115.551 155.53C115.551 155.74 115.526 155.98 115.476 156.25H109.386C109.416 156.99 109.616 157.535 109.986 157.885C110.356 158.235 110.816 158.41 111.366 158.41C111.856 158.41 112.261 158.29 112.581 158.05C112.911 157.81 113.121 157.485 113.211 157.075H115.446C115.336 157.655 115.101 158.175 114.741 158.635C114.381 159.095 113.916 159.455 113.346 159.715C112.786 159.975 112.161 160.105 111.471 160.105C110.661 160.105 109.941 159.935 109.311 159.595C108.681 159.245 108.191 158.75 107.841 158.11C107.491 157.47 107.316 156.715 107.316 155.845C107.316 154.975 107.491 154.22 107.841 153.58C108.191 152.93 108.681 152.435 109.311 152.095C109.941 151.755 110.661 151.585 111.471 151.585C112.291 151.585 113.006 151.755 113.616 152.095C114.236 152.435 114.711 152.905 115.041 153.505C115.381 154.095 115.551 154.77 115.551 155.53ZM113.421 155.32C113.451 154.64 113.271 154.125 112.881 153.775C112.501 153.425 112.031 153.25 111.471 153.25C110.901 153.25 110.421 153.425 110.031 153.775C109.641 154.125 109.426 154.64 109.386 155.32H113.421Z" fill="#2E2E8B"/>
<path d="M442.945 149.305C444.265 149.305 445.36 149.645 446.23 150.325C447.1 151.005 447.675 151.93 447.955 153.1H445.735C445.505 152.53 445.145 152.08 444.655 151.75C444.175 151.42 443.595 151.255 442.915 151.255C442.355 151.255 441.85 151.395 441.4 151.675C440.95 151.955 440.6 152.355 440.35 152.875C440.1 153.395 439.975 154.005 439.975 154.705C439.975 155.395 440.1 156 440.35 156.52C440.6 157.04 440.95 157.44 441.4 157.72C441.85 158 442.355 158.14 442.915 158.14C443.595 158.14 444.175 157.975 444.655 157.645C445.145 157.315 445.505 156.865 445.735 156.295H447.955C447.675 157.465 447.1 158.39 446.23 159.07C445.36 159.75 444.265 160.09 442.945 160.09C441.935 160.09 441.04 159.865 440.26 159.415C439.49 158.955 438.89 158.315 438.46 157.495C438.04 156.675 437.83 155.745 437.83 154.705C437.83 153.655 438.04 152.72 438.46 151.9C438.89 151.08 439.49 150.445 440.26 149.995C441.03 149.535 441.925 149.305 442.945 149.305Z" fill="#2E2E8B"/>
<path d="M452.814 151.585C453.514 151.585 454.114 151.75 454.614 152.08C455.114 152.41 455.469 152.855 455.679 153.415V151.69H457.779V160H455.679V158.26C455.469 158.82 455.114 159.27 454.614 159.61C454.114 159.94 453.514 160.105 452.814 160.105C452.114 160.105 451.484 159.935 450.924 159.595C450.364 159.255 449.924 158.765 449.604 158.125C449.294 157.475 449.139 156.715 449.139 155.845C449.139 154.975 449.294 154.22 449.604 153.58C449.924 152.93 450.364 152.435 450.924 152.095C451.484 151.755 452.114 151.585 452.814 151.585ZM453.474 153.43C452.814 153.43 452.284 153.645 451.884 154.075C451.484 154.505 451.284 155.095 451.284 155.845C451.284 156.595 451.484 157.185 451.884 157.615C452.284 158.035 452.814 158.245 453.474 158.245C454.114 158.245 454.639 158.03 455.049 157.6C455.469 157.16 455.679 156.575 455.679 155.845C455.679 155.105 455.469 154.52 455.049 154.09C454.639 153.65 454.114 153.43 453.474 153.43Z" fill="#2E2E8B"/>
<path d="M464.153 158.185V160H463.043C462.113 160 461.398 159.775 460.898 159.325C460.408 158.875 460.163 158.125 460.163 157.075V153.475H459.008V151.69H460.163V149.635H462.278V151.69H464.138V153.475H462.278V157.105C462.278 157.505 462.358 157.785 462.518 157.945C462.678 158.105 462.948 158.185 463.328 158.185H464.153Z" fill="#2E2E8B"/>
<path d="M473.508 155.53C473.508 155.74 473.483 155.98 473.433 156.25H467.343C467.373 156.99 467.573 157.535 467.943 157.885C468.313 158.235 468.773 158.41 469.323 158.41C469.813 158.41 470.218 158.29 470.538 158.05C470.868 157.81 471.078 157.485 471.168 157.075H473.403C473.293 157.655 473.058 158.175 472.698 158.635C472.338 159.095 471.873 159.455 471.303 159.715C470.743 159.975 470.118 160.105 469.428 160.105C468.618 160.105 467.898 159.935 467.268 159.595C466.638 159.245 466.148 158.75 465.798 158.11C465.448 157.47 465.273 156.715 465.273 155.845C465.273 154.975 465.448 154.22 465.798 153.58C466.148 152.93 466.638 152.435 467.268 152.095C467.898 151.755 468.618 151.585 469.428 151.585C470.248 151.585 470.963 151.755 471.573 152.095C472.193 152.435 472.668 152.905 472.998 153.505C473.338 154.095 473.508 154.77 473.508 155.53ZM471.378 155.32C471.408 154.64 471.228 154.125 470.838 153.775C470.458 153.425 469.988 153.25 469.428 153.25C468.858 153.25 468.378 153.425 467.988 153.775C467.598 154.125 467.383 154.64 467.343 155.32H471.378Z" fill="#2E2E8B"/>
<path d="M478.282 151.585C478.982 151.585 479.582 151.75 480.082 152.08C480.582 152.41 480.937 152.855 481.147 153.415V151.69H483.247V160.03C483.247 160.8 483.092 161.49 482.782 162.1C482.482 162.72 482.027 163.205 481.417 163.555C480.817 163.905 480.087 164.08 479.227 164.08C478.027 164.08 477.057 163.795 476.317 163.225C475.577 162.655 475.127 161.88 474.967 160.9H477.052C477.172 161.32 477.402 161.645 477.742 161.875C478.092 162.115 478.537 162.235 479.077 162.235C479.697 162.235 480.197 162.05 480.577 161.68C480.957 161.32 481.147 160.77 481.147 160.03V158.26C480.937 158.82 480.582 159.27 480.082 159.61C479.582 159.94 478.982 160.105 478.282 160.105C477.582 160.105 476.952 159.935 476.392 159.595C475.832 159.255 475.392 158.765 475.072 158.125C474.762 157.475 474.607 156.715 474.607 155.845C474.607 154.975 474.762 154.22 475.072 153.58C475.392 152.93 475.832 152.435 476.392 152.095C476.952 151.755 477.582 151.585 478.282 151.585ZM478.942 153.43C478.282 153.43 477.752 153.645 477.352 154.075C476.952 154.505 476.752 155.095 476.752 155.845C476.752 156.595 476.952 157.185 477.352 157.615C477.752 158.035 478.282 158.245 478.942 158.245C479.582 158.245 480.107 158.03 480.517 157.6C480.937 157.16 481.147 156.575 481.147 155.845C481.147 155.105 480.937 154.52 480.517 154.09C480.107 153.65 479.582 153.43 478.942 153.43Z" fill="#2E2E8B"/>
<path d="M489.021 151.585C489.831 151.585 490.556 151.755 491.196 152.095C491.846 152.435 492.356 152.93 492.726 153.58C493.096 154.22 493.281 154.975 493.281 155.845C493.281 156.715 493.096 157.47 492.726 158.11C492.356 158.75 491.846 159.245 491.196 159.595C490.556 159.935 489.831 160.105 489.021 160.105C488.211 160.105 487.481 159.935 486.831 159.595C486.191 159.245 485.686 158.75 485.316 158.11C484.946 157.47 484.761 156.715 484.761 155.845C484.761 154.975 484.946 154.22 485.316 153.58C485.686 152.93 486.191 152.435 486.831 152.095C487.481 151.755 488.211 151.585 489.021 151.585ZM489.021 153.415C488.431 153.415 487.931 153.625 487.521 154.045C487.111 154.455 486.906 155.055 486.906 155.845C486.906 156.635 487.111 157.24 487.521 157.66C487.931 158.07 488.431 158.275 489.021 158.275C489.611 158.275 490.111 158.07 490.521 157.66C490.931 157.24 491.136 156.635 491.136 155.845C491.136 155.055 490.931 154.455 490.521 154.045C490.111 153.625 489.611 153.415 489.021 153.415Z" fill="#2E2E8B"/>
<path d="M496.908 153.28C497.218 152.75 497.628 152.335 498.138 152.035C498.648 151.725 499.218 151.57 499.848 151.57V153.835H499.233C497.683 153.835 496.908 154.555 496.908 155.995V160H494.793V151.69H496.908V153.28Z" fill="#2E2E8B"/>
<path d="M500.796 149.305C500.796 148.965 500.916 148.69 501.156 148.48C501.396 148.26 501.711 148.15 502.101 148.15C502.491 148.15 502.806 148.26 503.046 148.48C503.286 148.69 503.406 148.965 503.406 149.305C503.406 149.635 503.286 149.91 503.046 150.13C502.806 150.34 502.491 150.445 502.101 150.445C501.711 150.445 501.396 150.34 501.156 150.13C500.916 149.91 500.796 149.635 500.796 149.305ZM503.151 151.69V160H501.036V151.69H503.151Z" fill="#2E2E8B"/>
<path d="M512.897 155.53C512.897 155.74 512.872 155.98 512.822 156.25H506.732C506.762 156.99 506.962 157.535 507.332 157.885C507.702 158.235 508.162 158.41 508.712 158.41C509.202 158.41 509.607 158.29 509.927 158.05C510.257 157.81 510.467 157.485 510.557 157.075H512.792C512.682 157.655 512.447 158.175 512.087 158.635C511.727 159.095 511.262 159.455 510.692 159.715C510.132 159.975 509.507 160.105 508.817 160.105C508.007 160.105 507.287 159.935 506.657 159.595C506.027 159.245 505.537 158.75 505.187 158.11C504.837 157.47 504.662 156.715 504.662 155.845C504.662 154.975 504.837 154.22 505.187 153.58C505.537 152.93 506.027 152.435 506.657 152.095C507.287 151.755 508.007 151.585 508.817 151.585C509.637 151.585 510.352 151.755 510.962 152.095C511.582 152.435 512.057 152.905 512.387 153.505C512.727 154.095 512.897 154.77 512.897 155.53ZM510.767 155.32C510.797 154.64 510.617 154.125 510.227 153.775C509.847 153.425 509.377 153.25 508.817 153.25C508.247 153.25 507.767 153.425 507.377 153.775C506.987 154.125 506.772 154.64 506.732 155.32H510.767Z" fill="#2E2E8B"/>
<path d="M517.28 151.585C518.29 151.585 519.1 151.84 519.71 152.35C520.32 152.86 520.7 153.54 520.85 154.39H518.87C518.79 153.99 518.61 153.67 518.33 153.43C518.05 153.19 517.685 153.07 517.235 153.07C516.875 153.07 516.595 153.155 516.395 153.325C516.195 153.495 516.095 153.725 516.095 154.015C516.095 154.245 516.175 154.43 516.335 154.57C516.495 154.71 516.695 154.82 516.935 154.9C517.175 154.98 517.52 155.075 517.97 155.185C518.6 155.325 519.11 155.475 519.5 155.635C519.9 155.785 520.24 156.03 520.52 156.37C520.81 156.7 520.955 157.15 520.955 157.72C520.955 158.43 520.675 159.005 520.115 159.445C519.565 159.885 518.82 160.105 517.88 160.105C516.8 160.105 515.935 159.865 515.285 159.385C514.635 158.895 514.24 158.2 514.1 157.3H516.125C516.175 157.71 516.355 158.035 516.665 158.275C516.975 158.505 517.38 158.62 517.88 158.62C518.24 158.62 518.515 158.535 518.705 158.365C518.895 158.185 518.99 157.955 518.99 157.675C518.99 157.435 518.905 157.24 518.735 157.09C518.575 156.94 518.37 156.825 518.12 156.745C517.88 156.665 517.535 156.57 517.085 156.46C516.465 156.32 515.96 156.18 515.57 156.04C515.19 155.89 514.86 155.655 514.58 155.335C514.31 155.015 514.175 154.575 514.175 154.015C514.175 153.295 514.45 152.71 515 152.26C515.55 151.81 516.31 151.585 517.28 151.585Z" fill="#2E2E8B"/>
<path d="M80.275 265.69C80.275 266.74 80.055 267.665 79.615 268.465C79.175 269.265 78.535 269.89 77.695 270.34C76.865 270.78 75.875 271 74.725 271H70.96V260.41H74.725C75.875 260.41 76.865 260.63 77.695 261.07C78.535 261.5 79.175 262.115 79.615 262.915C80.055 263.705 80.275 264.63 80.275 265.69ZM74.545 269.11C75.685 269.11 76.565 268.81 77.185 268.21C77.815 267.61 78.13 266.77 78.13 265.69C78.13 264.6 77.815 263.755 77.185 263.155C76.565 262.555 75.685 262.255 74.545 262.255H73.075V269.11H74.545Z" fill="#2E2E8B"/>
<path d="M89.6908 266.53C89.6908 266.74 89.6658 266.98 89.6158 267.25H83.5258C83.5558 267.99 83.7558 268.535 84.1258 268.885C84.4958 269.235 84.9558 269.41 85.5058 269.41C85.9958 269.41 86.4008 269.29 86.7208 269.05C87.0508 268.81 87.2608 268.485 87.3508 268.075H89.5858C89.4758 268.655 89.2408 269.175 88.8808 269.635C88.5208 270.095 88.0558 270.455 87.4858 270.715C86.9258 270.975 86.3008 271.105 85.6108 271.105C84.8008 271.105 84.0808 270.935 83.4508 270.595C82.8208 270.245 82.3308 269.75 81.9808 269.11C81.6308 268.47 81.4558 267.715 81.4558 266.845C81.4558 265.975 81.6308 265.22 81.9808 264.58C82.3308 263.93 82.8208 263.435 83.4508 263.095C84.0808 262.755 84.8008 262.585 85.6108 262.585C86.4308 262.585 87.1458 262.755 87.7558 263.095C88.3758 263.435 88.8508 263.905 89.1808 264.505C89.5208 265.095 89.6908 265.77 89.6908 266.53ZM87.5608 266.32C87.5908 265.64 87.4108 265.125 87.0208 264.775C86.6408 264.425 86.1708 264.25 85.6108 264.25C85.0408 264.25 84.5608 264.425 84.1708 264.775C83.7808 265.125 83.5658 265.64 83.5258 266.32H87.5608Z" fill="#2E2E8B"/>
<path d="M94.0746 262.585C95.0846 262.585 95.8946 262.84 96.5046 263.35C97.1146 263.86 97.4946 264.54 97.6446 265.39H95.6646C95.5846 264.99 95.4046 264.67 95.1246 264.43C94.8446 264.19 94.4796 264.07 94.0296 264.07C93.6696 264.07 93.3896 264.155 93.1896 264.325C92.9896 264.495 92.8896 264.725 92.8896 265.015C92.8896 265.245 92.9696 265.43 93.1296 265.57C93.2896 265.71 93.4896 265.82 93.7296 265.9C93.9696 265.98 94.3146 266.075 94.7646 266.185C95.3946 266.325 95.9046 266.475 96.2946 266.635C96.6946 266.785 97.0346 267.03 97.3146 267.37C97.6046 267.7 97.7496 268.15 97.7496 268.72C97.7496 269.43 97.4696 270.005 96.9096 270.445C96.3596 270.885 95.6146 271.105 94.6746 271.105C93.5946 271.105 92.7296 270.865 92.0796 270.385C91.4296 269.895 91.0346 269.2 90.8946 268.3H92.9196C92.9696 268.71 93.1496 269.035 93.4596 269.275C93.7696 269.505 94.1746 269.62 94.6746 269.62C95.0346 269.62 95.3096 269.535 95.4996 269.365C95.6896 269.185 95.7846 268.955 95.7846 268.675C95.7846 268.435 95.6996 268.24 95.5296 268.09C95.3696 267.94 95.1646 267.825 94.9146 267.745C94.6746 267.665 94.3296 267.57 93.8796 267.46C93.2596 267.32 92.7546 267.18 92.3646 267.04C91.9846 266.89 91.6546 266.655 91.3746 266.335C91.1046 266.015 90.9696 265.575 90.9696 265.015C90.9696 264.295 91.2446 263.71 91.7946 263.26C92.3446 262.81 93.1046 262.585 94.0746 262.585Z" fill="#2E2E8B"/>
<path d="M103.077 262.585C104.147 262.585 105.037 262.875 105.747 263.455C106.467 264.035 106.917 264.825 107.097 265.825H104.862C104.772 265.385 104.567 265.04 104.247 264.79C103.927 264.53 103.522 264.4 103.032 264.4C102.472 264.4 102.002 264.61 101.622 265.03C101.252 265.44 101.067 266.045 101.067 266.845C101.067 267.645 101.252 268.255 101.622 268.675C102.002 269.085 102.472 269.29 103.032 269.29C103.522 269.29 103.927 269.165 104.247 268.915C104.567 268.655 104.772 268.305 104.862 267.865H107.097C106.917 268.865 106.467 269.655 105.747 270.235C105.037 270.815 104.147 271.105 103.077 271.105C102.267 271.105 101.547 270.935 100.917 270.595C100.287 270.245 99.7973 269.75 99.4473 269.11C99.0973 268.47 98.9223 267.715 98.9223 266.845C98.9223 265.975 99.0973 265.22 99.4473 264.58C99.7973 263.93 100.287 263.435 100.917 263.095C101.547 262.755 102.267 262.585 103.077 262.585Z" fill="#2E2E8B"/>
<path d="M110.732 264.28C111.042 263.75 111.452 263.335 111.962 263.035C112.472 262.725 113.042 262.57 113.672 262.57V264.835H113.057C111.507 264.835 110.732 265.555 110.732 266.995V271H108.617V262.69H110.732V264.28Z" fill="#2E2E8B"/>
<path d="M114.62 260.305C114.62 259.965 114.74 259.69 114.98 259.48C115.22 259.26 115.535 259.15 115.925 259.15C116.315 259.15 116.63 259.26 116.87 259.48C117.11 259.69 117.23 259.965 117.23 260.305C117.23 260.635 117.11 260.91 116.87 261.13C116.63 261.34 116.315 261.445 115.925 261.445C115.535 261.445 115.22 261.34 114.98 261.13C114.74 260.91 114.62 260.635 114.62 260.305ZM116.975 262.69V271H114.86V262.69H116.975Z" fill="#2E2E8B"/>
<path d="M123.871 262.585C124.571 262.585 125.201 262.755 125.761 263.095C126.321 263.435 126.756 263.93 127.066 264.58C127.386 265.22 127.546 265.975 127.546 266.845C127.546 267.715 127.386 268.475 127.066 269.125C126.756 269.765 126.321 270.255 125.761 270.595C125.201 270.935 124.571 271.105 123.871 271.105C123.171 271.105 122.571 270.94 122.071 270.61C121.581 270.27 121.231 269.82 121.021 269.26V274.96H118.906V262.69H121.021V264.415C121.231 263.855 121.581 263.41 122.071 263.08C122.571 262.75 123.171 262.585 123.871 262.585ZM123.211 264.43C122.571 264.43 122.041 264.65 121.621 265.09C121.211 265.52 121.006 266.105 121.006 266.845C121.006 267.575 121.211 268.16 121.621 268.6C122.041 269.03 122.571 269.245 123.211 269.245C123.871 269.245 124.401 269.035 124.801 268.615C125.201 268.185 125.401 267.595 125.401 266.845C125.401 266.095 125.201 265.505 124.801 265.075C124.401 264.645 123.871 264.43 123.211 264.43Z" fill="#2E2E8B"/>
<path d="M133.5 269.185V271H132.39C131.46 271 130.745 270.775 130.245 270.325C129.755 269.875 129.51 269.125 129.51 268.075V264.475H128.355V262.69H129.51V260.635H131.625V262.69H133.485V264.475H131.625V268.105C131.625 268.505 131.705 268.785 131.865 268.945C132.025 269.105 132.295 269.185 132.675 269.185H133.5Z" fill="#2E2E8B"/>
<path d="M134.8 260.305C134.8 259.965 134.92 259.69 135.16 259.48C135.4 259.26 135.715 259.15 136.105 259.15C136.495 259.15 136.81 259.26 137.05 259.48C137.29 259.69 137.41 259.965 137.41 260.305C137.41 260.635 137.29 260.91 137.05 261.13C136.81 261.34 136.495 261.445 136.105 261.445C135.715 261.445 135.4 261.34 135.16 261.13C134.92 260.91 134.8 260.635 134.8 260.305ZM137.155 262.69V271H135.04V262.69H137.155Z" fill="#2E2E8B"/>
<path d="M142.925 262.585C143.735 262.585 144.46 262.755 145.1 263.095C145.75 263.435 146.26 263.93 146.63 264.58C147 265.22 147.185 265.975 147.185 266.845C147.185 267.715 147 268.47 146.63 269.11C146.26 269.75 145.75 270.245 145.1 270.595C144.46 270.935 143.735 271.105 142.925 271.105C142.115 271.105 141.385 270.935 140.735 270.595C140.095 270.245 139.59 269.75 139.22 269.11C138.85 268.47 138.665 267.715 138.665 266.845C138.665 265.975 138.85 265.22 139.22 264.58C139.59 263.93 140.095 263.435 140.735 263.095C141.385 262.755 142.115 262.585 142.925 262.585ZM142.925 264.415C142.335 264.415 141.835 264.625 141.425 265.045C141.015 265.455 140.81 266.055 140.81 266.845C140.81 267.635 141.015 268.24 141.425 268.66C141.835 269.07 142.335 269.275 142.925 269.275C143.515 269.275 144.015 269.07 144.425 268.66C144.835 268.24 145.04 267.635 145.04 266.845C145.04 266.055 144.835 265.455 144.425 265.045C144.015 264.625 143.515 264.415 142.925 264.415Z" fill="#2E2E8B"/>
<path d="M153.648 262.57C154.608 262.57 155.373 262.885 155.943 263.515C156.513 264.145 156.798 265.03 156.798 266.17V271H154.698V266.41C154.698 265.75 154.528 265.24 154.188 264.88C153.848 264.51 153.383 264.325 152.793 264.325C152.193 264.325 151.713 264.52 151.353 264.91C150.993 265.3 150.813 265.86 150.813 266.59V271H148.698V262.69H150.813V264.355C151.033 263.795 151.393 263.36 151.893 263.05C152.403 262.73 152.988 262.57 153.648 262.57Z" fill="#2E2E8B"/>
<defs>
<filter id="filter0_d" x="0" y="0" width="717" height="552" filterUnits="userSpaceOnUse" color-interpolation-filters="sRGB">
<feFlood flood-opacity="0" result="BackgroundImageFix"/>
<feColorMatrix in="SourceAlpha" type="matrix" values="0 0 0 0 0 0 0 0 0 0 0 0 0 0 0 0 0 0 127 0"/>
<feOffset dy="11"/>
<feGaussianBlur stdDeviation="14"/>
<feColorMatrix type="matrix" values="0 0 0 0 0.458824 0 0 0 0 0.552941 0 0 0 0 0.65098 0 0 0 0.214161 0"/>
<feBlend mode="normal" in2="BackgroundImageFix" result="effect1_dropShadow"/>
<feBlend mode="normal" in="SourceGraphic" in2="effect1_dropShadow" result="shape"/>
</filter>
</defs>
</svg>
