<svg width="717" height="552" viewBox="0 0 717 552" fill="none" xmlns="http://www.w3.org/2000/svg">
<g filter="url(#filter0_d)">
<path d="M28 43.8154C28 29.0057 40.0057 17 54.8154 17H662.185C676.994 17 689 29.0057 689 43.8154V486.185C689 500.994 676.994 513 662.185 513H54.8154C40.0057 513 28 500.994 28 486.185V43.8154Z" fill="white"/>
</g>
<mask id="mask0" mask-type="alpha" maskUnits="userSpaceOnUse" x="28" y="17" width="661" height="496">
<path d="M28 43.8154C28 29.0057 40.0057 17 54.8154 17H662.185C676.994 17 689 29.0057 689 43.8154V486.185C689 500.994 676.994 513 662.185 513H54.8154C40.0057 513 28 500.994 28 486.185V43.8154Z" fill="white"/>
</mask>
<g mask="url(#mask0)">
<path d="M399 199C399 191.268 405.268 185 413 185H635C642.732 185 649 191.268 649 199V457C649 464.732 642.732 471 635 471H413C405.268 471 399 464.732 399 457V199Z" fill="#F3F9FD"/>
<path fill-rule="evenodd" clip-rule="evenodd" d="M421.976 211C423.62 211 424.952 209.657 424.952 208C424.952 206.343 423.62 205 421.976 205C420.332 205 419 206.343 419 208C419 209.657 420.332 211 421.976 211Z" fill="#A3BFDB"/>
<path fill-rule="evenodd" clip-rule="evenodd" d="M431.5 211C433.144 211 434.476 209.657 434.476 208C434.476 206.343 433.144 205 431.5 205C429.856 205 428.524 206.343 428.524 208C428.524 209.657 429.856 211 431.5 211Z" fill="#A3BFDB"/>
<path fill-rule="evenodd" clip-rule="evenodd" d="M441.024 211C442.668 211 444 209.657 444 208C444 206.343 442.668 205 441.024 205C439.38 205 438.048 206.343 438.048 208C438.048 209.657 439.38 211 441.024 211Z" fill="#A3BFDB"/>
<path d="M28 23C28 19.6863 30.6863 17 34 17H352C355.314 17 358 19.6863 358 23V507C358 510.314 355.314 513 352 513H34C30.6863 513 28 510.314 28 507V23Z" fill="#F3F9FD"/>
<path fill-rule="evenodd" clip-rule="evenodd" d="M64 54C66.7614 54 69 51.7614 69 49C69 46.2386 66.7614 44 64 44C61.2386 44 59 46.2386 59 49C59 51.7614 61.2386 54 64 54Z" fill="#80EBFF"/>
<path fill-rule="evenodd" clip-rule="evenodd" d="M80 54C82.7614 54 85 51.7614 85 49C85 46.2386 82.7614 44 80 44C77.2386 44 75 46.2386 75 49C75 51.7614 77.2386 54 80 54Z" fill="#FD7A8C"/>
<path fill-rule="evenodd" clip-rule="evenodd" d="M96 54C98.7614 54 101 51.7614 101 49C101 46.2386 98.7614 44 96 44C93.2386 44 91 46.2386 91 49C91 51.7614 93.2386 54 96 54Z" fill="#FEE895"/>
</g>
<path d="M68 127.067C68 120.403 73.4026 115 80.0669 115H305.933C312.597 115 318 120.403 318 127.067V169.933C318 176.597 312.597 182 305.933 182H80.0669C73.4026 182 68 176.597 68 169.933V127.067Z" fill="white"/>
<path d="M143.745 151.89V156H142.035V145.41H145.635C146.855 145.41 147.77 145.7 148.38 146.28C149 146.86 149.31 147.655 149.31 148.665C149.31 149.665 148.995 150.455 148.365 151.035C147.735 151.605 146.825 151.89 145.635 151.89H143.745ZM145.455 150.495C146.865 150.495 147.57 149.885 147.57 148.665C147.57 148.065 147.4 147.61 147.06 147.3C146.73 146.98 146.195 146.82 145.455 146.82H143.745V150.495H145.455Z" fill="#2E2E8B"/>
<path d="M158.647 147.735V156H156.922V154.2C156.712 154.81 156.347 155.285 155.827 155.625C155.307 155.955 154.702 156.12 154.012 156.12C153.052 156.12 152.282 155.81 151.702 155.19C151.122 154.57 150.832 153.685 150.832 152.535V147.735H152.542V152.355C152.542 153.105 152.732 153.685 153.112 154.095C153.492 154.495 154.012 154.695 154.672 154.695C155.352 154.695 155.897 154.475 156.307 154.035C156.717 153.595 156.922 152.955 156.922 152.115V147.735H158.647Z" fill="#2E2E8B"/>
<path d="M165.652 147.63C166.372 147.63 167.012 147.8 167.572 148.14C168.142 148.48 168.587 148.97 168.907 149.61C169.227 150.25 169.387 151 169.387 151.86C169.387 152.73 169.227 153.485 168.907 154.125C168.587 154.765 168.142 155.255 167.572 155.595C167.012 155.935 166.372 156.105 165.652 156.105C164.902 156.105 164.262 155.92 163.732 155.55C163.202 155.18 162.832 154.69 162.622 154.08V156H160.912V144.9H162.622V149.655C162.832 149.045 163.202 148.555 163.732 148.185C164.262 147.815 164.902 147.63 165.652 147.63ZM165.127 149.13C164.647 149.13 164.217 149.245 163.837 149.475C163.457 149.695 163.157 150.015 162.937 150.435C162.717 150.845 162.607 151.32 162.607 151.86C162.607 152.41 162.717 152.89 162.937 153.3C163.157 153.71 163.457 154.03 163.837 154.26C164.217 154.48 164.647 154.59 165.127 154.59C165.887 154.59 166.497 154.35 166.957 153.87C167.417 153.38 167.647 152.71 167.647 151.86C167.647 151.02 167.417 150.355 166.957 149.865C166.497 149.375 165.887 149.13 165.127 149.13Z" fill="#2E2E8B"/>
<path d="M172.962 144.9V156H171.252V144.9H172.962Z" fill="#2E2E8B"/>
<path d="M175.009 145.335C175.009 145.045 175.109 144.805 175.309 144.615C175.509 144.425 175.774 144.33 176.104 144.33C176.434 144.33 176.699 144.425 176.899 144.615C177.109 144.805 177.214 145.045 177.214 145.335C177.214 145.625 177.109 145.86 176.899 146.04C176.699 146.22 176.434 146.31 176.104 146.31C175.774 146.31 175.509 146.22 175.309 146.04C175.109 145.86 175.009 145.625 175.009 145.335ZM176.959 147.735V156H175.249V147.735H176.959Z" fill="#2E2E8B"/>
<path d="M182.92 147.63C183.99 147.63 184.875 147.915 185.575 148.485C186.275 149.045 186.71 149.81 186.88 150.78H185.065C184.965 150.26 184.72 149.855 184.33 149.565C183.95 149.265 183.47 149.115 182.89 149.115C182.23 149.115 181.68 149.35 181.24 149.82C180.8 150.28 180.58 150.96 180.58 151.86C180.58 152.76 180.8 153.445 181.24 153.915C181.68 154.385 182.23 154.62 182.89 154.62C183.47 154.62 183.95 154.47 184.33 154.17C184.72 153.87 184.965 153.46 185.065 152.94H186.88C186.71 153.91 186.275 154.68 185.575 155.25C184.875 155.82 183.99 156.105 182.92 156.105C182.12 156.105 181.41 155.935 180.79 155.595C180.18 155.255 179.7 154.765 179.35 154.125C179 153.485 178.825 152.73 178.825 151.86C178.825 151 179 150.25 179.35 149.61C179.7 148.97 180.18 148.48 180.79 148.14C181.41 147.8 182.12 147.63 182.92 147.63Z" fill="#2E2E8B"/>
<path d="M94.0058 160.52C93.1045 160.52 92.3738 159.789 92.3738 158.888V141.251C92.3738 140.78 92.3364 140.398 92.3364 140.398V137.856C92.3364 137.386 92.708 137.004 93.1662 137.004H105.148C105.523 137.004 105.863 137.222 106.02 137.562L107.186 140.094C107.28 140.298 107.484 140.429 107.709 140.429H120.336C120.866 140.429 121.296 140.859 121.296 141.389V146.45L100.234 158.977C99.8411 158.976 99.5144 159.288 99.4868 159.691V159.753L96.8334 160.52H94.0058Z" fill="#A691F7"/>
<path fill-rule="evenodd" clip-rule="evenodd" d="M96.0737 144.799C96.2383 144.164 96.8115 143.72 97.4677 143.72H121.139C122.081 143.72 122.77 144.61 122.533 145.521L118.926 159.441C118.762 160.077 118.188 160.52 117.532 160.52H93.8607C92.9188 160.52 92.2304 159.631 92.4667 158.719L96.0737 144.799Z" fill="#4E25EF"/>
<path d="M68 212.067C68 205.403 73.4026 200 80.0669 200H305.933C312.597 200 318 205.403 318 212.067V254.933C318 261.597 312.597 267 305.933 267H80.0669C73.4026 267 68 261.597 68 254.933V212.067Z" fill="white"/>
<path d="M146.76 230.305C148.06 230.305 149.14 230.635 150 231.295C150.86 231.955 151.44 232.85 151.74 233.98H149.925C149.675 233.34 149.275 232.835 148.725 232.465C148.185 232.085 147.52 231.895 146.73 231.895C146.1 231.895 145.535 232.05 145.035 232.36C144.545 232.67 144.155 233.115 143.865 233.695C143.585 234.265 143.445 234.935 143.445 235.705C143.445 236.465 143.585 237.135 143.865 237.715C144.155 238.285 144.545 238.725 145.035 239.035C145.535 239.345 146.1 239.5 146.73 239.5C147.52 239.5 148.185 239.315 148.725 238.945C149.275 238.565 149.675 238.06 149.925 237.43H151.74C151.44 238.56 150.86 239.455 150 240.115C149.14 240.765 148.06 241.09 146.76 241.09C145.76 241.09 144.875 240.865 144.105 240.415C143.335 239.955 142.74 239.32 142.32 238.51C141.9 237.69 141.69 236.755 141.69 235.705C141.69 234.655 141.9 233.725 142.32 232.915C142.74 232.095 143.335 231.455 144.105 230.995C144.875 230.535 145.76 230.305 146.76 230.305Z" fill="#2E2E8B"/>
<path d="M157.343 232.63C158.143 232.63 158.863 232.8 159.503 233.14C160.143 233.48 160.643 233.97 161.003 234.61C161.363 235.25 161.543 236 161.543 236.86C161.543 237.73 161.363 238.485 161.003 239.125C160.643 239.765 160.143 240.255 159.503 240.595C158.863 240.935 158.143 241.105 157.343 241.105C156.543 241.105 155.823 240.935 155.183 240.595C154.553 240.255 154.053 239.765 153.683 239.125C153.323 238.475 153.143 237.72 153.143 236.86C153.143 236 153.323 235.25 153.683 234.61C154.053 233.97 154.553 233.48 155.183 233.14C155.823 232.8 156.543 232.63 157.343 232.63ZM157.343 234.115C156.903 234.115 156.498 234.215 156.128 234.415C155.758 234.615 155.458 234.925 155.228 235.345C155.008 235.755 154.898 236.26 154.898 236.86C154.898 237.47 155.008 237.98 155.228 238.39C155.458 238.8 155.758 239.105 156.128 239.305C156.498 239.505 156.903 239.605 157.343 239.605C157.783 239.605 158.188 239.505 158.558 239.305C158.928 239.105 159.223 238.8 159.443 238.39C159.673 237.98 159.788 237.47 159.788 236.86C159.788 236.26 159.673 235.755 159.443 235.345C159.223 234.925 158.928 234.615 158.558 234.415C158.188 234.215 157.783 234.115 157.343 234.115Z" fill="#2E2E8B"/>
<path d="M173.64 232.6C174.62 232.6 175.4 232.91 175.98 233.53C176.57 234.15 176.865 235.035 176.865 236.185V241H175.155V236.365C175.155 235.645 174.975 235.09 174.615 234.7C174.255 234.3 173.76 234.1 173.13 234.1C172.46 234.1 171.925 234.315 171.525 234.745C171.135 235.165 170.94 235.785 170.94 236.605V241H169.23V236.365C169.23 235.645 169.05 235.09 168.69 234.7C168.33 234.3 167.835 234.1 167.205 234.1C166.535 234.1 166 234.315 165.6 234.745C165.21 235.165 165.015 235.785 165.015 236.605V241H163.305V232.735H165.015V234.46C165.225 233.86 165.575 233.4 166.065 233.08C166.555 232.76 167.13 232.6 167.79 232.6C168.48 232.6 169.075 232.77 169.575 233.11C170.085 233.45 170.455 233.94 170.685 234.58C170.925 233.96 171.31 233.475 171.84 233.125C172.37 232.775 172.97 232.6 173.64 232.6Z" fill="#2E2E8B"/>
<path d="M183.719 232.63C184.439 232.63 185.079 232.8 185.639 233.14C186.209 233.48 186.654 233.97 186.974 234.61C187.294 235.25 187.454 236 187.454 236.86C187.454 237.73 187.294 238.485 186.974 239.125C186.654 239.765 186.209 240.255 185.639 240.595C185.079 240.935 184.439 241.105 183.719 241.105C182.969 241.105 182.329 240.92 181.799 240.55C181.269 240.18 180.899 239.69 180.689 239.08V244.93H178.979V232.735H180.689V234.655C180.899 234.045 181.269 233.555 181.799 233.185C182.329 232.815 182.969 232.63 183.719 232.63ZM183.194 234.13C182.714 234.13 182.284 234.245 181.904 234.475C181.524 234.695 181.224 235.015 181.004 235.435C180.784 235.845 180.674 236.32 180.674 236.86C180.674 237.41 180.784 237.89 181.004 238.3C181.224 238.71 181.524 239.03 181.904 239.26C182.284 239.48 182.714 239.59 183.194 239.59C183.954 239.59 184.564 239.35 185.024 238.87C185.484 238.38 185.714 237.71 185.714 236.86C185.714 236.02 185.484 235.355 185.024 234.865C184.564 234.375 183.954 234.13 183.194 234.13Z" fill="#2E2E8B"/>
<path d="M192.998 232.63C193.798 232.63 194.518 232.8 195.158 233.14C195.798 233.48 196.298 233.97 196.658 234.61C197.018 235.25 197.198 236 197.198 236.86C197.198 237.73 197.018 238.485 196.658 239.125C196.298 239.765 195.798 240.255 195.158 240.595C194.518 240.935 193.798 241.105 192.998 241.105C192.198 241.105 191.478 240.935 190.838 240.595C190.208 240.255 189.708 239.765 189.338 239.125C188.978 238.475 188.798 237.72 188.798 236.86C188.798 236 188.978 235.25 189.338 234.61C189.708 233.97 190.208 233.48 190.838 233.14C191.478 232.8 192.198 232.63 192.998 232.63ZM192.998 234.115C192.558 234.115 192.153 234.215 191.783 234.415C191.413 234.615 191.113 234.925 190.883 235.345C190.663 235.755 190.553 236.26 190.553 236.86C190.553 237.47 190.663 237.98 190.883 238.39C191.113 238.8 191.413 239.105 191.783 239.305C192.153 239.505 192.558 239.605 192.998 239.605C193.438 239.605 193.843 239.505 194.213 239.305C194.583 239.105 194.878 238.8 195.098 238.39C195.328 237.98 195.443 237.47 195.443 236.86C195.443 236.26 195.328 235.755 195.098 235.345C194.878 234.925 194.583 234.615 194.213 234.415C193.843 234.215 193.438 234.115 192.998 234.115Z" fill="#2E2E8B"/>
<path d="M203.58 232.6C204.54 232.6 205.31 232.91 205.89 233.53C206.47 234.15 206.76 235.035 206.76 236.185V241H205.05V236.365C205.05 235.625 204.86 235.055 204.48 234.655C204.1 234.245 203.58 234.04 202.92 234.04C202.24 234.04 201.695 234.26 201.285 234.7C200.875 235.13 200.67 235.765 200.67 236.605V241H198.96V232.735H200.67V234.55C200.89 233.93 201.26 233.45 201.78 233.11C202.3 232.77 202.9 232.6 203.58 232.6Z" fill="#2E2E8B"/>
<path d="M216.557 236.47C216.557 236.75 216.537 236.995 216.497 237.205H210.137C210.167 238.055 210.402 238.685 210.842 239.095C211.282 239.505 211.827 239.71 212.477 239.71C213.047 239.71 213.527 239.565 213.917 239.275C214.317 238.985 214.562 238.6 214.652 238.12H216.482C216.372 238.7 216.142 239.215 215.792 239.665C215.442 240.115 214.987 240.47 214.427 240.73C213.867 240.98 213.242 241.105 212.552 241.105C211.752 241.105 211.042 240.935 210.422 240.595C209.812 240.255 209.332 239.765 208.982 239.125C208.632 238.485 208.457 237.73 208.457 236.86C208.457 236 208.632 235.25 208.982 234.61C209.332 233.97 209.812 233.48 210.422 233.14C211.042 232.8 211.752 232.63 212.552 232.63C213.362 232.63 214.067 232.8 214.667 233.14C215.277 233.47 215.742 233.93 216.062 234.52C216.392 235.1 216.557 235.75 216.557 236.47ZM214.832 236.425C214.852 235.885 214.757 235.435 214.547 235.075C214.347 234.705 214.067 234.435 213.707 234.265C213.357 234.085 212.972 233.995 212.552 233.995C211.882 233.995 211.322 234.2 210.872 234.61C210.422 235.02 210.177 235.625 210.137 236.425H214.832Z" fill="#2E2E8B"/>
<path d="M222.946 232.6C223.906 232.6 224.676 232.91 225.256 233.53C225.836 234.15 226.126 235.035 226.126 236.185V241H224.416V236.365C224.416 235.625 224.226 235.055 223.846 234.655C223.466 234.245 222.946 234.04 222.286 234.04C221.606 234.04 221.061 234.26 220.651 234.7C220.241 235.13 220.036 235.765 220.036 236.605V241H218.326V232.735H220.036V234.55C220.256 233.93 220.626 233.45 221.146 233.11C221.666 232.77 222.266 232.6 222.946 232.6Z" fill="#2E2E8B"/>
<path d="M232.398 239.515V241H231.348C230.468 241 229.798 240.79 229.338 240.37C228.888 239.94 228.663 239.23 228.663 238.24V234.19H227.478V232.735H228.663V230.68H230.388V232.735H232.383V234.19H230.388V238.27C230.388 238.74 230.473 239.065 230.643 239.245C230.823 239.425 231.133 239.515 231.573 239.515H232.398Z" fill="#2E2E8B"/>
<path d="M236.832 232.63C237.802 232.63 238.577 232.88 239.157 233.38C239.747 233.87 240.107 234.53 240.237 235.36H238.617C238.547 234.91 238.352 234.55 238.032 234.28C237.722 234 237.307 233.86 236.787 233.86C236.357 233.86 236.022 233.965 235.782 234.175C235.552 234.375 235.437 234.65 235.437 235C235.437 235.26 235.522 235.47 235.692 235.63C235.862 235.79 236.072 235.915 236.322 236.005C236.582 236.095 236.947 236.195 237.417 236.305C238.037 236.445 238.537 236.59 238.917 236.74C239.307 236.89 239.637 237.13 239.907 237.46C240.187 237.78 240.327 238.22 240.327 238.78C240.327 239.47 240.062 240.03 239.532 240.46C239.012 240.89 238.307 241.105 237.417 241.105C236.387 241.105 235.552 240.865 234.912 240.385C234.282 239.905 233.902 239.235 233.772 238.375H235.437C235.487 238.825 235.687 239.19 236.037 239.47C236.387 239.75 236.847 239.89 237.417 239.89C237.827 239.89 238.147 239.785 238.377 239.575C238.617 239.355 238.737 239.08 238.737 238.75C238.737 238.46 238.647 238.23 238.467 238.06C238.287 237.89 238.062 237.76 237.792 237.67C237.522 237.57 237.152 237.47 236.682 237.37C236.082 237.23 235.592 237.09 235.212 236.95C234.842 236.81 234.522 236.585 234.252 236.275C233.992 235.955 233.862 235.525 233.862 234.985C233.862 234.285 234.122 233.72 234.642 233.29C235.172 232.85 235.902 232.63 236.832 232.63Z" fill="#2E2E8B"/>
<path d="M94.0058 245.52C93.1045 245.52 92.3738 244.789 92.3738 243.888V226.251C92.3738 225.78 92.3364 225.398 92.3364 225.398V222.856C92.3364 222.386 92.708 222.004 93.1662 222.004H105.148C105.523 222.004 105.863 222.222 106.02 222.562L107.186 225.094C107.28 225.298 107.484 225.429 107.709 225.429H120.336C120.866 225.429 121.296 225.859 121.296 226.389V231.45L100.234 243.977C99.8411 243.976 99.5144 244.288 99.4868 244.691V244.753L96.8334 245.52H94.0058Z" fill="#A691F7"/>
<path fill-rule="evenodd" clip-rule="evenodd" d="M96.0737 229.799C96.2383 229.164 96.8115 228.72 97.4677 228.72H121.139C122.081 228.72 122.77 229.61 122.533 230.521L118.926 244.441C118.762 245.077 118.188 245.52 117.532 245.52H93.8607C92.9188 245.52 92.2304 244.631 92.4667 243.719L96.0737 229.799Z" fill="#4E25EF"/>
<path d="M68 297.067C68 290.403 73.4026 285 80.0669 285H305.933C312.597 285 318 290.403 318 297.067V339.933C318 346.597 312.597 352 305.933 352H80.0669C73.4026 352 68 346.597 68 339.933V297.067Z" fill="white"/>
<g clip-path="url(#clip0)">
<path d="M96.1805 303C94.9812 303 94 303.981 94 305.181V331.619C94 332.819 94.9812 333.8 96.1805 333.8H118.166C119.365 333.8 120.346 332.819 120.346 331.619V310.578L112.771 303H96.1805Z" fill="#5DE2B1"/>
<path d="M98.9956 326.825C98.9956 326.679 99.0222 326.542 99.0753 326.413C99.1329 326.28 99.2104 326.167 99.3079 326.074C99.4053 325.977 99.5183 325.902 99.6467 325.848C99.7796 325.791 99.9235 325.762 100.079 325.762C100.229 325.762 100.371 325.791 100.504 325.848C100.637 325.902 100.752 325.977 100.849 326.074C100.947 326.167 101.022 326.28 101.075 326.413C101.133 326.542 101.161 326.679 101.161 326.825C101.161 326.976 101.133 327.115 101.075 327.244C101.022 327.372 100.947 327.485 100.849 327.582C100.752 327.676 100.637 327.749 100.504 327.802C100.371 327.855 100.229 327.881 100.079 327.881C99.9235 327.881 99.7796 327.855 99.6467 327.802C99.5183 327.749 99.4053 327.676 99.3079 327.582C99.2104 327.485 99.1329 327.372 99.0753 327.244C99.0222 327.115 98.9956 326.976 98.9956 326.825Z" fill="white"/>
<path d="M106.591 324.334C106.591 324.874 106.524 325.363 106.392 325.802C106.259 326.236 106.057 326.61 105.787 326.925C105.521 327.235 105.187 327.474 104.784 327.642C104.381 327.811 103.911 327.895 103.375 327.895C103.132 327.895 102.89 327.879 102.651 327.848C102.416 327.822 102.168 327.777 101.907 327.715C101.925 327.52 101.942 327.326 101.96 327.131C101.978 326.936 101.996 326.741 102.013 326.546C102.027 326.44 102.069 326.356 102.14 326.294C102.21 326.227 102.312 326.194 102.445 326.194C102.52 326.194 102.616 326.207 102.731 326.234C102.85 326.26 102.997 326.274 103.169 326.274C103.409 326.274 103.617 326.24 103.794 326.174C103.971 326.108 104.119 325.999 104.239 325.848C104.359 325.698 104.447 325.503 104.505 325.264C104.567 325.02 104.598 324.726 104.598 324.38V318.148H106.591V324.334Z" fill="white"/>
<path d="M113.839 319.995C113.777 320.097 113.713 320.172 113.646 320.221C113.584 320.265 113.502 320.288 113.4 320.288C113.303 320.288 113.197 320.254 113.081 320.188C112.971 320.117 112.84 320.042 112.69 319.962C112.539 319.882 112.366 319.809 112.171 319.743C111.976 319.672 111.748 319.637 111.487 319.637C111.026 319.637 110.681 319.741 110.451 319.949C110.22 320.153 110.105 320.42 110.105 320.753C110.105 320.965 110.167 321.142 110.291 321.284C110.42 321.421 110.586 321.541 110.789 321.643C110.998 321.745 111.232 321.836 111.494 321.915C111.755 321.995 112.023 322.084 112.298 322.181C112.572 322.274 112.84 322.385 113.101 322.513C113.363 322.642 113.595 322.803 113.799 322.998C114.007 323.193 114.173 323.432 114.297 323.716C114.426 323.995 114.49 324.336 114.49 324.739C114.49 325.177 114.412 325.589 114.257 325.975C114.107 326.356 113.888 326.69 113.6 326.978C113.312 327.261 112.955 327.485 112.53 327.649C112.109 327.813 111.631 327.895 111.095 327.895C110.789 327.895 110.484 327.864 110.178 327.802C109.877 327.74 109.585 327.653 109.301 327.543C109.022 327.432 108.759 327.299 108.511 327.144C108.263 326.989 108.045 326.816 107.859 326.626L108.444 325.682C108.493 325.612 108.557 325.554 108.637 325.51C108.717 325.461 108.801 325.437 108.889 325.437C109.009 325.437 109.135 325.481 109.268 325.569C109.401 325.658 109.554 325.755 109.726 325.862C109.899 325.968 110.098 326.065 110.324 326.154C110.555 326.243 110.829 326.287 111.148 326.287C111.613 326.287 111.972 326.181 112.224 325.968C112.481 325.755 112.61 325.439 112.61 325.018C112.61 324.774 112.546 324.577 112.417 324.427C112.293 324.276 112.129 324.15 111.925 324.048C111.722 323.946 111.489 323.86 111.228 323.789C110.967 323.714 110.699 323.632 110.424 323.543C110.149 323.454 109.881 323.348 109.62 323.224C109.359 323.1 109.126 322.936 108.922 322.733C108.719 322.529 108.553 322.276 108.424 321.975C108.3 321.674 108.238 321.3 108.238 320.852C108.238 320.494 108.309 320.146 108.451 319.809C108.592 319.473 108.801 319.174 109.075 318.912C109.35 318.651 109.687 318.441 110.085 318.281C110.488 318.122 110.949 318.042 111.467 318.042C112.047 318.042 112.583 318.133 113.075 318.314C113.571 318.492 113.989 318.74 114.331 319.058L113.839 319.995Z" fill="white"/>
<path d="M112.768 310.032C112.768 310.333 113.012 310.577 113.313 310.577H120.345L112.771 303H112.768V310.032Z" fill="#069D8A"/>
</g>
<path d="M148.35 323.705H143.88L143.07 326H141.24L145.14 315.575H147.105L150.99 326H149.16L148.35 323.705ZM147.87 322.385L146.115 317.435L144.36 322.385H147.87Z" fill="#2E2E8B"/>
<path d="M157.117 317.63C157.837 317.63 158.477 317.8 159.037 318.14C159.607 318.48 160.052 318.97 160.372 319.61C160.692 320.25 160.852 321 160.852 321.86C160.852 322.73 160.692 323.485 160.372 324.125C160.052 324.765 159.607 325.255 159.037 325.595C158.477 325.935 157.837 326.105 157.117 326.105C156.367 326.105 155.727 325.92 155.197 325.55C154.667 325.18 154.297 324.69 154.087 324.08V329.93H152.377V317.735H154.087V319.655C154.297 319.045 154.667 318.555 155.197 318.185C155.727 317.815 156.367 317.63 157.117 317.63ZM156.592 319.13C156.112 319.13 155.682 319.245 155.302 319.475C154.922 319.695 154.622 320.015 154.402 320.435C154.182 320.845 154.072 321.32 154.072 321.86C154.072 322.41 154.182 322.89 154.402 323.3C154.622 323.71 154.922 324.03 155.302 324.26C155.682 324.48 156.112 324.59 156.592 324.59C157.352 324.59 157.962 324.35 158.422 323.87C158.882 323.38 159.112 322.71 159.112 321.86C159.112 321.02 158.882 320.355 158.422 319.865C157.962 319.375 157.352 319.13 156.592 319.13Z" fill="#2E2E8B"/>
<path d="M167.357 317.63C168.077 317.63 168.717 317.8 169.277 318.14C169.847 318.48 170.292 318.97 170.612 319.61C170.932 320.25 171.092 321 171.092 321.86C171.092 322.73 170.932 323.485 170.612 324.125C170.292 324.765 169.847 325.255 169.277 325.595C168.717 325.935 168.077 326.105 167.357 326.105C166.607 326.105 165.967 325.92 165.437 325.55C164.907 325.18 164.537 324.69 164.327 324.08V329.93H162.617V317.735H164.327V319.655C164.537 319.045 164.907 318.555 165.437 318.185C165.967 317.815 166.607 317.63 167.357 317.63ZM166.832 319.13C166.352 319.13 165.922 319.245 165.542 319.475C165.162 319.695 164.862 320.015 164.642 320.435C164.422 320.845 164.312 321.32 164.312 321.86C164.312 322.41 164.422 322.89 164.642 323.3C164.862 323.71 165.162 324.03 165.542 324.26C165.922 324.48 166.352 324.59 166.832 324.59C167.592 324.59 168.202 324.35 168.662 323.87C169.122 323.38 169.352 322.71 169.352 321.86C169.352 321.02 169.122 320.355 168.662 319.865C168.202 319.375 167.592 319.13 166.832 319.13Z" fill="#2E2E8B"/>
<path d="M174.206 324.11V326H172.271V324.11H174.206Z" fill="#2E2E8B"/>
<path d="M176.76 316.31C176.43 316.31 176.16 316.22 175.95 316.04C175.75 315.86 175.65 315.625 175.65 315.335C175.65 315.045 175.75 314.805 175.95 314.615C176.16 314.425 176.43 314.33 176.76 314.33C177.09 314.33 177.355 314.425 177.555 314.615C177.755 314.805 177.855 315.045 177.855 315.335C177.855 315.625 177.755 315.86 177.555 316.04C177.355 316.22 177.09 316.31 176.76 316.31ZM174.36 328.43H174.945C175.275 328.43 175.515 328.355 175.665 328.205C175.825 328.065 175.905 327.82 175.905 327.47V317.735H177.63V327.485C177.63 329.115 176.81 329.93 175.17 329.93H174.36V328.43Z" fill="#2E2E8B"/>
<path d="M182.5 317.63C183.47 317.63 184.245 317.88 184.825 318.38C185.415 318.87 185.775 319.53 185.905 320.36H184.285C184.215 319.91 184.02 319.55 183.7 319.28C183.39 319 182.975 318.86 182.455 318.86C182.025 318.86 181.69 318.965 181.45 319.175C181.22 319.375 181.105 319.65 181.105 320C181.105 320.26 181.19 320.47 181.36 320.63C181.53 320.79 181.74 320.915 181.99 321.005C182.25 321.095 182.615 321.195 183.085 321.305C183.705 321.445 184.205 321.59 184.585 321.74C184.975 321.89 185.305 322.13 185.575 322.46C185.855 322.78 185.995 323.22 185.995 323.78C185.995 324.47 185.73 325.03 185.2 325.46C184.68 325.89 183.975 326.105 183.085 326.105C182.055 326.105 181.22 325.865 180.58 325.385C179.95 324.905 179.57 324.235 179.44 323.375H181.105C181.155 323.825 181.355 324.19 181.705 324.47C182.055 324.75 182.515 324.89 183.085 324.89C183.495 324.89 183.815 324.785 184.045 324.575C184.285 324.355 184.405 324.08 184.405 323.75C184.405 323.46 184.315 323.23 184.135 323.06C183.955 322.89 183.73 322.76 183.46 322.67C183.19 322.57 182.82 322.47 182.35 322.37C181.75 322.23 181.26 322.09 180.88 321.95C180.51 321.81 180.19 321.585 179.92 321.275C179.66 320.955 179.53 320.525 179.53 319.985C179.53 319.285 179.79 318.72 180.31 318.29C180.84 317.85 181.57 317.63 182.5 317.63Z" fill="#2E2E8B"/>
<path d="M68 382.067C68 375.403 73.4026 370 80.0669 370H305.933C312.597 370 318 375.403 318 382.067V424.933C318 431.597 312.597 437 305.933 437H80.0669C73.4026 437 68 431.597 68 424.933V382.067Z" fill="white"/>
<g clip-path="url(#clip1)">
<path d="M96.1805 388C94.9812 388 94 388.981 94 390.181V416.619C94 417.819 94.9812 418.8 96.1805 418.8H118.166C119.365 418.8 120.346 417.819 120.346 416.619V395.578L112.771 388H96.1805Z" fill="#5DE2B1"/>
<path d="M98.9956 411.825C98.9956 411.679 99.0222 411.542 99.0753 411.413C99.1329 411.28 99.2104 411.167 99.3079 411.074C99.4053 410.977 99.5183 410.902 99.6467 410.848C99.7796 410.791 99.9235 410.762 100.079 410.762C100.229 410.762 100.371 410.791 100.504 410.848C100.637 410.902 100.752 410.977 100.849 411.074C100.947 411.167 101.022 411.28 101.075 411.413C101.133 411.542 101.161 411.679 101.161 411.825C101.161 411.976 101.133 412.115 101.075 412.244C101.022 412.372 100.947 412.485 100.849 412.582C100.752 412.676 100.637 412.749 100.504 412.802C100.371 412.855 100.229 412.881 100.079 412.881C99.9235 412.881 99.7796 412.855 99.6467 412.802C99.5183 412.749 99.4053 412.676 99.3079 412.582C99.2104 412.485 99.1329 412.372 99.0753 412.244C99.0222 412.115 98.9956 411.976 98.9956 411.825Z" fill="white"/>
<path d="M106.591 409.334C106.591 409.874 106.524 410.363 106.392 410.802C106.259 411.236 106.057 411.61 105.787 411.925C105.521 412.235 105.187 412.474 104.784 412.642C104.381 412.811 103.911 412.895 103.375 412.895C103.132 412.895 102.89 412.879 102.651 412.848C102.416 412.822 102.168 412.777 101.907 412.715C101.925 412.52 101.942 412.326 101.96 412.131C101.978 411.936 101.996 411.741 102.013 411.546C102.027 411.44 102.069 411.356 102.14 411.294C102.21 411.227 102.312 411.194 102.445 411.194C102.52 411.194 102.616 411.207 102.731 411.234C102.85 411.26 102.997 411.274 103.169 411.274C103.409 411.274 103.617 411.24 103.794 411.174C103.971 411.108 104.119 410.999 104.239 410.848C104.359 410.698 104.447 410.503 104.505 410.264C104.567 410.02 104.598 409.726 104.598 409.38V403.148H106.591V409.334Z" fill="white"/>
<path d="M113.839 404.995C113.777 405.097 113.713 405.172 113.646 405.221C113.584 405.265 113.502 405.288 113.4 405.288C113.303 405.288 113.197 405.254 113.081 405.188C112.971 405.117 112.84 405.042 112.69 404.962C112.539 404.882 112.366 404.809 112.171 404.743C111.976 404.672 111.748 404.637 111.487 404.637C111.026 404.637 110.681 404.741 110.451 404.949C110.22 405.153 110.105 405.42 110.105 405.753C110.105 405.965 110.167 406.142 110.291 406.284C110.42 406.421 110.586 406.541 110.789 406.643C110.998 406.745 111.232 406.836 111.494 406.915C111.755 406.995 112.023 407.084 112.298 407.181C112.572 407.274 112.84 407.385 113.101 407.513C113.363 407.642 113.595 407.803 113.799 407.998C114.007 408.193 114.173 408.432 114.297 408.716C114.426 408.995 114.49 409.336 114.49 409.739C114.49 410.177 114.412 410.589 114.257 410.975C114.107 411.356 113.888 411.69 113.6 411.978C113.312 412.261 112.955 412.485 112.53 412.649C112.109 412.813 111.631 412.895 111.095 412.895C110.789 412.895 110.484 412.864 110.178 412.802C109.877 412.74 109.585 412.653 109.301 412.543C109.022 412.432 108.759 412.299 108.511 412.144C108.263 411.989 108.045 411.816 107.859 411.626L108.444 410.682C108.493 410.612 108.557 410.554 108.637 410.51C108.717 410.461 108.801 410.437 108.889 410.437C109.009 410.437 109.135 410.481 109.268 410.569C109.401 410.658 109.554 410.755 109.726 410.862C109.899 410.968 110.098 411.065 110.324 411.154C110.555 411.243 110.829 411.287 111.148 411.287C111.613 411.287 111.972 411.181 112.224 410.968C112.481 410.755 112.61 410.439 112.61 410.018C112.61 409.774 112.546 409.577 112.417 409.427C112.293 409.276 112.129 409.15 111.925 409.048C111.722 408.946 111.489 408.86 111.228 408.789C110.967 408.714 110.699 408.632 110.424 408.543C110.149 408.454 109.881 408.348 109.62 408.224C109.359 408.1 109.126 407.936 108.922 407.733C108.719 407.529 108.553 407.276 108.424 406.975C108.3 406.674 108.238 406.3 108.238 405.852C108.238 405.494 108.309 405.146 108.451 404.809C108.592 404.473 108.801 404.174 109.075 403.912C109.35 403.651 109.687 403.441 110.085 403.281C110.488 403.122 110.949 403.042 111.467 403.042C112.047 403.042 112.583 403.133 113.075 403.314C113.571 403.492 113.989 403.74 114.331 404.058L113.839 404.995Z" fill="white"/>
<path d="M112.768 395.032C112.768 395.333 113.012 395.577 113.313 395.577H120.345L112.771 388H112.768V395.032Z" fill="#069D8A"/>
</g>
<path d="M143.745 400.41V411H142.035V400.41H143.745Z" fill="#2E2E8B"/>
<path d="M150.552 402.6C151.512 402.6 152.282 402.91 152.862 403.53C153.442 404.15 153.732 405.035 153.732 406.185V411H152.022V406.365C152.022 405.625 151.832 405.055 151.452 404.655C151.072 404.245 150.552 404.04 149.892 404.04C149.212 404.04 148.667 404.26 148.257 404.7C147.847 405.13 147.642 405.765 147.642 406.605V411H145.932V402.735H147.642V404.55C147.862 403.93 148.232 403.45 148.752 403.11C149.272 402.77 149.872 402.6 150.552 402.6Z" fill="#2E2E8B"/>
<path d="M159.164 402.63C159.914 402.63 160.554 402.815 161.084 403.185C161.614 403.555 161.984 404.045 162.194 404.655V399.9H163.919V411H162.194V409.08C161.984 409.69 161.614 410.18 161.084 410.55C160.554 410.92 159.914 411.105 159.164 411.105C158.444 411.105 157.799 410.935 157.229 410.595C156.669 410.255 156.229 409.765 155.909 409.125C155.589 408.485 155.429 407.73 155.429 406.86C155.429 406 155.589 405.25 155.909 404.61C156.229 403.97 156.669 403.48 157.229 403.14C157.799 402.8 158.444 402.63 159.164 402.63ZM159.689 404.13C158.929 404.13 158.319 404.375 157.859 404.865C157.409 405.345 157.184 406.01 157.184 406.86C157.184 407.71 157.409 408.38 157.859 408.87C158.319 409.35 158.929 409.59 159.689 409.59C160.169 409.59 160.599 409.48 160.979 409.26C161.359 409.03 161.659 408.71 161.879 408.3C162.099 407.89 162.209 407.41 162.209 406.86C162.209 406.32 162.099 405.845 161.879 405.435C161.659 405.015 161.359 404.695 160.979 404.475C160.599 404.245 160.169 404.13 159.689 404.13Z" fill="#2E2E8B"/>
<path d="M173.769 406.47C173.769 406.75 173.749 406.995 173.709 407.205H167.349C167.379 408.055 167.614 408.685 168.054 409.095C168.494 409.505 169.039 409.71 169.689 409.71C170.259 409.71 170.739 409.565 171.129 409.275C171.529 408.985 171.774 408.6 171.864 408.12H173.694C173.584 408.7 173.354 409.215 173.004 409.665C172.654 410.115 172.199 410.47 171.639 410.73C171.079 410.98 170.454 411.105 169.764 411.105C168.964 411.105 168.254 410.935 167.634 410.595C167.024 410.255 166.544 409.765 166.194 409.125C165.844 408.485 165.669 407.73 165.669 406.86C165.669 406 165.844 405.25 166.194 404.61C166.544 403.97 167.024 403.48 167.634 403.14C168.254 402.8 168.964 402.63 169.764 402.63C170.574 402.63 171.279 402.8 171.879 403.14C172.489 403.47 172.954 403.93 173.274 404.52C173.604 405.1 173.769 405.75 173.769 406.47ZM172.044 406.425C172.064 405.885 171.969 405.435 171.759 405.075C171.559 404.705 171.279 404.435 170.919 404.265C170.569 404.085 170.184 403.995 169.764 403.995C169.094 403.995 168.534 404.2 168.084 404.61C167.634 405.02 167.389 405.625 167.349 406.425H172.044Z" fill="#2E2E8B"/>
<path d="M180.427 411L178.402 408.075L176.632 411H174.727L177.457 406.71L174.697 402.735H176.632L178.612 405.585L180.367 402.735H182.257L179.527 406.905L182.362 411H180.427Z" fill="#2E2E8B"/>
<path d="M185.017 409.11V411H183.082V409.11H185.017Z" fill="#2E2E8B"/>
<path d="M187.571 401.31C187.241 401.31 186.971 401.22 186.761 401.04C186.561 400.86 186.461 400.625 186.461 400.335C186.461 400.045 186.561 399.805 186.761 399.615C186.971 399.425 187.241 399.33 187.571 399.33C187.901 399.33 188.166 399.425 188.366 399.615C188.566 399.805 188.666 400.045 188.666 400.335C188.666 400.625 188.566 400.86 188.366 401.04C188.166 401.22 187.901 401.31 187.571 401.31ZM185.171 413.43H185.756C186.086 413.43 186.326 413.355 186.476 413.205C186.636 413.065 186.716 412.82 186.716 412.47V402.735H188.441V412.485C188.441 414.115 187.621 414.93 185.981 414.93H185.171V413.43Z" fill="#2E2E8B"/>
<path d="M193.311 402.63C194.281 402.63 195.056 402.88 195.636 403.38C196.226 403.87 196.586 404.53 196.716 405.36H195.096C195.026 404.91 194.831 404.55 194.511 404.28C194.201 404 193.786 403.86 193.266 403.86C192.836 403.86 192.501 403.965 192.261 404.175C192.031 404.375 191.916 404.65 191.916 405C191.916 405.26 192.001 405.47 192.171 405.63C192.341 405.79 192.551 405.915 192.801 406.005C193.061 406.095 193.426 406.195 193.896 406.305C194.516 406.445 195.016 406.59 195.396 406.74C195.786 406.89 196.116 407.13 196.386 407.46C196.666 407.78 196.806 408.22 196.806 408.78C196.806 409.47 196.541 410.03 196.011 410.46C195.491 410.89 194.786 411.105 193.896 411.105C192.866 411.105 192.031 410.865 191.391 410.385C190.761 409.905 190.381 409.235 190.251 408.375H191.916C191.966 408.825 192.166 409.19 192.516 409.47C192.866 409.75 193.326 409.89 193.896 409.89C194.306 409.89 194.626 409.785 194.856 409.575C195.096 409.355 195.216 409.08 195.216 408.75C195.216 408.46 195.126 408.23 194.946 408.06C194.766 407.89 194.541 407.76 194.271 407.67C194.001 407.57 193.631 407.47 193.161 407.37C192.561 407.23 192.071 407.09 191.691 406.95C191.321 406.81 191.001 406.585 190.731 406.275C190.471 405.955 190.341 405.525 190.341 404.985C190.341 404.285 190.601 403.72 191.121 403.29C191.651 402.85 192.381 402.63 193.311 402.63Z" fill="#2E2E8B"/>
<path fill-rule="evenodd" clip-rule="evenodd" d="M435 154C454.882 154 471 137.882 471 118C471 98.1177 454.882 82 435 82C415.118 82 399 98.1177 399 118C399 137.882 415.118 154 435 154Z" fill="#F3F9FD"/>
<path d="M434.546 132.846V127.256C440.462 127.256 445.054 121.389 442.783 115.162C441.949 112.874 440.102 111.028 437.798 110.194C431.571 107.939 425.704 112.515 425.704 118.431V118.431H420.131C420.131 109.001 429.25 101.647 439.138 104.736C443.453 106.092 446.901 109.524 448.241 113.839C451.33 123.726 443.976 132.846 434.546 132.846Z" fill="#A3BFDB"/>
<path fill-rule="evenodd" clip-rule="evenodd" d="M434.562 127.289H428.989V121.716V121.716H434.562V121.716V127.289Z" fill="#A3BFDB"/>
<path fill-rule="evenodd" clip-rule="evenodd" d="M428.989 131.555H424.723V131.555V127.289H428.989V131.555V131.555Z" fill="#A3BFDB"/>
<path fill-rule="evenodd" clip-rule="evenodd" d="M424.723 127.289H421.144V127.289V123.71V123.71H424.723V123.71V127.289Z" fill="#A3BFDB"/>
<path fill-rule="evenodd" clip-rule="evenodd" d="M613 154C632.882 154 649 137.882 649 118C649 98.1177 632.882 82 613 82C593.118 82 577 98.1177 577 118C577 137.882 593.118 154 613 154Z" fill="#F3F9FD"/>
<path d="M601 107H624V116.093H601V107Z" fill="#A3BFDB"/>
<path d="M601 118.946H624V123.76H601V118.946Z" fill="#A3BFDB"/>
<path d="M601 126.612H624V130H601V126.612Z" fill="#A3BFDB"/>
<path fill-rule="evenodd" clip-rule="evenodd" d="M524 154C543.882 154 560 137.882 560 118C560 98.1177 543.882 82 524 82C504.118 82 488 98.1177 488 118C488 137.882 504.118 154 524 154Z" fill="#F3F9FD"/>
<path fill-rule="evenodd" clip-rule="evenodd" d="M530.193 111.759H526.023C527.578 109.817 528.639 107.507 529.108 105.049H533.278C532.957 107.556 531.871 109.891 530.193 111.759ZM531.501 117.239C530.169 115.961 528.367 115.298 526.517 115.371C523.877 115.445 521.236 115.912 518.744 116.821V105.074H514.599V122.941L517.51 121.589C517.51 121.589 522.273 119.426 526.443 119.426C528.516 119.426 529.034 120.557 529.034 121.589V133.976H533.204V121.589C533.278 119.943 532.661 118.37 531.501 117.239ZM514.722 133.951L519.386 129.798L514.722 125.644V133.951Z" fill="#A3BFDB"/>
<defs>
<filter id="filter0_d" x="0" y="0" width="717" height="552" filterUnits="userSpaceOnUse" color-interpolation-filters="sRGB">
<feFlood flood-opacity="0" result="BackgroundImageFix"/>
<feColorMatrix in="SourceAlpha" type="matrix" values="0 0 0 0 0 0 0 0 0 0 0 0 0 0 0 0 0 0 127 0"/>
<feOffset dy="11"/>
<feGaussianBlur stdDeviation="14"/>
<feColorMatrix type="matrix" values="0 0 0 0 0.458824 0 0 0 0 0.552941 0 0 0 0 0.65098 0 0 0 0.214161 0"/>
<feBlend mode="normal" in2="BackgroundImageFix" result="effect1_dropShadow"/>
<feBlend mode="normal" in="SourceGraphic" in2="effect1_dropShadow" result="shape"/>
</filter>
<clipPath id="clip0">
<rect x="94" y="303" width="27" height="31" fill="white"/>
</clipPath>
<clipPath id="clip1">
<rect x="94" y="388" width="27" height="31" fill="white"/>
</clipPath>
</defs>
</svg>
