<svg width="717" height="552" viewBox="0 0 717 552" fill="none" xmlns="http://www.w3.org/2000/svg">
<g filter="url(#filter0_d)">
<path d="M28 43.8154C28 29.0057 40.0057 17 54.8154 17H662.185C676.994 17 689 29.0057 689 43.8154V486.185C689 500.994 676.994 513 662.185 513H54.8154C40.0057 513 28 500.994 28 486.185V43.8154Z" fill="white"/>
</g>
<path d="M81.0612 78.8039C81.0612 79.3933 80.9196 79.9429 80.6362 80.4529C80.3529 80.9516 79.9222 81.3539 79.3442 81.6599C78.7662 81.9659 78.0579 82.1189 77.2192 82.1189C76.4032 82.1189 75.6722 81.9773 75.0262 81.6939C74.3802 81.3993 73.8646 80.9913 73.4792 80.4699C73.0939 79.9486 72.8729 79.3479 72.8162 78.6679H74.8902C74.9469 79.1893 75.1679 79.6369 75.5532 80.0109C75.9499 80.3849 76.4769 80.5719 77.1342 80.5719C77.7236 80.5719 78.1769 80.4133 78.4942 80.0959C78.8229 79.7786 78.9872 79.3706 78.9872 78.8719C78.9872 78.4413 78.8682 78.0899 78.6302 77.8179C78.3922 77.5346 78.0976 77.3136 77.7462 77.1549C77.3949 76.9963 76.9132 76.8149 76.3012 76.6109C75.5532 76.3729 74.9412 76.1349 74.4652 75.8969C74.0006 75.6589 73.6039 75.3133 73.2752 74.8599C72.9466 74.4066 72.7822 73.8116 72.7822 73.0749C72.7822 72.4289 72.9409 71.8623 73.2582 71.3749C73.5756 70.8876 74.0289 70.5136 74.6182 70.2529C75.2076 69.9809 75.8876 69.8449 76.6582 69.8449C77.8822 69.8449 78.8512 70.1396 79.5652 70.7289C80.2906 71.3183 80.7042 72.0889 80.8062 73.0409H78.7152C78.6359 72.5876 78.4206 72.2023 78.0692 71.8849C77.7292 71.5563 77.2589 71.3919 76.6582 71.3919C76.1142 71.3919 75.6779 71.5336 75.3492 71.8169C75.0206 72.0889 74.8562 72.4856 74.8562 73.0069C74.8562 73.4149 74.9696 73.7549 75.1962 74.0269C75.4229 74.2876 75.7062 74.4973 76.0462 74.6559C76.3976 74.8033 76.8736 74.9789 77.4742 75.1829C78.2336 75.4209 78.8512 75.6646 79.3272 75.9139C79.8146 76.1519 80.2226 76.5033 80.5512 76.9679C80.8912 77.4326 81.0612 78.0446 81.0612 78.8039Z" fill="#9EA7B8"/>
<path d="M91.7251 76.8659C91.7251 77.1833 91.7024 77.4609 91.6571 77.6989H84.4491C84.4831 78.6623 84.7494 79.3763 85.2481 79.8409C85.7467 80.3056 86.3644 80.5379 87.1011 80.5379C87.7471 80.5379 88.2911 80.3736 88.7331 80.0449C89.1864 79.7163 89.4641 79.2799 89.5661 78.7359H91.6401C91.5154 79.3933 91.2548 79.9769 90.8581 80.4869C90.4614 80.9969 89.9458 81.3993 89.3111 81.6939C88.6764 81.9773 87.9681 82.1189 87.1861 82.1189C86.2794 82.1189 85.4748 81.9263 84.7721 81.5409C84.0807 81.1556 83.5368 80.6003 83.1401 79.8749C82.7434 79.1496 82.5451 78.2939 82.5451 77.3079C82.5451 76.3333 82.7434 75.4833 83.1401 74.7579C83.5368 74.0326 84.0807 73.4773 84.7721 73.0919C85.4748 72.7066 86.2794 72.5139 87.1861 72.5139C88.1041 72.5139 88.9031 72.7066 89.5831 73.0919C90.2744 73.4659 90.8014 73.9873 91.1641 74.6559C91.5381 75.3133 91.7251 76.0499 91.7251 76.8659ZM89.7701 76.8149C89.7928 76.2029 89.6851 75.6929 89.4471 75.2849C89.2204 74.8656 88.9031 74.5596 88.4951 74.3669C88.0984 74.1629 87.6621 74.0609 87.1861 74.0609C86.4268 74.0609 85.7921 74.2933 85.2821 74.7579C84.7721 75.2226 84.4944 75.9083 84.4491 76.8149H89.7701Z" fill="#9EA7B8"/>
<path d="M95.554 69.4199V81.9999H93.616V69.4199H95.554Z" fill="#9EA7B8"/>
<path d="M106.623 76.8659C106.623 77.1833 106.6 77.4609 106.555 77.6989H99.3469C99.3809 78.6623 99.6473 79.3763 100.146 79.8409C100.645 80.3056 101.262 80.5379 101.999 80.5379C102.645 80.5379 103.189 80.3736 103.631 80.0449C104.084 79.7163 104.362 79.2799 104.464 78.7359H106.538C106.413 79.3933 106.153 79.9769 105.756 80.4869C105.359 80.9969 104.844 81.3993 104.209 81.6939C103.574 81.9773 102.866 82.1189 102.084 82.1189C101.177 82.1189 100.373 81.9263 99.6699 81.5409C98.9786 81.1556 98.4346 80.6003 98.0379 79.8749C97.6413 79.1496 97.4429 78.2939 97.4429 77.3079C97.4429 76.3333 97.6413 75.4833 98.0379 74.7579C98.4346 74.0326 98.9786 73.4773 99.6699 73.0919C100.373 72.7066 101.177 72.5139 102.084 72.5139C103.002 72.5139 103.801 72.7066 104.481 73.0919C105.172 73.4659 105.699 73.9873 106.062 74.6559C106.436 75.3133 106.623 76.0499 106.623 76.8659ZM104.668 76.8149C104.691 76.2029 104.583 75.6929 104.345 75.2849C104.118 74.8656 103.801 74.5596 103.393 74.3669C102.996 74.1629 102.56 74.0609 102.084 74.0609C101.325 74.0609 100.69 74.2933 100.18 74.7579C99.6699 75.2226 99.3923 75.9083 99.3469 76.8149H104.668Z" fill="#9EA7B8"/>
<path d="M112.679 72.5139C113.892 72.5139 114.895 72.8369 115.688 73.4829C116.481 74.1176 116.974 74.9846 117.167 76.0839H115.11C114.997 75.4946 114.719 75.0356 114.277 74.7069C113.846 74.3669 113.302 74.1969 112.645 74.1969C111.897 74.1969 111.274 74.4633 110.775 74.9959C110.276 75.5173 110.027 76.2879 110.027 77.3079C110.027 78.3279 110.276 79.1043 110.775 79.6369C111.274 80.1696 111.897 80.4359 112.645 80.4359C113.302 80.4359 113.846 80.2659 114.277 79.9259C114.719 79.5859 114.997 79.1213 115.11 78.5319H117.167C116.974 79.6313 116.481 80.5039 115.688 81.1499C114.895 81.7959 113.892 82.1189 112.679 82.1189C111.772 82.1189 110.968 81.9263 110.265 81.5409C109.574 81.1556 109.03 80.6003 108.633 79.8749C108.236 79.1496 108.038 78.2939 108.038 77.3079C108.038 76.3333 108.236 75.4833 108.633 74.7579C109.03 74.0326 109.574 73.4773 110.265 73.0919C110.968 72.7066 111.772 72.5139 112.679 72.5139Z" fill="#9EA7B8"/>
<path d="M123.768 80.3169V81.9999H122.578C121.581 81.9999 120.821 81.7619 120.3 81.2859C119.79 80.7986 119.535 79.9939 119.535 78.8719V74.2819H118.192V72.6329H119.535V70.3039H121.49V72.6329H123.751V74.2819H121.49V78.9059C121.49 79.4386 121.586 79.8069 121.779 80.0109C121.983 80.2149 122.334 80.3169 122.833 80.3169H123.768Z" fill="#9EA7B8"/>
<path d="M133.364 72.5139C134.214 72.5139 134.94 72.7236 135.54 73.1429C136.141 73.5623 136.566 74.1176 136.815 74.8089V72.6329H138.753V81.9999H136.815V79.8239C136.566 80.5153 136.141 81.0706 135.54 81.4899C134.94 81.9093 134.214 82.1189 133.364 82.1189C132.548 82.1189 131.817 81.9263 131.171 81.5409C130.537 81.1556 130.038 80.6003 129.675 79.8749C129.313 79.1496 129.131 78.2939 129.131 77.3079C129.131 76.3333 129.313 75.4833 129.675 74.7579C130.038 74.0326 130.537 73.4773 131.171 73.0919C131.817 72.7066 132.548 72.5139 133.364 72.5139ZM133.959 74.2139C133.098 74.2139 132.407 74.4916 131.885 75.0469C131.375 75.5909 131.12 76.3446 131.12 77.3079C131.12 78.2713 131.375 79.0306 131.885 79.5859C132.407 80.1299 133.098 80.4019 133.959 80.4019C134.503 80.4019 134.991 80.2773 135.421 80.0279C135.852 79.7673 136.192 79.4046 136.441 78.9399C136.691 78.4753 136.815 77.9313 136.815 77.3079C136.815 76.6959 136.691 76.1576 136.441 75.6929C136.192 75.2169 135.852 74.8543 135.421 74.6049C134.991 74.3443 134.503 74.2139 133.959 74.2139Z" fill="#9EA7B8"/>
<path d="M149.472 70.6949C148.712 70.6609 148.18 70.7856 147.874 71.0689C147.568 71.3409 147.415 71.8113 147.415 72.4799V72.6329H149.472V74.2989H147.415V81.9999H145.46V74.2989H144.185V72.6329H145.46V72.3269C145.46 71.1823 145.794 70.3266 146.463 69.7599C147.131 69.1819 148.134 68.9269 149.472 68.9949V70.6949Z" fill="#9EA7B8"/>
<path d="M150.777 69.9129C150.777 69.5843 150.891 69.3123 151.117 69.0969C151.344 68.8816 151.644 68.7739 152.018 68.7739C152.392 68.7739 152.693 68.8816 152.919 69.0969C153.157 69.3123 153.276 69.5843 153.276 69.9129C153.276 70.2416 153.157 70.5079 152.919 70.7119C152.693 70.9159 152.392 71.0179 152.018 71.0179C151.644 71.0179 151.344 70.9159 151.117 70.7119C150.891 70.5079 150.777 70.2416 150.777 69.9129ZM152.987 72.6329V81.9999H151.049V72.6329H152.987Z" fill="#9EA7B8"/>
<path d="M164.056 76.8659C164.056 77.1833 164.034 77.4609 163.988 77.6989H156.78C156.814 78.6623 157.081 79.3763 157.579 79.8409C158.078 80.3056 158.696 80.5379 159.432 80.5379C160.078 80.5379 160.622 80.3736 161.064 80.0449C161.518 79.7163 161.795 79.2799 161.897 78.7359H163.971C163.847 79.3933 163.586 79.9769 163.189 80.4869C162.793 80.9969 162.277 81.3993 161.642 81.6939C161.008 81.9773 160.299 82.1189 159.517 82.1189C158.611 82.1189 157.806 81.9263 157.103 81.5409C156.412 81.1556 155.868 80.6003 155.471 79.8749C155.075 79.1496 154.876 78.2939 154.876 77.3079C154.876 76.3333 155.075 75.4833 155.471 74.7579C155.868 74.0326 156.412 73.4773 157.103 73.0919C157.806 72.7066 158.611 72.5139 159.517 72.5139C160.435 72.5139 161.234 72.7066 161.914 73.0919C162.606 73.4659 163.133 73.9873 163.495 74.6559C163.869 75.3133 164.056 76.0499 164.056 76.8659ZM162.101 76.8149C162.124 76.2029 162.016 75.6929 161.778 75.2849C161.552 74.8656 161.234 74.5596 160.826 74.3669C160.43 74.1629 159.993 74.0609 159.517 74.0609C158.758 74.0609 158.123 74.2933 157.613 74.7579C157.103 75.2226 156.826 75.9083 156.78 76.8149H162.101Z" fill="#9EA7B8"/>
<path d="M167.885 69.4199V81.9999H165.947V69.4199H167.885Z" fill="#9EA7B8"/>
<path d="M174.007 72.5139C174.857 72.5139 175.582 72.7236 176.183 73.1429C176.784 73.5623 177.203 74.1176 177.441 74.8089V69.4199H179.396V81.9999H177.441V79.8239C177.203 80.5153 176.784 81.0706 176.183 81.4899C175.582 81.9093 174.857 82.1189 174.007 82.1189C173.191 82.1189 172.46 81.9263 171.814 81.5409C171.179 81.1556 170.681 80.6003 170.318 79.8749C169.955 79.1496 169.774 78.2939 169.774 77.3079C169.774 76.3333 169.955 75.4833 170.318 74.7579C170.681 74.0326 171.179 73.4773 171.814 73.0919C172.46 72.7066 173.191 72.5139 174.007 72.5139ZM174.602 74.2139C173.741 74.2139 173.049 74.4916 172.528 75.0469C172.018 75.5909 171.763 76.3446 171.763 77.3079C171.763 78.2713 172.018 79.0306 172.528 79.5859C173.049 80.1299 173.741 80.4019 174.602 80.4019C175.146 80.4019 175.633 80.2773 176.064 80.0279C176.495 79.7673 176.835 79.4046 177.084 78.9399C177.333 78.4753 177.458 77.9313 177.458 77.3079C177.458 76.6959 177.333 76.1576 177.084 75.6929C176.835 75.2169 176.495 74.8543 176.064 74.6049C175.633 74.3443 175.146 74.2139 174.602 74.2139Z" fill="#9EA7B8"/>
<path d="M190.115 70.6949C189.355 70.6609 188.823 70.7856 188.517 71.0689C188.211 71.3409 188.058 71.8113 188.058 72.4799V72.6329H190.115V74.2989H188.058V81.9999H186.103V74.2989H184.828V72.6329H186.103V72.3269C186.103 71.1823 186.437 70.3266 187.106 69.7599C187.774 69.1819 188.777 68.9269 190.115 68.9949V70.6949Z" fill="#9EA7B8"/>
<path d="M195.976 72.5139C196.883 72.5139 197.699 72.7066 198.424 73.0919C199.149 73.4773 199.716 74.0326 200.124 74.7579C200.532 75.4833 200.736 76.3333 200.736 77.3079C200.736 78.2939 200.532 79.1496 200.124 79.8749C199.716 80.6003 199.149 81.1556 198.424 81.5409C197.699 81.9263 196.883 82.1189 195.976 82.1189C195.069 82.1189 194.253 81.9263 193.528 81.5409C192.814 81.1556 192.247 80.6003 191.828 79.8749C191.42 79.1383 191.216 78.2826 191.216 77.3079C191.216 76.3333 191.42 75.4833 191.828 74.7579C192.247 74.0326 192.814 73.4773 193.528 73.0919C194.253 72.7066 195.069 72.5139 195.976 72.5139ZM195.976 74.1969C195.477 74.1969 195.018 74.3103 194.599 74.5369C194.18 74.7636 193.84 75.1149 193.579 75.5909C193.33 76.0556 193.205 76.6279 193.205 77.3079C193.205 77.9993 193.33 78.5773 193.579 79.0419C193.84 79.5066 194.18 79.8523 194.599 80.0789C195.018 80.3056 195.477 80.4189 195.976 80.4189C196.475 80.4189 196.934 80.3056 197.353 80.0789C197.772 79.8523 198.107 79.5066 198.356 79.0419C198.617 78.5773 198.747 77.9993 198.747 77.3079C198.747 76.6279 198.617 76.0556 198.356 75.5909C198.107 75.1149 197.772 74.7636 197.353 74.5369C196.934 74.3103 196.475 74.1969 195.976 74.1969Z" fill="#9EA7B8"/>
<path d="M204.557 74.4689C204.874 73.8569 205.328 73.3753 205.917 73.0239C206.506 72.6613 207.186 72.4799 207.957 72.4799V74.5879H207.379C206.529 74.5879 205.843 74.7976 205.322 75.2169C204.812 75.6249 204.557 76.3049 204.557 77.2569V81.9999H202.619V72.6329H204.557V74.4689Z" fill="#9EA7B8"/>
<path d="M214.538 72.6329L217.343 79.5179L219.944 72.6329H222.103L216.442 86.4539H214.283L216.306 81.7789L212.362 72.6329H214.538Z" fill="#9EA7B8"/>
<path d="M227.681 72.5139C228.588 72.5139 229.404 72.7066 230.129 73.0919C230.854 73.4773 231.421 74.0326 231.829 74.7579C232.237 75.4833 232.441 76.3333 232.441 77.3079C232.441 78.2939 232.237 79.1496 231.829 79.8749C231.421 80.6003 230.854 81.1556 230.129 81.5409C229.404 81.9263 228.588 82.1189 227.681 82.1189C226.774 82.1189 225.958 81.9263 225.233 81.5409C224.519 81.1556 223.952 80.6003 223.533 79.8749C223.125 79.1383 222.921 78.2826 222.921 77.3079C222.921 76.3333 223.125 75.4833 223.533 74.7579C223.952 74.0326 224.519 73.4773 225.233 73.0919C225.958 72.7066 226.774 72.5139 227.681 72.5139ZM227.681 74.1969C227.182 74.1969 226.723 74.3103 226.304 74.5369C225.885 74.7636 225.545 75.1149 225.284 75.5909C225.035 76.0556 224.91 76.6279 224.91 77.3079C224.91 77.9993 225.035 78.5773 225.284 79.0419C225.545 79.5066 225.885 79.8523 226.304 80.0789C226.723 80.3056 227.182 80.4189 227.681 80.4189C228.18 80.4189 228.639 80.3056 229.058 80.0789C229.477 79.8523 229.812 79.5066 230.061 79.0419C230.322 78.5773 230.452 77.9993 230.452 77.3079C230.452 76.6279 230.322 76.0556 230.061 75.5909C229.812 75.1149 229.477 74.7636 229.058 74.5369C228.639 74.3103 228.18 74.1969 227.681 74.1969Z" fill="#9EA7B8"/>
<path d="M242.96 72.6329V81.9999H241.005V79.9599C240.767 80.6513 240.353 81.1896 239.764 81.5749C239.175 81.9489 238.489 82.1359 237.707 82.1359C236.619 82.1359 235.746 81.7846 235.089 81.0819C234.432 80.3793 234.103 79.3763 234.103 78.0729V72.6329H236.041V77.8689C236.041 78.7189 236.256 79.3763 236.687 79.8409C237.118 80.2943 237.707 80.5209 238.455 80.5209C239.226 80.5209 239.843 80.2716 240.308 79.7729C240.773 79.2743 241.005 78.5489 241.005 77.5969V72.6329H242.96Z" fill="#9EA7B8"/>
<path d="M247.239 74.4689C247.556 73.8569 248.009 73.3753 248.599 73.0239C249.188 72.6613 249.868 72.4799 250.639 72.4799V74.5879H250.061C249.211 74.5879 248.525 74.7976 248.004 75.2169C247.494 75.6249 247.239 76.3049 247.239 77.2569V81.9999H245.301V72.6329H247.239V74.4689Z" fill="#9EA7B8"/>
<path d="M261.47 69.8789C262.943 69.8789 264.167 70.2529 265.142 71.0009C266.116 71.7489 266.774 72.7633 267.114 74.0439H265.057C264.773 73.3186 264.32 72.7463 263.697 72.3269C263.085 71.8963 262.331 71.6809 261.436 71.6809C260.722 71.6809 260.081 71.8566 259.515 72.2079C258.959 72.5593 258.517 73.0636 258.189 73.7209C257.871 74.3669 257.713 75.1263 257.713 75.9989C257.713 76.8603 257.871 77.6196 258.189 78.2769C258.517 78.9229 258.959 79.4216 259.515 79.7729C260.081 80.1243 260.722 80.2999 261.436 80.2999C262.331 80.2999 263.085 80.0903 263.697 79.6709C264.32 79.2403 264.773 78.6679 265.057 77.9539H267.114C266.774 79.2346 266.116 80.2489 265.142 80.9969C264.167 81.7336 262.943 82.1019 261.47 82.1019C260.336 82.1019 259.333 81.8469 258.461 81.3369C257.588 80.8156 256.914 80.0959 256.438 79.1779C255.962 78.2486 255.724 77.1889 255.724 75.9989C255.724 74.8089 255.962 73.7549 256.438 72.8369C256.914 71.9076 257.588 71.1823 258.461 70.6609C259.333 70.1396 260.336 69.8789 261.47 69.8789Z" fill="#9EA7B8"/>
<path d="M273.351 72.5139C274.258 72.5139 275.074 72.7066 275.799 73.0919C276.524 73.4773 277.091 74.0326 277.499 74.7579C277.907 75.4833 278.111 76.3333 278.111 77.3079C278.111 78.2939 277.907 79.1496 277.499 79.8749C277.091 80.6003 276.524 81.1556 275.799 81.5409C275.074 81.9263 274.258 82.1189 273.351 82.1189C272.444 82.1189 271.628 81.9263 270.903 81.5409C270.189 81.1556 269.622 80.6003 269.203 79.8749C268.795 79.1383 268.591 78.2826 268.591 77.3079C268.591 76.3333 268.795 75.4833 269.203 74.7579C269.622 74.0326 270.189 73.4773 270.903 73.0919C271.628 72.7066 272.444 72.5139 273.351 72.5139ZM273.351 74.1969C272.852 74.1969 272.393 74.3103 271.974 74.5369C271.555 74.7636 271.215 75.1149 270.954 75.5909C270.705 76.0556 270.58 76.6279 270.58 77.3079C270.58 77.9993 270.705 78.5773 270.954 79.0419C271.215 79.5066 271.555 79.8523 271.974 80.0789C272.393 80.3056 272.852 80.4189 273.351 80.4189C273.85 80.4189 274.309 80.3056 274.728 80.0789C275.147 79.8523 275.482 79.5066 275.731 79.0419C275.992 78.5773 276.122 77.9993 276.122 77.3079C276.122 76.6279 275.992 76.0556 275.731 75.5909C275.482 75.1149 275.147 74.7636 274.728 74.5369C274.309 74.3103 273.85 74.1969 273.351 74.1969Z" fill="#9EA7B8"/>
<path d="M285.23 72.4799C286.318 72.4799 287.191 72.8313 287.848 73.5339C288.505 74.2366 288.834 75.2396 288.834 76.5429V81.9999H286.896V76.7469C286.896 75.9083 286.681 75.2623 286.25 74.8089C285.819 74.3443 285.23 74.1119 284.482 74.1119C283.711 74.1119 283.094 74.3613 282.629 74.8599C282.164 75.3473 281.932 76.0669 281.932 77.0189V81.9999H279.994V72.6329H281.932V74.6899C282.181 73.9873 282.601 73.4433 283.19 73.0579C283.779 72.6726 284.459 72.4799 285.23 72.4799Z" fill="#9EA7B8"/>
<path d="M295.829 80.3169V81.9999H294.639C293.642 81.9999 292.882 81.7619 292.361 81.2859C291.851 80.7986 291.596 79.9939 291.596 78.8719V74.2819H290.253V72.6329H291.596V70.3039H293.551V72.6329H295.812V74.2819H293.551V78.9059C293.551 79.4386 293.647 79.8069 293.84 80.0109C294.044 80.2149 294.395 80.3169 294.894 80.3169H295.829Z" fill="#9EA7B8"/>
<path d="M306.368 76.8659C306.368 77.1833 306.346 77.4609 306.3 77.6989H299.092C299.126 78.6623 299.393 79.3763 299.891 79.8409C300.39 80.3056 301.008 80.5379 301.744 80.5379C302.39 80.5379 302.934 80.3736 303.376 80.0449C303.83 79.7163 304.107 79.2799 304.209 78.7359H306.283C306.159 79.3933 305.898 79.9769 305.501 80.4869C305.105 80.9969 304.589 81.3993 303.954 81.6939C303.32 81.9773 302.611 82.1189 301.829 82.1189C300.923 82.1189 300.118 81.9263 299.415 81.5409C298.724 81.1556 298.18 80.6003 297.783 79.8749C297.387 79.1496 297.188 78.2939 297.188 77.3079C297.188 76.3333 297.387 75.4833 297.783 74.7579C298.18 74.0326 298.724 73.4773 299.415 73.0919C300.118 72.7066 300.923 72.5139 301.829 72.5139C302.747 72.5139 303.546 72.7066 304.226 73.0919C304.918 73.4659 305.445 73.9873 305.807 74.6559C306.181 75.3133 306.368 76.0499 306.368 76.8659ZM304.413 76.8149C304.436 76.2029 304.328 75.6929 304.09 75.2849C303.864 74.8656 303.546 74.5596 303.138 74.3669C302.742 74.1629 302.305 74.0609 301.829 74.0609C301.07 74.0609 300.435 74.2933 299.925 74.7579C299.415 75.2226 299.138 75.9083 299.092 76.8149H304.413Z" fill="#9EA7B8"/>
<path d="M313.495 72.4799C314.583 72.4799 315.456 72.8313 316.113 73.5339C316.77 74.2366 317.099 75.2396 317.099 76.5429V81.9999H315.161V76.7469C315.161 75.9083 314.946 75.2623 314.515 74.8089C314.084 74.3443 313.495 74.1119 312.747 74.1119C311.976 74.1119 311.359 74.3613 310.894 74.8599C310.429 75.3473 310.197 76.0669 310.197 77.0189V81.9999H308.259V72.6329H310.197V74.6899C310.446 73.9873 310.866 73.4433 311.455 73.0579C312.044 72.6726 312.724 72.4799 313.495 72.4799Z" fill="#9EA7B8"/>
<path d="M324.094 80.3169V81.9999H322.904C321.907 81.9999 321.148 81.7619 320.626 81.2859C320.116 80.7986 319.861 79.9939 319.861 78.8719V74.2819H318.518V72.6329H319.861V70.3039H321.816V72.6329H324.077V74.2819H321.816V78.9059C321.816 79.4386 321.913 79.8069 322.105 80.0109C322.309 80.2149 322.661 80.3169 323.159 80.3169H324.094Z" fill="#9EA7B8"/>
<path d="M337.652 69.9979V71.5619H334.303V81.9999H332.348V71.5619H329.016V69.9979H337.652Z" fill="#9EA7B8"/>
<path d="M340.222 72.6329L343.027 79.5179L345.628 72.6329H347.787L342.126 86.4539H339.967L341.99 81.7789L338.046 72.6329H340.222Z" fill="#9EA7B8"/>
<path d="M354.453 72.5139C355.269 72.5139 355.995 72.7066 356.629 73.0919C357.275 73.4773 357.78 74.0326 358.142 74.7579C358.505 75.4833 358.686 76.3333 358.686 77.3079C358.686 78.2939 358.505 79.1496 358.142 79.8749C357.78 80.6003 357.275 81.1556 356.629 81.5409C355.995 81.9263 355.269 82.1189 354.453 82.1189C353.603 82.1189 352.878 81.9093 352.277 81.4899C351.677 81.0706 351.257 80.5153 351.019 79.8239V86.4539H349.081V72.6329H351.019V74.8089C351.257 74.1176 351.677 73.5623 352.277 73.1429C352.878 72.7236 353.603 72.5139 354.453 72.5139ZM353.858 74.2139C353.314 74.2139 352.827 74.3443 352.396 74.6049C351.966 74.8543 351.626 75.2169 351.376 75.6929C351.127 76.1576 351.002 76.6959 351.002 77.3079C351.002 77.9313 351.127 78.4753 351.376 78.9399C351.626 79.4046 351.966 79.7673 352.396 80.0279C352.827 80.2773 353.314 80.4019 353.858 80.4019C354.72 80.4019 355.411 80.1299 355.932 79.5859C356.454 79.0306 356.714 78.2713 356.714 77.3079C356.714 76.3559 356.454 75.6023 355.932 75.0469C355.411 74.4916 354.72 74.2139 353.858 74.2139Z" fill="#9EA7B8"/>
<path d="M369.277 76.8659C369.277 77.1833 369.254 77.4609 369.209 77.6989H362.001C362.035 78.6623 362.301 79.3763 362.8 79.8409C363.298 80.3056 363.916 80.5379 364.653 80.5379C365.299 80.5379 365.843 80.3736 366.285 80.0449C366.738 79.7163 367.016 79.2799 367.118 78.7359H369.192C369.067 79.3933 368.806 79.9769 368.41 80.4869C368.013 80.9969 367.497 81.3993 366.863 81.6939C366.228 81.9773 365.52 82.1189 364.738 82.1189C363.831 82.1189 363.026 81.9263 362.324 81.5409C361.632 81.1556 361.088 80.6003 360.692 79.8749C360.295 79.1496 360.097 78.2939 360.097 77.3079C360.097 76.3333 360.295 75.4833 360.692 74.7579C361.088 74.0326 361.632 73.4773 362.324 73.0919C363.026 72.7066 363.831 72.5139 364.738 72.5139C365.656 72.5139 366.455 72.7066 367.135 73.0919C367.826 73.4659 368.353 73.9873 368.716 74.6559C369.09 75.3133 369.277 76.0499 369.277 76.8659ZM367.322 76.8149C367.344 76.2029 367.237 75.6929 366.999 75.2849C366.772 74.8656 366.455 74.5596 366.047 74.3669C365.65 74.1629 365.214 74.0609 364.738 74.0609C363.978 74.0609 363.344 74.2933 362.834 74.7579C362.324 75.2226 362.046 75.9083 362.001 76.8149H367.322Z" fill="#9EA7B8"/>
<path d="M68 134.067C68 127.403 73.4026 122 80.0669 122H333.933C340.597 122 346 127.403 346 134.067V183.933C346 190.597 340.597 196 333.933 196H80.0669C73.4025 196 68 190.597 68 183.933V134.067Z" fill="#FAFCFF"/>
<path d="M158.235 163.105C158.235 163.645 158.1 164.145 157.83 164.605C157.56 165.055 157.16 165.42 156.63 165.7C156.1 165.97 155.455 166.105 154.695 166.105C153.945 166.105 153.275 165.98 152.685 165.73C152.095 165.47 151.62 165.1 151.26 164.62C150.91 164.14 150.71 163.58 150.66 162.94H152.91C152.96 163.37 153.13 163.73 153.42 164.02C153.72 164.3 154.115 164.44 154.605 164.44C155.045 164.44 155.38 164.325 155.61 164.095C155.85 163.855 155.97 163.55 155.97 163.18C155.97 162.85 155.875 162.58 155.685 162.37C155.495 162.15 155.255 161.975 154.965 161.845C154.675 161.715 154.275 161.565 153.765 161.395C153.105 161.175 152.565 160.96 152.145 160.75C151.725 160.53 151.365 160.215 151.065 159.805C150.775 159.395 150.63 158.86 150.63 158.2C150.63 157.29 150.955 156.575 151.605 156.055C152.265 155.525 153.135 155.26 154.215 155.26C155.335 155.26 156.225 155.53 156.885 156.07C157.555 156.61 157.935 157.33 158.025 158.23H155.745C155.685 157.85 155.525 157.54 155.265 157.3C155.005 157.05 154.65 156.925 154.2 156.925C153.81 156.925 153.495 157.03 153.255 157.24C153.015 157.44 152.895 157.735 152.895 158.125C152.895 158.435 152.985 158.695 153.165 158.905C153.355 159.105 153.59 159.27 153.87 159.4C154.16 159.53 154.55 159.675 155.04 159.835C155.72 160.075 156.27 160.3 156.69 160.51C157.12 160.72 157.485 161.035 157.785 161.455C158.085 161.875 158.235 162.425 158.235 163.105Z" fill="#2E2E8B"/>
<path d="M164.25 164.185V166H163.14C162.21 166 161.495 165.775 160.995 165.325C160.505 164.875 160.26 164.125 160.26 163.075V159.475H159.105V157.69H160.26V155.635H162.375V157.69H164.235V159.475H162.375V163.105C162.375 163.505 162.455 163.785 162.615 163.945C162.775 164.105 163.045 164.185 163.425 164.185H164.25Z" fill="#2E2E8B"/>
<path d="M167.905 159.28C168.215 158.75 168.625 158.335 169.135 158.035C169.645 157.725 170.215 157.57 170.845 157.57V159.835H170.23C168.68 159.835 167.905 160.555 167.905 161.995V166H165.79V157.69H167.905V159.28Z" fill="#2E2E8B"/>
<path d="M171.793 155.305C171.793 154.965 171.913 154.69 172.153 154.48C172.393 154.26 172.708 154.15 173.098 154.15C173.488 154.15 173.803 154.26 174.043 154.48C174.283 154.69 174.403 154.965 174.403 155.305C174.403 155.635 174.283 155.91 174.043 156.13C173.803 156.34 173.488 156.445 173.098 156.445C172.708 156.445 172.393 156.34 172.153 156.13C171.913 155.91 171.793 155.635 171.793 155.305ZM174.148 157.69V166H172.033V157.69H174.148Z" fill="#2E2E8B"/>
<path d="M181.028 157.57C181.988 157.57 182.753 157.885 183.323 158.515C183.893 159.145 184.178 160.03 184.178 161.17V166H182.078V161.41C182.078 160.75 181.908 160.24 181.568 159.88C181.228 159.51 180.763 159.325 180.173 159.325C179.573 159.325 179.093 159.52 178.733 159.91C178.373 160.3 178.193 160.86 178.193 161.59V166H176.078V157.69H178.193V159.355C178.413 158.795 178.773 158.36 179.273 158.05C179.783 157.73 180.368 157.57 181.028 157.57Z" fill="#2E2E8B"/>
<path d="M189.312 157.585C190.012 157.585 190.612 157.75 191.112 158.08C191.612 158.41 191.967 158.855 192.177 159.415V157.69H194.277V166.03C194.277 166.8 194.122 167.49 193.812 168.1C193.512 168.72 193.057 169.205 192.447 169.555C191.847 169.905 191.117 170.08 190.257 170.08C189.057 170.08 188.087 169.795 187.347 169.225C186.607 168.655 186.157 167.88 185.997 166.9H188.082C188.202 167.32 188.432 167.645 188.772 167.875C189.122 168.115 189.567 168.235 190.107 168.235C190.727 168.235 191.227 168.05 191.607 167.68C191.987 167.32 192.177 166.77 192.177 166.03V164.26C191.967 164.82 191.612 165.27 191.112 165.61C190.612 165.94 190.012 166.105 189.312 166.105C188.612 166.105 187.982 165.935 187.422 165.595C186.862 165.255 186.422 164.765 186.102 164.125C185.792 163.475 185.637 162.715 185.637 161.845C185.637 160.975 185.792 160.22 186.102 159.58C186.422 158.93 186.862 158.435 187.422 158.095C187.982 157.755 188.612 157.585 189.312 157.585ZM189.972 159.43C189.312 159.43 188.782 159.645 188.382 160.075C187.982 160.505 187.782 161.095 187.782 161.845C187.782 162.595 187.982 163.185 188.382 163.615C188.782 164.035 189.312 164.245 189.972 164.245C190.612 164.245 191.137 164.03 191.547 163.6C191.967 163.16 192.177 162.575 192.177 161.845C192.177 161.105 191.967 160.52 191.547 160.09C191.137 159.65 190.612 159.43 189.972 159.43Z" fill="#2E2E8B"/>
<path d="M84 146C84 141.582 87.5817 138 92 138H125C129.418 138 133 141.582 133 146V172C133 176.418 129.418 180 125 180H92C87.5817 180 84 176.418 84 172V146Z" fill="#FEE894"/>
<path d="M106.013 160.451L104.869 157.324C104.812 157.186 104.754 157.021 104.693 156.83C104.633 156.64 104.572 156.434 104.511 156.213C104.455 156.434 104.396 156.642 104.336 156.837C104.275 157.027 104.217 157.194 104.16 157.337L103.023 160.451H106.013ZM109.1 164H107.748C107.597 164 107.473 163.963 107.378 163.889C107.282 163.811 107.211 163.716 107.163 163.603L106.461 161.686H102.568L101.866 163.603C101.831 163.703 101.764 163.794 101.664 163.876C101.565 163.959 101.441 164 101.294 164H99.9287L103.627 154.601H105.408L109.1 164Z" fill="#2F2E8B"/>
<path d="M112.112 162.271C112.294 162.492 112.492 162.648 112.704 162.739C112.921 162.83 113.148 162.875 113.386 162.875C113.633 162.875 113.854 162.832 114.049 162.745C114.249 162.654 114.418 162.516 114.556 162.329C114.695 162.139 114.801 161.898 114.875 161.608C114.949 161.313 114.985 160.962 114.985 160.555C114.985 159.822 114.864 159.294 114.621 158.969C114.379 158.639 114.03 158.475 113.575 158.475C113.267 158.475 112.999 158.546 112.769 158.689C112.539 158.828 112.32 159.025 112.112 159.281V162.271ZM112.112 158.15C112.381 157.868 112.678 157.645 113.003 157.48C113.332 157.311 113.707 157.227 114.127 157.227C114.513 157.227 114.86 157.303 115.167 157.454C115.479 157.606 115.744 157.825 115.96 158.111C116.181 158.392 116.35 158.735 116.467 159.138C116.584 159.541 116.643 159.994 116.643 160.496C116.643 161.038 116.576 161.53 116.441 161.972C116.307 162.414 116.114 162.793 115.863 163.109C115.616 163.421 115.317 163.664 114.966 163.837C114.615 164.011 114.225 164.097 113.796 164.097C113.588 164.097 113.399 164.076 113.23 164.032C113.061 163.993 112.905 163.937 112.762 163.863C112.619 163.79 112.487 163.701 112.366 163.597C112.249 163.488 112.136 163.369 112.028 163.239L111.956 163.688C111.93 163.8 111.885 163.881 111.82 163.928C111.759 163.976 111.675 164 111.566 164H110.507V154.341H112.112V158.15Z" fill="#2F2E8B"/>
<path d="M370 134.067C370 127.403 375.403 122 382.067 122H635.933C642.597 122 648 127.403 648 134.067V183.933C648 190.597 642.597 196 635.933 196H382.067C375.403 196 370 190.597 370 183.933V134.067Z" fill="#FAFCFF"/>
<path d="M460.16 155.41V157.09H457.235V166H455.12V157.09H452.21V155.41H460.16Z" fill="#2E2E8B"/>
<path d="M469.157 161.53C469.157 161.74 469.132 161.98 469.082 162.25H462.992C463.022 162.99 463.222 163.535 463.592 163.885C463.962 164.235 464.422 164.41 464.972 164.41C465.462 164.41 465.867 164.29 466.187 164.05C466.517 163.81 466.727 163.485 466.817 163.075H469.052C468.942 163.655 468.707 164.175 468.347 164.635C467.987 165.095 467.522 165.455 466.952 165.715C466.392 165.975 465.767 166.105 465.077 166.105C464.267 166.105 463.547 165.935 462.917 165.595C462.287 165.245 461.797 164.75 461.447 164.11C461.097 163.47 460.922 162.715 460.922 161.845C460.922 160.975 461.097 160.22 461.447 159.58C461.797 158.93 462.287 158.435 462.917 158.095C463.547 157.755 464.267 157.585 465.077 157.585C465.897 157.585 466.612 157.755 467.222 158.095C467.842 158.435 468.317 158.905 468.647 159.505C468.987 160.095 469.157 160.77 469.157 161.53ZM467.027 161.32C467.057 160.64 466.877 160.125 466.487 159.775C466.107 159.425 465.637 159.25 465.077 159.25C464.507 159.25 464.027 159.425 463.637 159.775C463.247 160.125 463.032 160.64 462.992 161.32H467.027Z" fill="#2E2E8B"/>
<path d="M475.73 166L473.84 163.33L472.25 166H469.925L472.67 161.665L469.865 157.69H472.235L474.08 160.315L475.67 157.69H477.995L475.205 161.905L478.1 166H475.73Z" fill="#2E2E8B"/>
<path d="M483.644 164.185V166H482.534C481.604 166 480.889 165.775 480.389 165.325C479.899 164.875 479.654 164.125 479.654 163.075V159.475H478.499V157.69H479.654V155.635H481.769V157.69H483.629V159.475H481.769V163.105C481.769 163.505 481.849 163.785 482.009 163.945C482.169 164.105 482.439 164.185 482.819 164.185H483.644Z" fill="#2E2E8B"/>
<path d="M386 146C386 141.582 389.582 138 394 138H427C431.418 138 435 141.582 435 146V172C435 176.418 431.418 180 427 180H394C389.582 180 386 176.418 386 172V146Z" fill="#FEE894"/>
<path fill-rule="evenodd" clip-rule="evenodd" d="M416.071 155.857V155C416.071 154.884 416.025 154.783 415.934 154.699C415.842 154.614 415.733 154.571 415.607 154.571H404.464C404.339 154.571 404.23 154.614 404.138 154.699C404.046 154.783 404 154.884 404 155V155.857C404 155.973 404.046 156.074 404.138 156.158C404.23 156.243 404.339 156.286 404.464 156.286H415.607C415.733 156.286 415.842 156.243 415.934 156.158C416.025 156.074 416.071 155.973 416.071 155.857ZM414.214 158.571V159.428C414.214 159.545 414.168 159.645 414.076 159.73C413.985 159.815 413.876 159.857 413.75 159.857H404.464C404.339 159.857 404.23 159.815 404.138 159.73C404.046 159.645 404 159.545 404 159.428V158.571C404 158.455 404.046 158.355 404.138 158.27C404.23 158.185 404.339 158.143 404.464 158.143H413.75C413.876 158.143 413.985 158.185 414.076 158.27C414.168 158.355 414.214 158.455 414.214 158.571ZM417 162.143V163C417 163.116 416.954 163.216 416.862 163.301C416.77 163.386 416.661 163.428 416.536 163.428H404.464C404.339 163.428 404.23 163.386 404.138 163.301C404.046 163.216 404 163.116 404 163V162.143C404 162.027 404.046 161.926 404.138 161.841C404.23 161.757 404.339 161.714 404.464 161.714H416.536C416.661 161.714 416.77 161.757 416.862 161.841C416.954 161.926 417 162.027 417 162.143Z" fill="#2E2E8B"/>
<path d="M370 224.067C370 217.403 375.403 212 382.067 212H635.933C642.597 212 648 217.403 648 224.067V273.933C648 280.597 642.597 286 635.933 286H382.067C375.403 286 370 280.597 370 273.933V224.067Z" fill="#FAFCFF"/>
<path d="M458.87 250.54C459.51 250.67 460.02 250.975 460.4 251.455C460.79 251.925 460.985 252.48 460.985 253.12C460.985 254.01 460.685 254.715 460.085 255.235C459.495 255.745 458.635 256 457.505 256H452.96V245.41H457.415C458.485 245.41 459.305 245.645 459.875 246.115C460.455 246.585 460.745 247.245 460.745 248.095C460.745 248.755 460.57 249.295 460.22 249.715C459.88 250.135 459.43 250.41 458.87 250.54ZM455.075 249.85H456.98C457.51 249.85 457.91 249.735 458.18 249.505C458.46 249.265 458.6 248.925 458.6 248.485C458.6 248.045 458.465 247.705 458.195 247.465C457.925 247.225 457.51 247.105 456.95 247.105H455.075V249.85ZM457.085 254.275C457.645 254.275 458.075 254.155 458.375 253.915C458.675 253.665 458.825 253.305 458.825 252.835C458.825 252.365 458.67 252.005 458.36 251.755C458.06 251.495 457.63 251.365 457.07 251.365H455.075V254.275H457.085Z" fill="#2E2E8B"/>
<path d="M466.324 247.585C467.134 247.585 467.859 247.755 468.499 248.095C469.149 248.435 469.659 248.93 470.029 249.58C470.399 250.22 470.584 250.975 470.584 251.845C470.584 252.715 470.399 253.47 470.029 254.11C469.659 254.75 469.149 255.245 468.499 255.595C467.859 255.935 467.134 256.105 466.324 256.105C465.514 256.105 464.784 255.935 464.134 255.595C463.494 255.245 462.989 254.75 462.619 254.11C462.249 253.47 462.064 252.715 462.064 251.845C462.064 250.975 462.249 250.22 462.619 249.58C462.989 248.93 463.494 248.435 464.134 248.095C464.784 247.755 465.514 247.585 466.324 247.585ZM466.324 249.415C465.734 249.415 465.234 249.625 464.824 250.045C464.414 250.455 464.209 251.055 464.209 251.845C464.209 252.635 464.414 253.24 464.824 253.66C465.234 254.07 465.734 254.275 466.324 254.275C466.914 254.275 467.414 254.07 467.824 253.66C468.234 253.24 468.439 252.635 468.439 251.845C468.439 251.055 468.234 250.455 467.824 250.045C467.414 249.625 466.914 249.415 466.324 249.415Z" fill="#2E2E8B"/>
<path d="M475.936 247.585C476.746 247.585 477.471 247.755 478.111 248.095C478.761 248.435 479.271 248.93 479.641 249.58C480.011 250.22 480.196 250.975 480.196 251.845C480.196 252.715 480.011 253.47 479.641 254.11C479.271 254.75 478.761 255.245 478.111 255.595C477.471 255.935 476.746 256.105 475.936 256.105C475.126 256.105 474.396 255.935 473.746 255.595C473.106 255.245 472.601 254.75 472.231 254.11C471.861 253.47 471.676 252.715 471.676 251.845C471.676 250.975 471.861 250.22 472.231 249.58C472.601 248.93 473.106 248.435 473.746 248.095C474.396 247.755 475.126 247.585 475.936 247.585ZM475.936 249.415C475.346 249.415 474.846 249.625 474.436 250.045C474.026 250.455 473.821 251.055 473.821 251.845C473.821 252.635 474.026 253.24 474.436 253.66C474.846 254.07 475.346 254.275 475.936 254.275C476.526 254.275 477.026 254.07 477.436 253.66C477.846 253.24 478.051 252.635 478.051 251.845C478.051 251.055 477.846 250.455 477.436 250.045C477.026 249.625 476.526 249.415 475.936 249.415Z" fill="#2E2E8B"/>
<path d="M483.823 244.9V256H481.708V244.9H483.823Z" fill="#2E2E8B"/>
<path d="M493.569 251.53C493.569 251.74 493.544 251.98 493.494 252.25H487.404C487.434 252.99 487.634 253.535 488.004 253.885C488.374 254.235 488.834 254.41 489.384 254.41C489.874 254.41 490.279 254.29 490.599 254.05C490.929 253.81 491.139 253.485 491.229 253.075H493.464C493.354 253.655 493.119 254.175 492.759 254.635C492.399 255.095 491.934 255.455 491.364 255.715C490.804 255.975 490.179 256.105 489.489 256.105C488.679 256.105 487.959 255.935 487.329 255.595C486.699 255.245 486.209 254.75 485.859 254.11C485.509 253.47 485.334 252.715 485.334 251.845C485.334 250.975 485.509 250.22 485.859 249.58C486.209 248.93 486.699 248.435 487.329 248.095C487.959 247.755 488.679 247.585 489.489 247.585C490.309 247.585 491.024 247.755 491.634 248.095C492.254 248.435 492.729 248.905 493.059 249.505C493.399 250.095 493.569 250.77 493.569 251.53ZM491.439 251.32C491.469 250.64 491.289 250.125 490.899 249.775C490.519 249.425 490.049 249.25 489.489 249.25C488.919 249.25 488.439 249.425 488.049 249.775C487.659 250.125 487.444 250.64 487.404 251.32H491.439Z" fill="#2E2E8B"/>
<path d="M498.343 247.585C499.043 247.585 499.643 247.75 500.143 248.08C500.643 248.41 500.998 248.855 501.208 249.415V247.69H503.308V256H501.208V254.26C500.998 254.82 500.643 255.27 500.143 255.61C499.643 255.94 499.043 256.105 498.343 256.105C497.643 256.105 497.013 255.935 496.453 255.595C495.893 255.255 495.453 254.765 495.133 254.125C494.823 253.475 494.668 252.715 494.668 251.845C494.668 250.975 494.823 250.22 495.133 249.58C495.453 248.93 495.893 248.435 496.453 248.095C497.013 247.755 497.643 247.585 498.343 247.585ZM499.003 249.43C498.343 249.43 497.813 249.645 497.413 250.075C497.013 250.505 496.813 251.095 496.813 251.845C496.813 252.595 497.013 253.185 497.413 253.615C497.813 254.035 498.343 254.245 499.003 254.245C499.643 254.245 500.168 254.03 500.578 253.6C500.998 253.16 501.208 252.575 501.208 251.845C501.208 251.105 500.998 250.52 500.578 250.09C500.168 249.65 499.643 249.43 499.003 249.43Z" fill="#2E2E8B"/>
<path d="M510.192 247.57C511.152 247.57 511.917 247.885 512.487 248.515C513.057 249.145 513.342 250.03 513.342 251.17V256H511.242V251.41C511.242 250.75 511.072 250.24 510.732 249.88C510.392 249.51 509.927 249.325 509.337 249.325C508.737 249.325 508.257 249.52 507.897 249.91C507.537 250.3 507.357 250.86 507.357 251.59V256H505.242V247.69H507.357V249.355C507.577 248.795 507.937 248.36 508.437 248.05C508.947 247.73 509.532 247.57 510.192 247.57Z" fill="#2E2E8B"/>
<path d="M386 236C386 231.582 389.582 228 394 228H427C431.418 228 435 231.582 435 236V262C435 266.418 431.418 270 427 270H394C389.582 270 386 266.418 386 262V236Z" fill="#FD798C"/>
<path fill-rule="evenodd" clip-rule="evenodd" d="M415 245H406C403.791 245 402 246.791 402 249C402 251.209 403.791 253 406 253H415C417.209 253 419 251.209 419 249C419 246.791 417.209 245 415 245ZM406 244C403.239 244 401 246.239 401 249C401 251.761 403.239 254 406 254H415C417.761 254 420 251.761 420 249C420 246.239 417.761 244 415 244H406Z" fill="#2E2E8B"/>
<path d="M403 249C403 247.343 404.343 246 406 246V246C407.657 246 409 247.343 409 249V249C409 250.657 407.657 252 406 252V252C404.343 252 403 250.657 403 249V249Z" fill="#2E2E8B"/>
<path d="M370 314.067C370 307.403 375.403 302 382.067 302H635.933C642.597 302 648 307.403 648 314.067V363.933C648 370.597 642.597 376 635.933 376H382.067C375.403 376 370 370.597 370 363.933V314.067Z" fill="#FAFCFF"/>
<path d="M455.075 337.09V339.835H458.825V341.455H455.075V344.305H459.275V346H452.96V335.41H459.275V337.09H455.075Z" fill="#2E2E8B"/>
<path d="M471.433 337.57C472.443 337.57 473.238 337.885 473.818 338.515C474.408 339.135 474.703 340.02 474.703 341.17V346H472.603V341.41C472.603 340.77 472.438 340.28 472.108 339.94C471.788 339.59 471.343 339.415 470.773 339.415C470.183 339.415 469.713 339.6 469.363 339.97C469.013 340.34 468.838 340.88 468.838 341.59V346H466.738V341.41C466.738 340.77 466.573 340.28 466.243 339.94C465.923 339.59 465.478 339.415 464.908 339.415C464.318 339.415 463.848 339.6 463.498 339.97C463.148 340.34 462.973 340.88 462.973 341.59V346H460.858V337.69H462.973V339.265C463.193 338.725 463.538 338.31 464.008 338.02C464.488 337.72 465.043 337.57 465.673 337.57C466.343 337.57 466.923 337.73 467.413 338.05C467.913 338.37 468.288 338.83 468.538 339.43C468.798 338.86 469.183 338.41 469.693 338.08C470.213 337.74 470.793 337.57 471.433 337.57Z" fill="#2E2E8B"/>
<path d="M479.834 337.585C480.534 337.585 481.134 337.75 481.634 338.08C482.134 338.41 482.489 338.855 482.699 339.415V337.69H484.799V346H482.699V344.26C482.489 344.82 482.134 345.27 481.634 345.61C481.134 345.94 480.534 346.105 479.834 346.105C479.134 346.105 478.504 345.935 477.944 345.595C477.384 345.255 476.944 344.765 476.624 344.125C476.314 343.475 476.159 342.715 476.159 341.845C476.159 340.975 476.314 340.22 476.624 339.58C476.944 338.93 477.384 338.435 477.944 338.095C478.504 337.755 479.134 337.585 479.834 337.585ZM480.494 339.43C479.834 339.43 479.304 339.645 478.904 340.075C478.504 340.505 478.304 341.095 478.304 341.845C478.304 342.595 478.504 343.185 478.904 343.615C479.304 344.035 479.834 344.245 480.494 344.245C481.134 344.245 481.659 344.03 482.069 343.6C482.489 343.16 482.699 342.575 482.699 341.845C482.699 341.105 482.489 340.52 482.069 340.09C481.659 339.65 481.134 339.43 480.494 339.43Z" fill="#2E2E8B"/>
<path d="M486.493 335.305C486.493 334.965 486.613 334.69 486.853 334.48C487.093 334.26 487.408 334.15 487.798 334.15C488.188 334.15 488.503 334.26 488.743 334.48C488.983 334.69 489.103 334.965 489.103 335.305C489.103 335.635 488.983 335.91 488.743 336.13C488.503 336.34 488.188 336.445 487.798 336.445C487.408 336.445 487.093 336.34 486.853 336.13C486.613 335.91 486.493 335.635 486.493 335.305ZM488.848 337.69V346H486.733V337.69H488.848Z" fill="#2E2E8B"/>
<path d="M492.894 334.9V346H490.779V334.9H492.894Z" fill="#2E2E8B"/>
<path d="M386 326C386 321.582 389.582 318 394 318H427C431.418 318 435 321.582 435 326V352C435 356.418 431.418 360 427 360H394C389.582 360 386 356.418 386 352V326Z" fill="#80EBFF"/>
<path d="M412.261 337.782C412.069 337.746 411.871 337.728 411.667 337.728C411.295 337.728 410.947 337.809 410.623 337.971C410.299 338.133 410.017 338.352 409.777 338.628C409.543 338.904 409.357 339.222 409.219 339.582C409.081 339.936 409.012 340.305 409.012 340.689C409.012 341.073 409.093 341.373 409.255 341.589C409.423 341.799 409.666 341.904 409.984 341.904C410.14 341.904 410.296 341.88 410.452 341.832C410.614 341.784 410.767 341.7 410.911 341.58C411.055 341.454 411.187 341.289 411.307 341.085C411.427 340.881 411.526 340.626 411.604 340.32L412.261 337.782ZM413.314 340.086C413.218 340.47 413.17 340.785 413.17 341.031C413.176 341.271 413.215 341.463 413.287 341.607C413.359 341.745 413.461 341.841 413.593 341.895C413.725 341.949 413.875 341.976 414.043 341.976C414.295 341.976 414.532 341.898 414.754 341.742C414.982 341.58 415.18 341.355 415.348 341.067C415.516 340.779 415.648 340.437 415.744 340.041C415.846 339.645 415.897 339.213 415.897 338.745C415.897 337.965 415.774 337.278 415.528 336.684C415.288 336.09 414.949 335.595 414.511 335.199C414.073 334.797 413.551 334.497 412.945 334.299C412.345 334.095 411.685 333.993 410.965 333.993C410.173 333.993 409.441 334.143 408.769 334.443C408.097 334.737 407.512 335.142 407.014 335.658C406.522 336.174 406.135 336.783 405.853 337.485C405.577 338.187 405.439 338.943 405.439 339.753C405.439 340.737 405.592 341.604 405.898 342.354C406.204 343.098 406.624 343.722 407.158 344.226C407.692 344.724 408.319 345.099 409.039 345.351C409.765 345.603 410.548 345.729 411.388 345.729C411.85 345.729 412.282 345.702 412.684 345.648C413.086 345.6 413.455 345.531 413.791 345.441C414.127 345.357 414.433 345.258 414.709 345.144C414.985 345.036 415.231 344.919 415.447 344.793C415.603 344.703 415.741 344.676 415.861 344.712C415.981 344.748 416.068 344.838 416.122 344.982L416.428 345.783C415.804 346.191 415.075 346.524 414.241 346.782C413.407 347.04 412.456 347.169 411.388 347.169C410.302 347.169 409.297 346.998 408.373 346.656C407.449 346.314 406.648 345.822 405.97 345.18C405.298 344.544 404.77 343.767 404.386 342.849C404.008 341.931 403.819 340.899 403.819 339.753C403.819 339.111 403.9 338.487 404.062 337.881C404.23 337.275 404.467 336.708 404.773 336.18C405.079 335.646 405.448 335.157 405.88 334.713C406.312 334.269 406.792 333.888 407.32 333.57C407.848 333.252 408.418 333.006 409.03 332.832C409.648 332.652 410.293 332.562 410.965 332.562C411.817 332.562 412.633 332.706 413.413 332.994C414.199 333.276 414.892 333.684 415.492 334.218C416.098 334.746 416.581 335.394 416.941 336.162C417.301 336.924 417.481 337.785 417.481 338.745C417.481 339.387 417.385 339.99 417.193 340.554C417.007 341.112 416.743 341.598 416.401 342.012C416.065 342.426 415.666 342.753 415.204 342.993C414.748 343.227 414.25 343.344 413.71 343.344C413.296 343.344 412.93 343.248 412.612 343.056C412.294 342.864 412.075 342.555 411.955 342.129C411.601 342.561 411.226 342.87 410.83 343.056C410.434 343.242 410.005 343.335 409.543 343.335C409.165 343.335 408.835 343.269 408.553 343.137C408.277 343.005 408.043 342.825 407.851 342.597C407.665 342.363 407.524 342.09 407.428 341.778C407.338 341.46 407.293 341.115 407.293 340.743C407.293 340.401 407.335 340.056 407.419 339.708C407.509 339.354 407.641 339.015 407.815 338.691C407.989 338.361 408.205 338.055 408.463 337.773C408.727 337.485 409.033 337.236 409.381 337.026C409.735 336.81 410.131 336.642 410.569 336.522C411.013 336.396 411.499 336.333 412.027 336.333C412.495 336.333 412.894 336.369 413.224 336.441C413.554 336.513 413.872 336.615 414.178 336.747L413.314 340.086Z" fill="#2E2E8B"/>
<path d="M370 404.067C370 397.403 375.403 392 382.067 392H635.933C642.597 392 648 397.403 648 404.067V453.933C648 460.597 642.597 466 635.933 466H382.067C375.403 466 370 460.597 370 453.933V404.067Z" fill="#FAFCFF"/>
<path d="M458.975 425.41V432.88C458.975 433.9 458.69 434.695 458.12 435.265C457.56 435.825 456.78 436.105 455.78 436.105C454.7 436.105 453.845 435.795 453.215 435.175C452.585 434.555 452.27 433.67 452.27 432.52H454.355C454.355 433.06 454.465 433.475 454.685 433.765C454.915 434.055 455.25 434.2 455.69 434.2C456.09 434.2 456.385 434.085 456.575 433.855C456.765 433.615 456.86 433.29 456.86 432.88V425.41H458.975Z" fill="#2E2E8B"/>
<path d="M468.119 433.105C468.119 433.645 467.984 434.145 467.714 434.605C467.444 435.055 467.044 435.42 466.514 435.7C465.984 435.97 465.339 436.105 464.579 436.105C463.829 436.105 463.159 435.98 462.569 435.73C461.979 435.47 461.504 435.1 461.144 434.62C460.794 434.14 460.594 433.58 460.544 432.94H462.794C462.844 433.37 463.014 433.73 463.304 434.02C463.604 434.3 463.999 434.44 464.489 434.44C464.929 434.44 465.264 434.325 465.494 434.095C465.734 433.855 465.854 433.55 465.854 433.18C465.854 432.85 465.759 432.58 465.569 432.37C465.379 432.15 465.139 431.975 464.849 431.845C464.559 431.715 464.159 431.565 463.649 431.395C462.989 431.175 462.449 430.96 462.029 430.75C461.609 430.53 461.249 430.215 460.949 429.805C460.659 429.395 460.514 428.86 460.514 428.2C460.514 427.29 460.839 426.575 461.489 426.055C462.149 425.525 463.019 425.26 464.099 425.26C465.219 425.26 466.109 425.53 466.769 426.07C467.439 426.61 467.819 427.33 467.909 428.23H465.629C465.569 427.85 465.409 427.54 465.149 427.3C464.889 427.05 464.534 426.925 464.084 426.925C463.694 426.925 463.379 427.03 463.139 427.24C462.899 427.44 462.779 427.735 462.779 428.125C462.779 428.435 462.869 428.695 463.049 428.905C463.239 429.105 463.474 429.27 463.754 429.4C464.044 429.53 464.434 429.675 464.924 429.835C465.604 430.075 466.154 430.3 466.574 430.51C467.004 430.72 467.369 431.035 467.669 431.455C467.969 431.875 468.119 432.425 468.119 433.105Z" fill="#2E2E8B"/>
<path d="M474.659 425.26C475.649 425.26 476.544 425.49 477.344 425.95C478.154 426.41 478.789 427.055 479.249 427.885C479.719 428.705 479.954 429.635 479.954 430.675C479.954 431.715 479.719 432.65 479.249 433.48C478.789 434.31 478.154 434.955 477.344 435.415C476.544 435.875 475.649 436.105 474.659 436.105C473.669 436.105 472.769 435.875 471.959 435.415C471.159 434.955 470.524 434.31 470.054 433.48C469.594 432.65 469.364 431.715 469.364 430.675C469.364 429.635 469.594 428.705 470.054 427.885C470.524 427.055 471.159 426.41 471.959 425.95C472.769 425.49 473.669 425.26 474.659 425.26ZM474.659 427.21C474.039 427.21 473.494 427.35 473.024 427.63C472.554 427.91 472.184 428.315 471.914 428.845C471.654 429.365 471.524 429.975 471.524 430.675C471.524 431.375 471.654 431.99 471.914 432.52C472.184 433.04 472.554 433.44 473.024 433.72C473.494 434 474.039 434.14 474.659 434.14C475.279 434.14 475.824 434 476.294 433.72C476.764 433.44 477.129 433.04 477.389 432.52C477.659 431.99 477.794 431.375 477.794 430.675C477.794 429.975 477.659 429.365 477.389 428.845C477.129 428.315 476.764 427.91 476.294 427.63C475.824 427.35 475.279 427.21 474.659 427.21Z" fill="#2E2E8B"/>
<path d="M490.532 436H488.417L483.677 428.8V436H481.562V425.41H483.677L488.417 432.67V425.41H490.532V436Z" fill="#2E2E8B"/>
<path d="M386 416C386 411.582 389.582 408 394 408H427C431.418 408 435 411.582 435 416V442C435 446.418 431.418 450 427 450H394C389.582 450 386 446.418 386 442V416Z" fill="#B195FF"/>
<path d="M401.873 424.462C401.873 424.526 401.859 424.58 401.831 424.624C401.803 424.668 401.769 424.704 401.729 424.732C401.689 424.76 401.647 424.782 401.603 424.798C401.559 424.81 401.521 424.816 401.489 424.816C401.237 424.816 401.051 424.894 400.931 425.05C400.815 425.206 400.757 425.422 400.757 425.698C400.757 425.918 400.765 426.126 400.781 426.322C400.801 426.518 400.821 426.708 400.841 426.892C400.861 427.072 400.879 427.25 400.895 427.426C400.915 427.602 400.925 427.78 400.925 427.96C400.925 428.112 400.905 428.258 400.865 428.398C400.825 428.538 400.763 428.668 400.679 428.788C400.599 428.904 400.499 429.006 400.379 429.094C400.259 429.182 400.121 429.25 399.965 429.298C400.121 429.346 400.259 429.416 400.379 429.508C400.499 429.596 400.599 429.7 400.679 429.82C400.763 429.936 400.825 430.066 400.865 430.21C400.905 430.35 400.925 430.494 400.925 430.642C400.925 430.822 400.915 431 400.895 431.176C400.879 431.352 400.861 431.532 400.841 431.716C400.821 431.896 400.801 432.084 400.781 432.28C400.765 432.476 400.757 432.684 400.757 432.904C400.757 433.18 400.815 433.396 400.931 433.552C401.051 433.708 401.237 433.786 401.489 433.786C401.521 433.786 401.559 433.792 401.603 433.804C401.647 433.82 401.689 433.842 401.729 433.87C401.769 433.898 401.803 433.934 401.831 433.978C401.859 434.022 401.873 434.076 401.873 434.14V434.944H401.561C401.137 434.944 400.773 434.892 400.469 434.788C400.165 434.688 399.913 434.542 399.713 434.35C399.517 434.162 399.371 433.936 399.275 433.672C399.183 433.408 399.137 433.114 399.137 432.79C399.137 432.606 399.147 432.422 399.167 432.238C399.191 432.054 399.217 431.872 399.245 431.692C399.273 431.512 399.297 431.332 399.317 431.152C399.341 430.972 399.353 430.794 399.353 430.618C399.353 430.378 399.307 430.186 399.215 430.042C399.123 429.894 398.957 429.82 398.717 429.82V428.782C398.837 428.782 398.937 428.762 399.017 428.722C399.101 428.682 399.167 428.628 399.215 428.56C399.263 428.488 399.297 428.404 399.317 428.308C399.341 428.208 399.353 428.1 399.353 427.984C399.353 427.808 399.341 427.63 399.317 427.45C399.297 427.27 399.273 427.09 399.245 426.91C399.217 426.73 399.191 426.548 399.167 426.364C399.147 426.18 399.137 425.996 399.137 425.812C399.137 425.488 399.183 425.194 399.275 424.93C399.371 424.662 399.517 424.434 399.713 424.246C399.913 424.058 400.165 423.914 400.469 423.814C400.773 423.71 401.137 423.658 401.561 423.658H401.873V424.462Z" fill="#2E2E8B"/>
<path d="M422.282 429.82C422.042 429.82 421.876 429.894 421.784 430.042C421.692 430.186 421.646 430.378 421.646 430.618C421.646 430.794 421.656 430.972 421.676 431.152C421.7 431.332 421.726 431.512 421.754 431.692C421.782 431.872 421.806 432.054 421.826 432.238C421.85 432.422 421.862 432.606 421.862 432.79C421.862 433.114 421.814 433.408 421.718 433.672C421.626 433.936 421.48 434.162 421.28 434.35C421.084 434.542 420.834 434.688 420.53 434.788C420.226 434.892 419.862 434.944 419.438 434.944H419.126V434.14C419.126 434.076 419.14 434.022 419.168 433.978C419.196 433.934 419.23 433.898 419.27 433.87C419.31 433.842 419.352 433.82 419.396 433.804C419.44 433.792 419.478 433.786 419.51 433.786C419.762 433.786 419.946 433.708 420.062 433.552C420.182 433.396 420.242 433.18 420.242 432.904C420.242 432.684 420.232 432.476 420.212 432.28C420.196 432.084 420.178 431.896 420.158 431.716C420.138 431.532 420.118 431.352 420.098 431.176C420.082 431 420.074 430.822 420.074 430.642C420.074 430.494 420.094 430.35 420.134 430.21C420.174 430.066 420.234 429.936 420.314 429.82C420.398 429.7 420.5 429.596 420.62 429.508C420.74 429.416 420.878 429.346 421.034 429.298C420.878 429.25 420.74 429.182 420.62 429.094C420.5 429.006 420.398 428.904 420.314 428.788C420.234 428.668 420.174 428.538 420.134 428.398C420.094 428.258 420.074 428.112 420.074 427.96C420.074 427.78 420.082 427.602 420.098 427.426C420.118 427.25 420.138 427.072 420.158 426.892C420.178 426.708 420.196 426.518 420.212 426.322C420.232 426.126 420.242 425.918 420.242 425.698C420.242 425.422 420.182 425.206 420.062 425.05C419.946 424.894 419.762 424.816 419.51 424.816C419.478 424.816 419.44 424.81 419.396 424.798C419.352 424.782 419.31 424.76 419.27 424.732C419.23 424.704 419.196 424.668 419.168 424.624C419.14 424.58 419.126 424.526 419.126 424.462V423.658H419.438C419.862 423.658 420.226 423.71 420.53 423.814C420.834 423.914 421.084 424.058 421.28 424.246C421.48 424.434 421.626 424.662 421.718 424.93C421.814 425.194 421.862 425.488 421.862 425.812C421.862 425.996 421.85 426.18 421.826 426.364C421.806 426.548 421.782 426.73 421.754 426.91C421.726 427.09 421.7 427.27 421.676 427.45C421.656 427.63 421.646 427.808 421.646 427.984C421.646 428.1 421.656 428.208 421.676 428.308C421.7 428.404 421.736 428.488 421.784 428.56C421.832 428.628 421.896 428.682 421.976 428.722C422.06 428.762 422.162 428.782 422.282 428.782V429.82Z" fill="#2E2E8B"/>
<path d="M406.387 429.184C406.387 429.06 406.409 428.942 406.453 428.83C406.501 428.718 406.565 428.622 406.645 428.542C406.725 428.462 406.821 428.398 406.933 428.35C407.045 428.302 407.165 428.278 407.293 428.278C407.421 428.278 407.539 428.302 407.647 428.35C407.759 428.398 407.855 428.462 407.935 428.542C408.019 428.622 408.085 428.718 408.133 428.83C408.181 428.942 408.205 429.06 408.205 429.184C408.205 429.312 408.181 429.432 408.133 429.544C408.085 429.652 408.019 429.746 407.935 429.826C407.855 429.906 407.759 429.968 407.647 430.012C407.539 430.06 407.421 430.084 407.293 430.084C407.165 430.084 407.045 430.06 406.933 430.012C406.821 429.968 406.725 429.906 406.645 429.826C406.565 429.746 406.501 429.652 406.453 429.544C406.409 429.432 406.387 429.312 406.387 429.184ZM412.795 429.184C412.795 429.06 412.817 428.942 412.861 428.83C412.909 428.718 412.973 428.622 413.053 428.542C413.133 428.462 413.229 428.398 413.341 428.35C413.453 428.302 413.573 428.278 413.701 428.278C413.829 428.278 413.947 428.302 414.055 428.35C414.167 428.398 414.263 428.462 414.343 428.542C414.427 428.622 414.493 428.718 414.541 428.83C414.589 428.942 414.613 429.06 414.613 429.184C414.613 429.312 414.589 429.432 414.541 429.544C414.493 429.652 414.427 429.746 414.343 429.826C414.263 429.906 414.167 429.968 414.055 430.012C413.947 430.06 413.829 430.084 413.701 430.084C413.573 430.084 413.453 430.06 413.341 430.012C413.229 429.968 413.133 429.906 413.053 429.826C412.973 429.746 412.909 429.652 412.861 429.544C412.817 429.432 412.795 429.312 412.795 429.184ZM409.591 429.184C409.591 429.06 409.613 428.942 409.657 428.83C409.705 428.718 409.769 428.622 409.849 428.542C409.929 428.462 410.025 428.398 410.137 428.35C410.249 428.302 410.369 428.278 410.497 428.278C410.625 428.278 410.743 428.302 410.851 428.35C410.963 428.398 411.059 428.462 411.139 428.542C411.223 428.622 411.289 428.718 411.337 428.83C411.385 428.942 411.409 429.06 411.409 429.184C411.409 429.312 411.385 429.432 411.337 429.544C411.289 429.652 411.223 429.746 411.139 429.826C411.059 429.906 410.963 429.968 410.851 430.012C410.743 430.06 410.625 430.084 410.497 430.084C410.369 430.084 410.249 430.06 410.137 430.012C410.025 429.968 409.929 429.906 409.849 429.826C409.769 429.746 409.705 429.652 409.657 429.544C409.613 429.432 409.591 429.312 409.591 429.184Z" fill="#2E2E8B"/>
<path d="M68 224.067C68 217.403 73.4026 212 80.0669 212H333.933C340.597 212 346 217.403 346 224.067V273.933C346 280.597 340.597 286 333.933 286H80.0669C73.4025 286 68 280.597 68 273.933V224.067Z" fill="#FAFCFF"/>
<path d="M159.93 256H157.815L153.075 248.8V256H150.96V245.41H153.075L157.815 252.67V245.41H159.93V256Z" fill="#2E2E8B"/>
<path d="M169.811 247.69V256H167.696V254.32C167.476 254.88 167.111 255.32 166.601 255.64C166.101 255.95 165.521 256.105 164.861 256.105C163.901 256.105 163.136 255.79 162.566 255.16C161.996 254.53 161.711 253.65 161.711 252.52V247.69H163.811V252.28C163.811 252.94 163.981 253.455 164.321 253.825C164.661 254.185 165.121 254.365 165.701 254.365C166.311 254.365 166.796 254.17 167.156 253.78C167.516 253.39 167.696 252.83 167.696 252.1V247.69H169.811Z" fill="#2E2E8B"/>
<path d="M182.327 247.57C183.337 247.57 184.132 247.885 184.712 248.515C185.302 249.135 185.597 250.02 185.597 251.17V256H183.497V251.41C183.497 250.77 183.332 250.28 183.002 249.94C182.682 249.59 182.237 249.415 181.667 249.415C181.077 249.415 180.607 249.6 180.257 249.97C179.907 250.34 179.732 250.88 179.732 251.59V256H177.632V251.41C177.632 250.77 177.467 250.28 177.137 249.94C176.817 249.59 176.372 249.415 175.802 249.415C175.212 249.415 174.742 249.6 174.392 249.97C174.042 250.34 173.867 250.88 173.867 251.59V256H171.752V247.69H173.867V249.265C174.087 248.725 174.432 248.31 174.902 248.02C175.382 247.72 175.937 247.57 176.567 247.57C177.237 247.57 177.817 247.73 178.307 248.05C178.807 248.37 179.182 248.83 179.432 249.43C179.692 248.86 180.077 248.41 180.587 248.08C181.107 247.74 181.687 247.57 182.327 247.57Z" fill="#2E2E8B"/>
<path d="M192.437 247.585C193.137 247.585 193.767 247.755 194.327 248.095C194.887 248.435 195.322 248.93 195.632 249.58C195.952 250.22 196.112 250.975 196.112 251.845C196.112 252.715 195.952 253.475 195.632 254.125C195.322 254.765 194.887 255.255 194.327 255.595C193.767 255.935 193.137 256.105 192.437 256.105C191.737 256.105 191.137 255.94 190.637 255.61C190.147 255.27 189.797 254.82 189.587 254.26V256H187.472V244.9H189.587V249.415C189.797 248.855 190.147 248.41 190.637 248.08C191.137 247.75 191.737 247.585 192.437 247.585ZM191.777 249.43C191.137 249.43 190.607 249.65 190.187 250.09C189.777 250.52 189.572 251.105 189.572 251.845C189.572 252.575 189.777 253.16 190.187 253.6C190.607 254.03 191.137 254.245 191.777 254.245C192.437 254.245 192.967 254.035 193.367 253.615C193.767 253.185 193.967 252.595 193.967 251.845C193.967 251.095 193.767 250.505 193.367 250.075C192.967 249.645 192.437 249.43 191.777 249.43Z" fill="#2E2E8B"/>
<path d="M205.441 251.53C205.441 251.74 205.416 251.98 205.366 252.25H199.276C199.306 252.99 199.506 253.535 199.876 253.885C200.246 254.235 200.706 254.41 201.256 254.41C201.746 254.41 202.151 254.29 202.471 254.05C202.801 253.81 203.011 253.485 203.101 253.075H205.336C205.226 253.655 204.991 254.175 204.631 254.635C204.271 255.095 203.806 255.455 203.236 255.715C202.676 255.975 202.051 256.105 201.361 256.105C200.551 256.105 199.831 255.935 199.201 255.595C198.571 255.245 198.081 254.75 197.731 254.11C197.381 253.47 197.206 252.715 197.206 251.845C197.206 250.975 197.381 250.22 197.731 249.58C198.081 248.93 198.571 248.435 199.201 248.095C199.831 247.755 200.551 247.585 201.361 247.585C202.181 247.585 202.896 247.755 203.506 248.095C204.126 248.435 204.601 248.905 204.931 249.505C205.271 250.095 205.441 250.77 205.441 251.53ZM203.311 251.32C203.341 250.64 203.161 250.125 202.771 249.775C202.391 249.425 201.921 249.25 201.361 249.25C200.791 249.25 200.311 249.425 199.921 249.775C199.531 250.125 199.316 250.64 199.276 251.32H203.311Z" fill="#2E2E8B"/>
<path d="M209.075 249.28C209.385 248.75 209.795 248.335 210.305 248.035C210.815 247.725 211.385 247.57 212.015 247.57V249.835H211.4C209.85 249.835 209.075 250.555 209.075 251.995V256H206.96V247.69H209.075V249.28Z" fill="#2E2E8B"/>
<path d="M84 236C84 231.582 87.5817 228 92 228H125C129.418 228 133 231.582 133 236V262C133 266.418 129.418 270 125 270H92C87.5817 270 84 266.418 84 262V236Z" fill="#FD798C"/>
<path d="M103.769 252.89V254H98.9687V252.89H100.727V247.832C100.727 247.632 100.733 247.426 100.745 247.214L99.4967 248.258C99.4247 248.314 99.3527 248.35 99.2807 248.366C99.2127 248.378 99.1467 248.378 99.0827 248.366C99.0227 248.354 98.9687 248.334 98.9207 248.306C98.8727 248.274 98.8367 248.24 98.8127 248.204L98.3447 247.562L100.991 245.312H102.209V252.89H103.769Z" fill="#2E2E8B"/>
<path d="M110.406 252.62C110.566 252.62 110.692 252.666 110.784 252.758C110.88 252.846 110.928 252.964 110.928 253.112V254H104.976V253.508C104.976 253.408 104.996 253.304 105.036 253.196C105.08 253.084 105.148 252.984 105.24 252.896L107.874 250.256C108.094 250.032 108.29 249.818 108.462 249.614C108.638 249.41 108.784 249.208 108.9 249.008C109.016 248.808 109.104 248.606 109.164 248.402C109.228 248.194 109.26 247.976 109.26 247.748C109.26 247.54 109.23 247.358 109.17 247.202C109.11 247.042 109.024 246.908 108.912 246.8C108.804 246.692 108.672 246.612 108.516 246.56C108.364 246.504 108.192 246.476 108 246.476C107.824 246.476 107.66 246.502 107.508 246.554C107.36 246.602 107.228 246.672 107.112 246.764C106.996 246.852 106.898 246.956 106.818 247.076C106.738 247.196 106.678 247.328 106.638 247.472C106.57 247.656 106.482 247.778 106.374 247.838C106.266 247.898 106.11 247.912 105.906 247.88L105.126 247.742C105.186 247.326 105.302 246.962 105.474 246.65C105.646 246.334 105.86 246.072 106.116 245.864C106.376 245.652 106.672 245.494 107.004 245.39C107.34 245.282 107.7 245.228 108.084 245.228C108.484 245.228 108.85 245.288 109.182 245.408C109.514 245.524 109.798 245.69 110.034 245.906C110.27 246.122 110.454 246.382 110.586 246.686C110.718 246.99 110.784 247.328 110.784 247.7C110.784 248.02 110.736 248.316 110.64 248.588C110.548 248.86 110.422 249.12 110.262 249.368C110.106 249.616 109.922 249.856 109.71 250.088C109.498 250.32 109.276 250.556 109.044 250.796L107.088 252.794C107.276 252.738 107.462 252.696 107.646 252.668C107.834 252.636 108.012 252.62 108.18 252.62H110.406Z" fill="#2E2E8B"/>
<path d="M112.129 247.742C112.189 247.326 112.305 246.962 112.477 246.65C112.649 246.334 112.863 246.072 113.119 245.864C113.379 245.652 113.675 245.494 114.007 245.39C114.343 245.282 114.703 245.228 115.087 245.228C115.487 245.228 115.847 245.286 116.167 245.402C116.491 245.514 116.767 245.672 116.995 245.876C117.223 246.076 117.397 246.312 117.517 246.584C117.641 246.856 117.703 247.15 117.703 247.466C117.703 247.742 117.671 247.986 117.607 248.198C117.547 248.406 117.459 248.588 117.343 248.744C117.227 248.9 117.083 249.032 116.911 249.14C116.739 249.248 116.545 249.338 116.329 249.41C116.849 249.574 117.237 249.824 117.493 250.16C117.749 250.496 117.877 250.918 117.877 251.426C117.877 251.858 117.797 252.24 117.637 252.572C117.477 252.904 117.261 253.184 116.989 253.412C116.717 253.636 116.401 253.806 116.041 253.922C115.685 254.038 115.307 254.096 114.907 254.096C114.471 254.096 114.091 254.046 113.767 253.946C113.443 253.846 113.161 253.698 112.921 253.502C112.681 253.306 112.477 253.066 112.309 252.782C112.141 252.498 111.997 252.17 111.877 251.798L112.531 251.528C112.703 251.456 112.863 251.438 113.011 251.474C113.163 251.506 113.273 251.586 113.341 251.714C113.413 251.854 113.491 251.992 113.575 252.128C113.663 252.264 113.767 252.386 113.887 252.494C114.007 252.598 114.147 252.684 114.307 252.752C114.471 252.816 114.665 252.848 114.889 252.848C115.141 252.848 115.361 252.808 115.549 252.728C115.737 252.644 115.893 252.536 116.017 252.404C116.145 252.272 116.239 252.126 116.299 251.966C116.363 251.802 116.395 251.638 116.395 251.474C116.395 251.266 116.373 251.078 116.329 250.91C116.285 250.738 116.193 250.592 116.053 250.472C115.913 250.352 115.711 250.258 115.447 250.19C115.187 250.122 114.837 250.088 114.397 250.088V249.032C114.761 249.028 115.063 248.994 115.303 248.93C115.543 248.866 115.733 248.778 115.873 248.666C116.017 248.55 116.117 248.412 116.173 248.252C116.229 248.092 116.257 247.916 116.257 247.724C116.257 247.316 116.143 247.006 115.915 246.794C115.687 246.582 115.383 246.476 115.003 246.476C114.827 246.476 114.665 246.502 114.517 246.554C114.369 246.602 114.235 246.672 114.115 246.764C113.999 246.852 113.901 246.956 113.821 247.076C113.741 247.196 113.681 247.328 113.641 247.472C113.573 247.656 113.483 247.778 113.371 247.838C113.263 247.898 113.109 247.912 112.909 247.88L112.129 247.742Z" fill="#2E2E8B"/>
<path d="M68 314.067C68 307.403 73.4026 302 80.0669 302H333.933C340.597 302 346 307.403 346 314.067V363.933C346 370.597 340.597 376 333.933 376H80.0669C73.4025 376 68 370.597 68 363.933V314.067Z" fill="#FAFCFF"/>
<path d="M160.275 340.69C160.275 341.74 160.055 342.665 159.615 343.465C159.175 344.265 158.535 344.89 157.695 345.34C156.865 345.78 155.875 346 154.725 346H150.96V335.41H154.725C155.875 335.41 156.865 335.63 157.695 336.07C158.535 336.5 159.175 337.115 159.615 337.915C160.055 338.705 160.275 339.63 160.275 340.69ZM154.545 344.11C155.685 344.11 156.565 343.81 157.185 343.21C157.815 342.61 158.13 341.77 158.13 340.69C158.13 339.6 157.815 338.755 157.185 338.155C156.565 337.555 155.685 337.255 154.545 337.255H153.075V344.11H154.545Z" fill="#2E2E8B"/>
<path d="M165.131 337.585C165.831 337.585 166.431 337.75 166.931 338.08C167.431 338.41 167.786 338.855 167.996 339.415V337.69H170.096V346H167.996V344.26C167.786 344.82 167.431 345.27 166.931 345.61C166.431 345.94 165.831 346.105 165.131 346.105C164.431 346.105 163.801 345.935 163.241 345.595C162.681 345.255 162.241 344.765 161.921 344.125C161.611 343.475 161.456 342.715 161.456 341.845C161.456 340.975 161.611 340.22 161.921 339.58C162.241 338.93 162.681 338.435 163.241 338.095C163.801 337.755 164.431 337.585 165.131 337.585ZM165.791 339.43C165.131 339.43 164.601 339.645 164.201 340.075C163.801 340.505 163.601 341.095 163.601 341.845C163.601 342.595 163.801 343.185 164.201 343.615C164.601 344.035 165.131 344.245 165.791 344.245C166.431 344.245 166.956 344.03 167.366 343.6C167.786 343.16 167.996 342.575 167.996 341.845C167.996 341.105 167.786 340.52 167.366 340.09C166.956 339.65 166.431 339.43 165.791 339.43Z" fill="#2E2E8B"/>
<path d="M176.47 344.185V346H175.36C174.43 346 173.715 345.775 173.215 345.325C172.725 344.875 172.48 344.125 172.48 343.075V339.475H171.325V337.69H172.48V335.635H174.595V337.69H176.455V339.475H174.595V343.105C174.595 343.505 174.675 343.785 174.835 343.945C174.995 344.105 175.265 344.185 175.645 344.185H176.47Z" fill="#2E2E8B"/>
<path d="M185.824 341.53C185.824 341.74 185.799 341.98 185.749 342.25H179.659C179.689 342.99 179.889 343.535 180.259 343.885C180.629 344.235 181.089 344.41 181.639 344.41C182.129 344.41 182.534 344.29 182.854 344.05C183.184 343.81 183.394 343.485 183.484 343.075H185.719C185.609 343.655 185.374 344.175 185.014 344.635C184.654 345.095 184.189 345.455 183.619 345.715C183.059 345.975 182.434 346.105 181.744 346.105C180.934 346.105 180.214 345.935 179.584 345.595C178.954 345.245 178.464 344.75 178.114 344.11C177.764 343.47 177.589 342.715 177.589 341.845C177.589 340.975 177.764 340.22 178.114 339.58C178.464 338.93 178.954 338.435 179.584 338.095C180.214 337.755 180.934 337.585 181.744 337.585C182.564 337.585 183.279 337.755 183.889 338.095C184.509 338.435 184.984 338.905 185.314 339.505C185.654 340.095 185.824 340.77 185.824 341.53ZM183.694 341.32C183.724 340.64 183.544 340.125 183.154 339.775C182.774 339.425 182.304 339.25 181.744 339.25C181.174 339.25 180.694 339.425 180.304 339.775C179.914 340.125 179.699 340.64 179.659 341.32H183.694Z" fill="#2E2E8B"/>
<path d="M84 326C84 321.582 87.5817 318 92 318H125C129.418 318 133 321.582 133 326V352C133 356.418 129.418 360 125 360H92C87.5817 360 84 356.418 84 352V326Z" fill="#80EBFF"/>
<path fill-rule="evenodd" clip-rule="evenodd" d="M103.39 332.846V331H105.181V332.846H111.646V331H113.437V332.846H113.826C115.536 332.846 115.805 333.153 115.827 334.653V343.965C115.827 345.276 115.709 345.817 114.096 345.817H102.741C101.128 345.817 101 345.424 101 343.832V334.834C101.022 333.569 101.144 332.846 102.854 332.846L103.39 332.846ZM102.433 343.575C102.433 344.076 102.584 344.109 102.913 344.109H113.974C114.302 344.109 114.394 344.101 114.394 343.6V337.318C114.385 336.931 114.259 336.863 114.004 336.863H102.796C102.54 336.863 102.43 336.919 102.433 337.217L102.433 343.575Z" fill="#2E2E8B"/>
<path d="M68 404.067C68 397.403 73.4026 392 80.0669 392H333.933C340.597 392 346 397.403 346 404.067V453.933C346 460.597 340.597 466 333.933 466H80.0669C73.4025 466 68 460.597 68 453.933V404.067Z" fill="#FAFCFF"/>
<path d="M153.075 432.07V436H150.96V425.41H154.815C156.065 425.41 157.005 425.71 157.635 426.31C158.275 426.91 158.595 427.725 158.595 428.755C158.595 429.765 158.265 430.57 157.605 431.17C156.955 431.77 156.025 432.07 154.815 432.07H153.075ZM154.59 430.375C155.83 430.375 156.45 429.835 156.45 428.755C156.45 428.225 156.305 427.82 156.015 427.54C155.725 427.26 155.25 427.12 154.59 427.12H153.075V430.375H154.59Z" fill="#2E2E8B"/>
<path d="M163.241 427.585C163.941 427.585 164.541 427.75 165.041 428.08C165.541 428.41 165.896 428.855 166.106 429.415V427.69H168.206V436H166.106V434.26C165.896 434.82 165.541 435.27 165.041 435.61C164.541 435.94 163.941 436.105 163.241 436.105C162.541 436.105 161.911 435.935 161.351 435.595C160.791 435.255 160.351 434.765 160.031 434.125C159.721 433.475 159.566 432.715 159.566 431.845C159.566 430.975 159.721 430.22 160.031 429.58C160.351 428.93 160.791 428.435 161.351 428.095C161.911 427.755 162.541 427.585 163.241 427.585ZM163.901 429.43C163.241 429.43 162.711 429.645 162.311 430.075C161.911 430.505 161.711 431.095 161.711 431.845C161.711 432.595 161.911 433.185 162.311 433.615C162.711 434.035 163.241 434.245 163.901 434.245C164.541 434.245 165.066 434.03 165.476 433.6C165.896 433.16 166.106 432.575 166.106 431.845C166.106 431.105 165.896 430.52 165.476 430.09C165.066 429.65 164.541 429.43 163.901 429.43Z" fill="#2E2E8B"/>
<path d="M173.005 427.585C174.015 427.585 174.825 427.84 175.435 428.35C176.045 428.86 176.425 429.54 176.575 430.39H174.595C174.515 429.99 174.335 429.67 174.055 429.43C173.775 429.19 173.41 429.07 172.96 429.07C172.6 429.07 172.32 429.155 172.12 429.325C171.92 429.495 171.82 429.725 171.82 430.015C171.82 430.245 171.9 430.43 172.06 430.57C172.22 430.71 172.42 430.82 172.66 430.9C172.9 430.98 173.245 431.075 173.695 431.185C174.325 431.325 174.835 431.475 175.225 431.635C175.625 431.785 175.965 432.03 176.245 432.37C176.535 432.7 176.68 433.15 176.68 433.72C176.68 434.43 176.4 435.005 175.84 435.445C175.29 435.885 174.545 436.105 173.605 436.105C172.525 436.105 171.66 435.865 171.01 435.385C170.36 434.895 169.965 434.2 169.825 433.3H171.85C171.9 433.71 172.08 434.035 172.39 434.275C172.7 434.505 173.105 434.62 173.605 434.62C173.965 434.62 174.24 434.535 174.43 434.365C174.62 434.185 174.715 433.955 174.715 433.675C174.715 433.435 174.63 433.24 174.46 433.09C174.3 432.94 174.095 432.825 173.845 432.745C173.605 432.665 173.26 432.57 172.81 432.46C172.19 432.32 171.685 432.18 171.295 432.04C170.915 431.89 170.585 431.655 170.305 431.335C170.035 431.015 169.9 430.575 169.9 430.015C169.9 429.295 170.175 428.71 170.725 428.26C171.275 427.81 172.035 427.585 173.005 427.585Z" fill="#2E2E8B"/>
<path d="M181.138 427.585C182.148 427.585 182.958 427.84 183.568 428.35C184.178 428.86 184.558 429.54 184.708 430.39H182.728C182.648 429.99 182.468 429.67 182.188 429.43C181.908 429.19 181.543 429.07 181.093 429.07C180.733 429.07 180.453 429.155 180.253 429.325C180.053 429.495 179.953 429.725 179.953 430.015C179.953 430.245 180.033 430.43 180.193 430.57C180.353 430.71 180.553 430.82 180.793 430.9C181.033 430.98 181.378 431.075 181.828 431.185C182.458 431.325 182.968 431.475 183.358 431.635C183.758 431.785 184.098 432.03 184.378 432.37C184.668 432.7 184.813 433.15 184.813 433.72C184.813 434.43 184.533 435.005 183.973 435.445C183.423 435.885 182.678 436.105 181.738 436.105C180.658 436.105 179.793 435.865 179.143 435.385C178.493 434.895 178.098 434.2 177.958 433.3H179.983C180.033 433.71 180.213 434.035 180.523 434.275C180.833 434.505 181.238 434.62 181.738 434.62C182.098 434.62 182.373 434.535 182.563 434.365C182.753 434.185 182.848 433.955 182.848 433.675C182.848 433.435 182.763 433.24 182.593 433.09C182.433 432.94 182.228 432.825 181.978 432.745C181.738 432.665 181.393 432.57 180.943 432.46C180.323 432.32 179.818 432.18 179.428 432.04C179.048 431.89 178.718 431.655 178.438 431.335C178.168 431.015 178.033 430.575 178.033 430.015C178.033 429.295 178.308 428.71 178.858 428.26C179.408 427.81 180.168 427.585 181.138 427.585Z" fill="#2E2E8B"/>
<path d="M198.301 427.69L196.066 436H193.726L191.941 429.955L190.111 436H187.771L185.551 427.69H187.666L189.016 434.11L190.861 427.69H193.096L194.956 434.11L196.321 427.69H198.301Z" fill="#2E2E8B"/>
<path d="M203.212 427.585C204.022 427.585 204.747 427.755 205.387 428.095C206.037 428.435 206.547 428.93 206.917 429.58C207.287 430.22 207.472 430.975 207.472 431.845C207.472 432.715 207.287 433.47 206.917 434.11C206.547 434.75 206.037 435.245 205.387 435.595C204.747 435.935 204.022 436.105 203.212 436.105C202.402 436.105 201.672 435.935 201.022 435.595C200.382 435.245 199.877 434.75 199.507 434.11C199.137 433.47 198.952 432.715 198.952 431.845C198.952 430.975 199.137 430.22 199.507 429.58C199.877 428.93 200.382 428.435 201.022 428.095C201.672 427.755 202.402 427.585 203.212 427.585ZM203.212 429.415C202.622 429.415 202.122 429.625 201.712 430.045C201.302 430.455 201.097 431.055 201.097 431.845C201.097 432.635 201.302 433.24 201.712 433.66C202.122 434.07 202.622 434.275 203.212 434.275C203.802 434.275 204.302 434.07 204.712 433.66C205.122 433.24 205.327 432.635 205.327 431.845C205.327 431.055 205.122 430.455 204.712 430.045C204.302 429.625 203.802 429.415 203.212 429.415Z" fill="#2E2E8B"/>
<path d="M211.099 429.28C211.409 428.75 211.819 428.335 212.329 428.035C212.839 427.725 213.409 427.57 214.039 427.57V429.835H213.424C211.874 429.835 211.099 430.555 211.099 431.995V436H208.984V427.69H211.099V429.28Z" fill="#2E2E8B"/>
<path d="M218.482 427.585C219.182 427.585 219.777 427.75 220.267 428.08C220.767 428.41 221.127 428.855 221.347 429.415V424.9H223.447V436H221.347V434.26C221.127 434.82 220.767 435.27 220.267 435.61C219.777 435.94 219.182 436.105 218.482 436.105C217.782 436.105 217.152 435.935 216.592 435.595C216.032 435.255 215.592 434.765 215.272 434.125C214.962 433.475 214.807 432.715 214.807 431.845C214.807 430.975 214.962 430.22 215.272 429.58C215.592 428.93 216.032 428.435 216.592 428.095C217.152 427.755 217.782 427.585 218.482 427.585ZM219.142 429.43C218.482 429.43 217.952 429.645 217.552 430.075C217.152 430.505 216.952 431.095 216.952 431.845C216.952 432.595 217.152 433.185 217.552 433.615C217.952 434.035 218.482 434.245 219.142 434.245C219.782 434.245 220.307 434.03 220.717 433.6C221.137 433.16 221.347 432.575 221.347 431.845C221.347 431.105 221.137 430.52 220.717 430.09C220.307 429.65 219.782 429.43 219.142 429.43Z" fill="#2E2E8B"/>
<path d="M84 416C84 411.582 87.5817 408 92 408H125C129.418 408 133 411.582 133 416V442C133 446.418 129.418 450 125 450H92C87.5817 450 84 446.418 84 442V416Z" fill="#B195FF"/>
<path d="M112.25 429C112.458 429 112.635 429.073 112.781 429.219C112.927 429.365 113 429.542 113 429.75V434.25C113 434.458 112.927 434.635 112.781 434.781C112.635 434.927 112.458 435 112.25 435H104.75C104.542 435 104.365 434.927 104.219 434.781C104.073 434.635 104 434.458 104 434.25V429.75C104 429.542 104.073 429.365 104.219 429.219C104.365 429.073 104.542 429 104.75 429H105V426.5C105 425.536 105.342 424.712 106.027 424.027C106.712 423.342 107.536 423 108.5 423C109.464 423 110.288 423.342 110.973 424.027C111.658 424.712 112 425.536 112 426.5C112 426.635 111.951 426.753 111.852 426.852C111.753 426.951 111.635 427 111.5 427H111C110.865 427 110.747 426.951 110.648 426.852C110.549 426.753 110.5 426.635 110.5 426.5C110.5 425.948 110.305 425.477 109.914 425.086C109.523 424.695 109.052 424.5 108.5 424.5C107.948 424.5 107.477 424.695 107.086 425.086C106.695 425.477 106.5 425.948 106.5 426.5V429H112.25Z" fill="#2E2E8B"/>
<defs>
<filter id="filter0_d" x="0" y="0" width="717" height="552" filterUnits="userSpaceOnUse" color-interpolation-filters="sRGB">
<feFlood flood-opacity="0" result="BackgroundImageFix"/>
<feColorMatrix in="SourceAlpha" type="matrix" values="0 0 0 0 0 0 0 0 0 0 0 0 0 0 0 0 0 0 127 0"/>
<feOffset dy="11"/>
<feGaussianBlur stdDeviation="14"/>
<feColorMatrix type="matrix" values="0 0 0 0 0.458824 0 0 0 0 0.552941 0 0 0 0 0.65098 0 0 0 0.214161 0"/>
<feBlend mode="normal" in2="BackgroundImageFix" result="effect1_dropShadow"/>
<feBlend mode="normal" in="SourceGraphic" in2="effect1_dropShadow" result="shape"/>
</filter>
</defs>
</svg>
